<svg width="60" height="61" viewBox="0 0 60 61" fill="none" xmlns="http://www.w3.org/2000/svg">
<g filter="url(#filter0_d_703_13878)">
<rect x="6" y="3.5" width="48" height="48" rx="14" fill="url(#paint0_linear_703_13878)" shape-rendering="crispEdges"/>
<path d="M41.6667 23.4407V18.144C41.6667 16.499 40.92 15.834 39.065 15.834H34.3517C32.4967 15.834 31.75 16.499 31.75 18.144V23.429C31.75 25.0857 32.4967 25.739 34.3517 25.739H39.065C40.92 25.7507 41.6667 25.0857 41.6667 23.4407Z" fill="white"/>
<path d="M41.6667 36.565V31.8517C41.6667 29.9967 40.92 29.25 39.065 29.25H34.3517C32.4967 29.25 31.75 29.9967 31.75 31.8517V36.565C31.75 38.42 32.4967 39.1667 34.3517 39.1667H39.065C40.92 39.1667 41.6667 38.42 41.6667 36.565Z" fill="white"/>
<path d="M28.2507 23.4407V18.144C28.2507 16.499 27.504 15.834 25.649 15.834H20.9357C19.0807 15.834 18.334 16.499 18.334 18.144V23.429C18.334 25.0857 19.0807 25.739 20.9357 25.739H25.649C27.504 25.7507 28.2507 25.0857 28.2507 23.4407Z" fill="white"/>
<path d="M28.2507 36.565V31.8517C28.2507 29.9967 27.504 29.25 25.649 29.25H20.9357C19.0807 29.25 18.334 29.9967 18.334 31.8517V36.565C18.334 38.42 19.0807 39.1667 20.9357 39.1667H25.649C27.504 39.1667 28.2507 38.42 28.2507 36.565Z" fill="white"/>
<rect x="5" y="2.5" width="50" height="50" rx="15" stroke="url(#paint1_linear_703_13878)" stroke-width="2" shape-rendering="crispEdges"/>
</g>
<defs>
<filter id="filter0_d_703_13878" x="0" y="0.5" width="60" height="60" filterUnits="userSpaceOnUse" color-interpolation-filters="sRGB">
<feFlood flood-opacity="0" result="BackgroundImageFix"/>
<feColorMatrix in="SourceAlpha" type="matrix" values="0 0 0 0 0 0 0 0 0 0 0 0 0 0 0 0 0 0 127 0" result="hardAlpha"/>
<feOffset dy="3"/>
<feGaussianBlur stdDeviation="2"/>
<feComposite in2="hardAlpha" operator="out"/>
<feColorMatrix type="matrix" values="0 0 0 0 0 0 0 0 0 0.34 0 0 0 0 1 0 0 0 1 0"/>
<feBlend mode="normal" in2="BackgroundImageFix" result="effect1_dropShadow_703_13878"/>
<feBlend mode="normal" in="SourceGraphic" in2="effect1_dropShadow_703_13878" result="shape"/>
</filter>
<linearGradient id="paint0_linear_703_13878" x1="29.9842" y1="51.5" x2="29.9842" y2="3.5" gradientUnits="userSpaceOnUse">
<stop stop-color="#2E6CFF"/>
<stop offset="1" stop-color="#59B4FF"/>
</linearGradient>
<linearGradient id="paint1_linear_703_13878" x1="30" y1="3.5" x2="30" y2="51.5" gradientUnits="userSpaceOnUse">
<stop stop-color="white"/>
<stop offset="1" stop-color="white" stop-opacity="0"/>
</linearGradient>
</defs>
</svg>
