<svg width="58" height="58" viewBox="0 0 58 58" fill="none" xmlns="http://www.w3.org/2000/svg">
<g filter="url(#filter0_d_395_6459)">
<circle cx="29" cy="25" r="25" fill="url(#paint0_linear_395_6459)"/>
</g>
<path d="M24.1323 32.9475V31.4212C21.106 29.5923 18.6191 26.0265 18.6191 22.237C18.6191 15.7239 24.606 10.6186 31.3691 12.0923C34.3428 12.7502 36.9481 14.7239 38.3033 17.4475C41.0533 22.9739 38.1586 28.8423 33.9086 31.4081V32.9344C33.9086 33.316 34.0534 34.1975 32.6455 34.1975H25.3955C23.9481 34.2107 24.1323 33.6449 24.1323 32.9475Z" stroke="white" stroke-width="1.97368" stroke-linecap="round" stroke-linejoin="round"/>
<path d="M24.395 38.158C27.4082 37.3028 30.5924 37.3028 33.6055 38.158" stroke="white" stroke-width="1.97368" stroke-linecap="round" stroke-linejoin="round"/>
<defs>
<filter id="filter0_d_395_6459" x="0" y="0" width="58" height="58" filterUnits="userSpaceOnUse" color-interpolation-filters="sRGB">
<feFlood flood-opacity="0" result="BackgroundImageFix"/>
<feColorMatrix in="SourceAlpha" type="matrix" values="0 0 0 0 0 0 0 0 0 0 0 0 0 0 0 0 0 0 127 0" result="hardAlpha"/>
<feOffset dy="4"/>
<feGaussianBlur stdDeviation="2"/>
<feComposite in2="hardAlpha" operator="out"/>
<feColorMatrix type="matrix" values="0 0 0 0 0.0823529 0 0 0 0 0.439216 0 0 0 0 0.937255 0 0 0 1 0"/>
<feBlend mode="normal" in2="BackgroundImageFix" result="effect1_dropShadow_395_6459"/>
<feBlend mode="normal" in="SourceGraphic" in2="effect1_dropShadow_395_6459" result="shape"/>
</filter>
<linearGradient id="paint0_linear_395_6459" x1="28.9836" y1="50" x2="28.9836" y2="0" gradientUnits="userSpaceOnUse">
<stop stop-color="#2E6CFF"/>
<stop offset="1" stop-color="#59B4FF"/>
</linearGradient>
</defs>
</svg>
