<svg width="41" height="41" viewBox="0 0 41 41" fill="none" xmlns="http://www.w3.org/2000/svg">
<circle cx="20.2381" cy="20.2381" r="19.0238" fill="#FB551B" stroke="url(#paint0_linear_28_156)" stroke-width="2.42857"/>
<path d="M20.2541 11.6536C17.128 11.6536 14.5875 14.1941 14.5875 17.3202V20.0497C14.5875 20.6258 14.3419 21.5041 14.0491 21.9952L12.963 23.7991C12.2925 24.9136 12.7552 26.1508 13.983 26.5663C18.0536 27.9263 22.4452 27.9263 26.5158 26.5663C27.6586 26.1886 28.1591 24.838 27.5358 23.7991L26.4497 21.9952C26.1663 21.5041 25.9208 20.6258 25.9208 20.0497V17.3202C25.9208 14.2036 23.3708 11.6536 20.2541 11.6536Z" fill="white" stroke="white" stroke-width="1.41667" stroke-miterlimit="10" stroke-linecap="round"/>
<path d="M22.0016 11.9275C21.7089 11.8425 21.4066 11.7764 21.095 11.7387C20.1883 11.6253 19.3194 11.6914 18.5072 11.9275C18.7811 11.2287 19.4611 10.7375 20.2544 10.7375C21.0478 10.7375 21.7278 11.2287 22.0016 11.9275Z" stroke="white" stroke-width="1.41667" stroke-miterlimit="10" stroke-linecap="round" stroke-linejoin="round"/>
<path d="M23.0874 26.9062C23.0874 28.4646 21.8124 29.7396 20.2541 29.7396C19.4797 29.7396 18.7619 29.4185 18.2519 28.9085C17.7419 28.3985 17.4208 27.6807 17.4208 26.9062" fill="#FFC90C"/>
<path d="M23.0874 26.9062C23.0874 28.4646 21.8124 29.7396 20.2541 29.7396C19.4797 29.7396 18.7619 29.4185 18.2519 28.9085C17.7419 28.3985 17.4208 27.6807 17.4208 26.9062" stroke="white" stroke-width="1.41667" stroke-miterlimit="10"/>
<defs>
<linearGradient id="paint0_linear_28_156" x1="20.2381" y1="0" x2="20.2381" y2="40.4762" gradientUnits="userSpaceOnUse">
<stop stop-color="white"/>
<stop offset="1" stop-color="white" stop-opacity="0"/>
</linearGradient>
</defs>
</svg>
