<svg width="49" height="49" viewBox="0 0 49 49" fill="none" xmlns="http://www.w3.org/2000/svg">
<g filter="url(#filter0_d_705_13905)">
<circle cx="24.2381" cy="21.2381" r="20.2381" fill="url(#paint0_linear_705_13905)"/>
<circle cx="24.2381" cy="21.2381" r="19.2381" stroke="url(#paint1_linear_705_13905)" stroke-width="2"/>
</g>
<path d="M24.2552 12.6543C21.1291 12.6543 18.5886 15.1949 18.5886 18.321V21.0504C18.5886 21.6265 18.343 22.5049 18.0502 22.996L16.9641 24.7999C16.2936 25.9143 16.7563 27.1515 17.9841 27.5671C22.0547 28.9271 26.4463 28.9271 30.5169 27.5671C31.6597 27.1893 32.1602 25.8387 31.5369 24.7999L30.4508 22.996C30.1674 22.5049 29.9219 21.6265 29.9219 21.0504V18.321C29.9219 15.2043 27.3719 12.6543 24.2552 12.6543Z" fill="white" stroke="white" stroke-width="1.41667" stroke-miterlimit="10" stroke-linecap="round"/>
<path d="M26.0023 12.9283C25.7095 12.8433 25.4073 12.7772 25.0956 12.7394C24.1889 12.6261 23.32 12.6922 22.5078 12.9283C22.7817 12.2294 23.4617 11.7383 24.255 11.7383C25.0484 11.7383 25.7284 12.2294 26.0023 12.9283Z" stroke="white" stroke-width="1.41667" stroke-miterlimit="10" stroke-linecap="round" stroke-linejoin="round"/>
<path d="M27.0885 27.9062C27.0885 29.4646 25.8135 30.7396 24.2552 30.7396C23.4808 30.7396 22.763 30.4185 22.253 29.9085C21.743 29.3985 21.4219 28.6807 21.4219 27.9062" fill="#2F6DFF"/>
<path d="M27.0885 27.9062C27.0885 29.4646 25.8135 30.7396 24.2552 30.7396C23.4808 30.7396 22.763 30.4185 22.253 29.9085C21.743 29.3985 21.4219 28.6807 21.4219 27.9062" stroke="white" stroke-width="1.41667" stroke-miterlimit="10"/>
<defs>
<filter id="filter0_d_705_13905" x="0" y="0" width="48.4766" height="48.4766" filterUnits="userSpaceOnUse" color-interpolation-filters="sRGB">
<feFlood flood-opacity="0" result="BackgroundImageFix"/>
<feColorMatrix in="SourceAlpha" type="matrix" values="0 0 0 0 0 0 0 0 0 0 0 0 0 0 0 0 0 0 127 0" result="hardAlpha"/>
<feOffset dy="3"/>
<feGaussianBlur stdDeviation="2"/>
<feComposite in2="hardAlpha" operator="out"/>
<feColorMatrix type="matrix" values="0 0 0 0 0 0 0 0 0 0.34 0 0 0 0 1 0 0 0 1 0"/>
<feBlend mode="normal" in2="BackgroundImageFix" result="effect1_dropShadow_705_13905"/>
<feBlend mode="normal" in="SourceGraphic" in2="effect1_dropShadow_705_13905" result="shape"/>
</filter>
<linearGradient id="paint0_linear_705_13905" x1="24.2248" y1="41.4762" x2="24.2248" y2="1" gradientUnits="userSpaceOnUse">
<stop stop-color="#2E6CFF"/>
<stop offset="1" stop-color="#59B4FF"/>
</linearGradient>
<linearGradient id="paint1_linear_705_13905" x1="24.2381" y1="1" x2="24.2381" y2="41.4762" gradientUnits="userSpaceOnUse">
<stop stop-color="white"/>
<stop offset="1" stop-color="white" stop-opacity="0"/>
</linearGradient>
</defs>
</svg>
