<svg width="105" height="31" viewBox="0 0 105 31" fill="none" xmlns="http://www.w3.org/2000/svg">
<mask id="mask0_340_6455" style="mask-type:alpha" maskUnits="userSpaceOnUse" x="0" y="0" width="105" height="31">
<rect width="105" height="31" rx="15.5" fill="url(#paint0_linear_340_6455)"/>
</mask>
<g mask="url(#mask0_340_6455)">
<rect width="105" height="31" rx="15.5" fill="url(#paint1_linear_340_6455)"/>
<g style="mix-blend-mode:overlay" opacity="0.3">
<path fill-rule="evenodd" clip-rule="evenodd" d="M1.42264 22.4699C4.57961 28.1537 10.6438 32 17.6064 32H87.1728C94.154 32 100.232 28.1331 103.382 22.4243C100.003 26.8669 94.6604 29.7349 88.6481 29.7349H16.1216C10.1299 29.7349 4.80351 26.8865 1.42264 22.4699Z" fill="white"/>
</g>
<path d="M24.2516 3.44681C-16.1507 3.44681 0.923742 23.1225 -3.22783 29.9333C-7.37941 36.7442 -15.4849 7.48141 -15.4849 5.58735C-15.4849 3.21978 -8.55875 -7.0397 -7.4044 -7.82889C-6.48092 -8.46025 19.1457 -15.4577 31.8435 -18.8776L84.9437 -1.51537C76.8383 3.21978 75.9748 3.44681 24.2516 3.44681Z" fill="white" fill-opacity="0.3"/>
<g filter="url(#filter0_d_340_6455)">
<path d="M24.3308 19H23.0228C22.3908 19 21.9028 18.832 21.5588 18.496C21.2148 18.16 21.0428 17.676 21.0428 17.044V13.24C21.0428 12.608 21.2148 12.124 21.5588 11.788C21.9028 11.452 22.3908 11.284 23.0228 11.284H24.3308C24.9548 11.284 25.4388 11.456 25.7828 11.8C26.1348 12.136 26.3108 12.616 26.3108 13.24V13.804C26.3108 13.98 26.2228 14.068 26.0468 14.068H25.0388C24.8708 14.068 24.7868 13.98 24.7868 13.804V13.312C24.7868 13.056 24.7308 12.876 24.6188 12.772C24.5148 12.66 24.3348 12.604 24.0788 12.604H23.2628C23.0148 12.604 22.8348 12.66 22.7228 12.772C22.6188 12.876 22.5668 13.056 22.5668 13.312V16.972C22.5668 17.228 22.6188 17.412 22.7228 17.524C22.8348 17.628 23.0148 17.68 23.2628 17.68H24.0788C24.3348 17.68 24.5148 17.628 24.6188 17.524C24.7308 17.412 24.7868 17.228 24.7868 16.972V16.48C24.7868 16.304 24.8708 16.216 25.0388 16.216H26.0468C26.2228 16.216 26.3108 16.304 26.3108 16.48V17.044C26.3108 17.668 26.1348 18.152 25.7828 18.496C25.4388 18.832 24.9548 19 24.3308 19ZM28.8318 19H27.8118C27.6438 19 27.5598 18.916 27.5598 18.748V10.816C27.5598 10.648 27.6438 10.564 27.8118 10.564H28.8318C28.9998 10.564 29.0838 10.648 29.0838 10.816V18.748C29.0838 18.916 28.9998 19 28.8318 19ZM30.5247 11.848V10.804C30.5247 10.644 30.6047 10.564 30.7647 10.564H31.8087C31.9687 10.564 32.0487 10.64 32.0487 10.792V11.848C32.0487 12.008 31.9687 12.088 31.8087 12.088H30.7647C30.6047 12.088 30.5247 12.008 30.5247 11.848ZM30.5247 18.748V13.132C30.5247 12.964 30.6047 12.88 30.7647 12.88H31.7967C31.9647 12.88 32.0487 12.964 32.0487 13.132V18.748C32.0487 18.852 32.0287 18.92 31.9887 18.952C31.9567 18.984 31.8967 19 31.8087 19H30.7767C30.6087 19 30.5247 18.916 30.5247 18.748ZM37.3295 17.932V18.76C37.3295 18.848 37.3095 18.912 37.2695 18.952C37.2375 18.984 37.1735 19 37.0775 19H35.2895C34.6575 19 34.1695 18.832 33.8255 18.496C33.4815 18.16 33.3095 17.676 33.3095 17.044V14.836C33.3095 14.204 33.4815 13.72 33.8255 13.384C34.1695 13.048 34.6575 12.88 35.2895 12.88H37.0775C37.2455 12.88 37.3295 12.964 37.3295 13.132V13.96C37.3295 14.048 37.3095 14.112 37.2695 14.152C37.2375 14.184 37.1735 14.2 37.0775 14.2H35.5295C35.2815 14.2 35.1015 14.256 34.9895 14.368C34.8855 14.472 34.8335 14.652 34.8335 14.908V16.972C34.8335 17.228 34.8855 17.412 34.9895 17.524C35.1015 17.628 35.2815 17.68 35.5295 17.68H37.0775C37.2455 17.68 37.3295 17.764 37.3295 17.932ZM41.8671 12.88H43.0311C43.1271 12.88 43.1911 12.908 43.2231 12.964C43.2551 13.02 43.2431 13.092 43.1871 13.18L41.5911 15.808V15.856L43.2591 18.7C43.3071 18.78 43.3111 18.852 43.2711 18.916C43.2311 18.972 43.1591 19 43.0551 19H42.0231C41.8871 19 41.7871 18.984 41.7231 18.952C41.6671 18.92 41.6071 18.852 41.5431 18.748L40.0191 16.072C39.9471 15.944 39.9471 15.812 40.0191 15.676L41.4591 13.12C41.5471 12.96 41.6831 12.88 41.8671 12.88ZM39.6351 19H38.6151C38.4471 19 38.3631 18.916 38.3631 18.748V10.816C38.3631 10.648 38.4471 10.564 38.6151 10.564H39.6351C39.8031 10.564 39.8871 10.648 39.8871 10.816V18.748C39.8871 18.916 39.8031 19 39.6351 19ZM46.792 14.2H46.312C46.216 14.2 46.148 14.184 46.108 14.152C46.076 14.12 46.06 14.056 46.06 13.96V13.132C46.06 12.964 46.144 12.88 46.312 12.88H46.792C46.88 12.88 46.924 12.836 46.924 12.748V11.608C46.924 11.44 47.012 11.356 47.188 11.356H48.196C48.364 11.356 48.448 11.44 48.448 11.608V12.748C48.448 12.836 48.496 12.88 48.592 12.88H49.528C49.696 12.88 49.78 12.964 49.78 13.132V13.96C49.78 14.048 49.76 14.112 49.72 14.152C49.688 14.184 49.624 14.2 49.528 14.2H48.592C48.496 14.2 48.448 14.244 48.448 14.332V16.984C48.448 17.232 48.504 17.412 48.616 17.524C48.728 17.628 48.912 17.68 49.168 17.68H49.648C49.816 17.68 49.9 17.764 49.9 17.932V18.76C49.9 18.848 49.88 18.912 49.84 18.952C49.808 18.984 49.744 19 49.648 19H48.916C48.284 19 47.792 18.832 47.44 18.496C47.096 18.16 46.924 17.68 46.924 17.056V14.332C46.924 14.244 46.88 14.2 46.792 14.2ZM53.8185 19H52.7505C52.1185 19 51.6305 18.832 51.2865 18.496C50.9425 18.16 50.7705 17.676 50.7705 17.044V14.836C50.7705 14.204 50.9425 13.72 51.2865 13.384C51.6305 13.048 52.1185 12.88 52.7505 12.88H53.8185C54.4425 12.88 54.9265 13.052 55.2705 13.396C55.6225 13.732 55.7985 14.212 55.7985 14.836V17.044C55.7985 17.668 55.6225 18.152 55.2705 18.496C54.9265 18.832 54.4425 19 53.8185 19ZM52.9785 17.692H53.5905C53.8465 17.692 54.0265 17.64 54.1305 17.536C54.2425 17.432 54.2985 17.252 54.2985 16.996V14.884C54.2985 14.628 54.2425 14.448 54.1305 14.344C54.0265 14.24 53.8465 14.188 53.5905 14.188H52.9785C52.7225 14.188 52.5425 14.24 52.4385 14.344C52.3345 14.448 52.2825 14.628 52.2825 14.884V16.996C52.2825 17.252 52.3345 17.432 52.4385 17.536C52.5425 17.64 52.7225 17.692 52.9785 17.692ZM59.5607 17.032V16.792C59.5607 16.624 59.6447 16.54 59.8127 16.54H60.8327C61.0007 16.54 61.0847 16.624 61.0847 16.792V16.888C61.0847 17.192 61.1447 17.4 61.2647 17.512C61.3847 17.624 61.6047 17.68 61.9247 17.68H62.4887C62.8007 17.68 63.0167 17.62 63.1367 17.5C63.2647 17.38 63.3287 17.156 63.3287 16.828V16.684C63.3287 16.452 63.2327 16.276 63.0407 16.156C62.8567 16.028 62.6247 15.952 62.3447 15.928C62.0647 15.904 61.7607 15.86 61.4327 15.796C61.1127 15.724 60.8127 15.636 60.5327 15.532C60.2527 15.42 60.0167 15.208 59.8247 14.896C59.6407 14.576 59.5487 14.168 59.5487 13.672V13.252C59.5487 12.628 59.7247 12.144 60.0767 11.8C60.4287 11.456 60.9167 11.284 61.5407 11.284H62.7407C63.3727 11.284 63.8647 11.456 64.2167 11.8C64.5687 12.144 64.7447 12.628 64.7447 13.252V13.48C64.7447 13.648 64.6607 13.732 64.4927 13.732H63.4727C63.3047 13.732 63.2207 13.648 63.2207 13.48V13.408C63.2207 13.096 63.1607 12.884 63.0407 12.772C62.9207 12.66 62.7007 12.604 62.3807 12.604H61.9127C61.5847 12.604 61.3607 12.668 61.2407 12.796C61.1287 12.916 61.0727 13.156 61.0727 13.516V13.744C61.0727 14.12 61.4007 14.336 62.0567 14.392C62.7367 14.448 63.3407 14.584 63.8687 14.8C64.1487 14.92 64.3807 15.136 64.5647 15.448C64.7567 15.752 64.8527 16.144 64.8527 16.624V17.032C64.8527 17.656 64.6767 18.14 64.3247 18.484C63.9727 18.828 63.4847 19 62.8607 19H61.5527C60.9287 19 60.4407 18.828 60.0887 18.484C59.7367 18.14 59.5607 17.656 59.5607 17.032ZM66.2334 14.2H65.7534C65.6574 14.2 65.5894 14.184 65.5494 14.152C65.5174 14.12 65.5014 14.056 65.5014 13.96V13.132C65.5014 12.964 65.5854 12.88 65.7534 12.88H66.2334C66.3214 12.88 66.3654 12.836 66.3654 12.748V11.608C66.3654 11.44 66.4534 11.356 66.6294 11.356H67.6374C67.8054 11.356 67.8894 11.44 67.8894 11.608V12.748C67.8894 12.836 67.9374 12.88 68.0334 12.88H68.9694C69.1374 12.88 69.2214 12.964 69.2214 13.132V13.96C69.2214 14.048 69.2014 14.112 69.1614 14.152C69.1294 14.184 69.0654 14.2 68.9694 14.2H68.0334C67.9374 14.2 67.8894 14.244 67.8894 14.332V16.984C67.8894 17.232 67.9454 17.412 68.0574 17.524C68.1694 17.628 68.3534 17.68 68.6094 17.68H69.0894C69.2574 17.68 69.3414 17.764 69.3414 17.932V18.76C69.3414 18.848 69.3214 18.912 69.2814 18.952C69.2494 18.984 69.1854 19 69.0894 19H68.3574C67.7254 19 67.2334 18.832 66.8814 18.496C66.5374 18.16 66.3654 17.68 66.3654 17.056V14.332C66.3654 14.244 66.3214 14.2 66.2334 14.2ZM72.4799 19H72.1919C71.5599 19 71.0719 18.832 70.7279 18.496C70.3839 18.16 70.2119 17.676 70.2119 17.044V14.836C70.2119 14.204 70.3839 13.72 70.7279 13.384C71.0719 13.048 71.5599 12.88 72.1919 12.88H74.9639C75.1399 12.88 75.2279 12.964 75.2279 13.132V18.748C75.2279 18.916 75.1399 19 74.9639 19H73.9559C73.7879 19 73.7039 18.916 73.7039 18.748V18.352H73.6559C73.5679 18.568 73.4119 18.732 73.1879 18.844C72.9639 18.948 72.7279 19 72.4799 19ZM73.7039 16.768V14.332C73.7039 14.244 73.6559 14.2 73.5599 14.2H72.4319C72.1759 14.2 71.9959 14.256 71.8919 14.368C71.7879 14.472 71.7359 14.652 71.7359 14.908V16.972C71.7359 17.228 71.7879 17.412 71.8919 17.524C71.9959 17.628 72.1759 17.68 72.4319 17.68H72.8759C73.4279 17.68 73.7039 17.376 73.7039 16.768ZM77.8148 19H76.7948C76.6268 19 76.5428 18.916 76.5428 18.748V13.132C76.5428 12.964 76.6268 12.88 76.7948 12.88H77.8148C77.9828 12.88 78.0668 12.964 78.0668 13.132V13.54H78.1148C78.2028 13.324 78.3588 13.16 78.5828 13.048C78.8068 12.936 79.0428 12.88 79.2908 12.88H79.7228C79.8828 12.88 79.9628 12.964 79.9628 13.132V13.96C79.9628 14.056 79.9428 14.124 79.9028 14.164C79.8708 14.196 79.8108 14.208 79.7228 14.2H78.8948C78.3428 14.2 78.0668 14.512 78.0668 15.136V18.748C78.0668 18.916 77.9828 19 77.8148 19ZM80.8584 14.2H80.3784C80.2824 14.2 80.2144 14.184 80.1744 14.152C80.1424 14.12 80.1264 14.056 80.1264 13.96V13.132C80.1264 12.964 80.2104 12.88 80.3784 12.88H80.8584C80.9464 12.88 80.9904 12.836 80.9904 12.748V11.608C80.9904 11.44 81.0784 11.356 81.2544 11.356H82.2624C82.4304 11.356 82.5144 11.44 82.5144 11.608V12.748C82.5144 12.836 82.5624 12.88 82.6584 12.88H83.5944C83.7624 12.88 83.8464 12.964 83.8464 13.132V13.96C83.8464 14.048 83.8264 14.112 83.7864 14.152C83.7544 14.184 83.6904 14.2 83.5944 14.2H82.6584C82.5624 14.2 82.5144 14.244 82.5144 14.332V16.984C82.5144 17.232 82.5704 17.412 82.6824 17.524C82.7944 17.628 82.9784 17.68 83.2344 17.68H83.7144C83.8824 17.68 83.9664 17.764 83.9664 17.932V18.76C83.9664 18.848 83.9464 18.912 83.9064 18.952C83.8744 18.984 83.8104 19 83.7144 19H82.9824C82.3504 19 81.8584 18.832 81.5064 18.496C81.1624 18.16 80.9904 17.68 80.9904 17.056V14.332C80.9904 14.244 80.9464 14.2 80.8584 14.2Z" fill="white"/>
</g>
</g>
<defs>
<filter id="filter0_d_340_6455" x="19.1928" y="9.639" width="66.6236" height="12.136" filterUnits="userSpaceOnUse" color-interpolation-filters="sRGB">
<feFlood flood-opacity="0" result="BackgroundImageFix"/>
<feColorMatrix in="SourceAlpha" type="matrix" values="0 0 0 0 0 0 0 0 0 0 0 0 0 0 0 0 0 0 127 0" result="hardAlpha"/>
<feOffset dy="0.925"/>
<feGaussianBlur stdDeviation="0.925"/>
<feComposite in2="hardAlpha" operator="out"/>
<feColorMatrix type="matrix" values="0 0 0 0 0 0 0 0 0 0 0 0 0 0 0 0 0 0 0.3 0"/>
<feBlend mode="normal" in2="BackgroundImageFix" result="effect1_dropShadow_340_6455"/>
<feBlend mode="normal" in="SourceGraphic" in2="effect1_dropShadow_340_6455" result="shape"/>
</filter>
<linearGradient id="paint0_linear_340_6455" x1="52.5" y1="0" x2="52.5" y2="31" gradientUnits="userSpaceOnUse">
<stop stop-color="#91D742"/>
<stop offset="1" stop-color="#579900"/>
</linearGradient>
<linearGradient id="paint1_linear_340_6455" x1="52.5" y1="0" x2="52.5" y2="31" gradientUnits="userSpaceOnUse">
<stop stop-color="#91D742"/>
<stop offset="1" stop-color="#65B300"/>
</linearGradient>
</defs>
</svg>
