<svg width="60" height="59" viewBox="0 0 60 59" fill="none" xmlns="http://www.w3.org/2000/svg">
<g clip-path="url(#clip0_569_15621)">
<path d="M30 59C46.2924 59 59.5 45.7924 59.5 29.5C59.5 13.2076 46.2924 0 30 0C13.7076 0 0.5 13.2076 0.5 29.5C0.5 45.7924 13.7076 59 30 59Z" fill="white"/>
<path d="M30 54C43.531 54 54.5 43.031 54.5 29.5C54.5 15.969 43.531 5 30 5C16.469 5 5.5 15.969 5.5 29.5C5.5 43.031 16.469 54 30 54Z" fill="url(#paint0_linear_569_15621)"/>
<path d="M23.5018 21.7132V37.4371C23.5143 37.7219 23.5996 37.9983 23.7494 38.2392C23.8992 38.48 24.1082 38.6768 24.3557 38.8101C24.6032 38.9434 24.8807 39.0085 25.1606 38.9991C25.4404 38.9897 25.713 38.9059 25.9513 38.7563L38.7175 30.8415C38.9563 30.6948 39.1538 30.4877 39.2908 30.2404C39.4279 29.9931 39.5 29.714 39.5 29.4301C39.5 29.1461 39.4279 28.867 39.2908 28.6197C39.1538 28.3725 38.9563 28.1654 38.7175 28.0186L25.9384 20.2358C25.6891 20.0825 25.4035 20.001 25.1122 20C24.8209 19.9991 24.5348 20.0787 24.2846 20.2305C24.0343 20.3822 23.8293 20.6003 23.6914 20.8615C23.5535 21.1227 23.488 21.4171 23.5018 21.7132Z" fill="white"/>
</g>
<defs>
<linearGradient id="paint0_linear_569_15621" x1="29.9839" y1="54" x2="29.9839" y2="5" gradientUnits="userSpaceOnUse">
<stop stop-color="#2E6CFF"/>
<stop offset="1" stop-color="#59B4FF"/>
</linearGradient>
<clipPath id="clip0_569_15621">
<rect width="59" height="59" fill="white" transform="translate(0.5)"/>
</clipPath>
</defs>
</svg>
