<svg width="360" height="497" viewBox="0 0 360 497" fill="none" xmlns="http://www.w3.org/2000/svg">
<rect width="360" height="497" rx="14" fill="url(#paint0_linear_28_269)"/>
<path fill-rule="evenodd" clip-rule="evenodd" d="M0 480.828V482.433C0 490.203 6.29904 496.502 14.0693 496.502H345.931C353.701 496.502 360 490.203 360 482.433V480.828C360 488.598 353.701 494.897 345.931 494.897H14.0693C6.29904 494.897 0 488.598 0 480.828Z" fill="url(#paint1_radial_28_269)" style="mix-blend-mode:screen"/>
<rect width="360" height="494.86" rx="14" fill="#0041D7"/>
<path fill-rule="evenodd" clip-rule="evenodd" d="M5.55128 493.481C3.18564 492.631 2.14064 491.455 3.0519 491.211C3.96317 490.967 4.71338 491.899 6.85471 492.665C8.99604 493.432 10.9479 493.476 10.7709 493.978C10.5938 494.479 7.96779 494.367 5.5617 493.452L5.55128 493.481Z" fill="white"/>
<path fill-rule="evenodd" clip-rule="evenodd" d="M353.96 494.036C356.365 493.162 357.319 491.985 356.401 491.748C355.484 491.51 354.757 492.448 352.697 493.223C350.637 493.999 348.564 494.071 348.754 494.571C348.944 495.071 351.567 494.94 353.949 494.007L353.96 494.036Z" fill="white"/>
<defs>
<linearGradient id="paint0_linear_28_269" x1="0.00221944" y1="248.357" x2="359.995" y2="248.357" gradientUnits="userSpaceOnUse">
<stop stop-color="#164FD9"/>
<stop offset="0.02" stop-color="#4A99FF"/>
<stop offset="0.05" stop-color="#3F87EF"/>
<stop offset="0.09" stop-color="#2F6DD8"/>
<stop offset="0.15" stop-color="#2259C6"/>
<stop offset="0.21" stop-color="#194BBA"/>
<stop offset="0.28" stop-color="#1443B2"/>
<stop offset="0.4" stop-color="#1240B0"/>
<stop offset="0.6" stop-color="#1240B0"/>
<stop offset="0.72" stop-color="#1443B2"/>
<stop offset="0.79" stop-color="#194BBA"/>
<stop offset="0.85" stop-color="#2259C6"/>
<stop offset="0.91" stop-color="#2F6DD8"/>
<stop offset="0.95" stop-color="#3F87EF"/>
<stop offset="0.98" stop-color="#4A99FF"/>
<stop offset="1" stop-color="#1240B0"/>
</linearGradient>
<radialGradient id="paint1_radial_28_269" cx="0" cy="0" r="1" gradientUnits="userSpaceOnUse" gradientTransform="translate(58.0359 478.113) scale(452.68 669.352)">
<stop stop-color="#92DDFF"/>
<stop offset="1"/>
</radialGradient>
</defs>
</svg>
