<svg width="364" height="294" viewBox="0 0 364 294" fill="none" xmlns="http://www.w3.org/2000/svg">
<rect width="364" height="294" rx="14.0693" fill="url(#paint0_linear_316_6468)"/>
<path fill-rule="evenodd" clip-rule="evenodd" d="M0 275V278C0 285.77 6.29904 292.069 14.0693 292.069H349.931C357.701 292.069 364 285.77 364 278V275C364 282.77 357.701 289.069 349.931 289.069H14.0693C6.29904 289.069 0 282.77 0 275Z" fill="url(#paint1_radial_316_6468)" style="mix-blend-mode:screen"/>
<rect width="364" height="291" rx="14.0693" fill="url(#paint2_linear_316_6468)"/>
<path fill-rule="evenodd" clip-rule="evenodd" d="M7.46933 289.846C4.84993 288.723 3.41549 286.757 4.22626 286.14C5.03703 285.522 6.09726 287.094 8.46719 288.105C10.8371 289.116 12.7705 288.835 12.7705 289.789C12.7705 290.744 10.1511 291.025 7.46933 289.789V289.846Z" fill="white"/>
<path fill-rule="evenodd" clip-rule="evenodd" d="M356.871 289.846C359.553 288.723 360.925 286.757 360.115 286.14C359.304 285.522 358.244 287.094 355.936 288.105C353.628 289.116 351.57 288.835 351.57 289.789C351.57 290.744 354.19 291.025 356.871 289.789V289.846Z" fill="white"/>
<defs>
<linearGradient id="paint0_linear_316_6468" x1="0.0022441" y1="146.915" x2="363.995" y2="146.915" gradientUnits="userSpaceOnUse">
<stop stop-color="#164FD9"/>
<stop offset="0.02" stop-color="#4A99FF"/>
<stop offset="0.05" stop-color="#3F87EF"/>
<stop offset="0.09" stop-color="#2F6DD8"/>
<stop offset="0.15" stop-color="#2259C6"/>
<stop offset="0.21" stop-color="#194BBA"/>
<stop offset="0.28" stop-color="#1443B2"/>
<stop offset="0.4" stop-color="#1240B0"/>
<stop offset="0.6" stop-color="#1240B0"/>
<stop offset="0.72" stop-color="#1443B2"/>
<stop offset="0.79" stop-color="#194BBA"/>
<stop offset="0.85" stop-color="#2259C6"/>
<stop offset="0.91" stop-color="#2F6DD8"/>
<stop offset="0.95" stop-color="#3F87EF"/>
<stop offset="0.98" stop-color="#4A99FF"/>
<stop offset="1" stop-color="#1240B0"/>
</linearGradient>
<radialGradient id="paint1_radial_316_6468" cx="0" cy="0" r="1" gradientUnits="userSpaceOnUse" gradientTransform="translate(58.6807 272.044) scale(457.71 728.927)">
<stop stop-color="#92DDFF"/>
<stop offset="1"/>
</radialGradient>
<linearGradient id="paint2_linear_316_6468" x1="181.881" y1="291" x2="181.881" y2="0" gradientUnits="userSpaceOnUse">
<stop stop-color="#2E6CFF"/>
<stop offset="1" stop-color="#59B4FF"/>
</linearGradient>
</defs>
</svg>
