<svg width="60" height="60" viewBox="0 0 60 60" fill="none" xmlns="http://www.w3.org/2000/svg">
<g filter="url(#filter0_d_703_13872)">
<rect x="6" y="3" width="48" height="48" rx="14" fill="url(#paint0_linear_703_13872)" shape-rendering="crispEdges"/>
<path d="M29.2059 16.5H21.9376C19.6159 16.5 18.4492 17.6783 18.4492 20.0233V38.6667H24.7492V34.2917C24.7492 33.8133 25.1459 33.4167 25.6242 33.4167C26.1026 33.4167 26.4992 33.8017 26.4992 34.2917V38.6667H32.6826V20.0233C32.6826 17.6783 31.5276 16.5 29.2059 16.5ZM28.5409 27.875H22.7659C22.2876 27.875 21.8909 27.4783 21.8909 27C21.8909 26.5217 22.2876 26.125 22.7659 26.125H28.5409C29.0192 26.125 29.4159 26.5217 29.4159 27C29.4159 27.4783 29.0192 27.875 28.5409 27.875ZM28.5409 23.5H22.7659C22.2876 23.5 21.8909 23.1033 21.8909 22.625C21.8909 22.1467 22.2876 21.75 22.7659 21.75H28.5409C29.0192 21.75 29.4159 22.1467 29.4159 22.625C29.4159 23.1033 29.0192 23.5 28.5409 23.5Z" fill="white"/>
<path d="M42.8327 37.7936H40.1843V34.2936C41.2927 33.9319 42.0977 32.8936 42.0977 31.6686V29.3353C42.0977 27.8069 40.8493 26.5586 39.321 26.5586C37.7927 26.5586 36.5443 27.8069 36.5443 29.3353V31.6686C36.5443 32.8819 37.3377 33.9086 38.4227 34.2819V37.7936H17.166C16.6877 37.7936 16.291 38.1903 16.291 38.6686C16.291 39.1469 16.6877 39.5436 17.166 39.5436H39.251C39.2743 39.5436 39.286 39.5553 39.3093 39.5553C39.3327 39.5553 39.3443 39.5436 39.3677 39.5436H42.8327C43.311 39.5436 43.7077 39.1469 43.7077 38.6686C43.7077 38.1903 43.311 37.7936 42.8327 37.7936Z" fill="white"/>
<rect x="5" y="2" width="50" height="50" rx="15" stroke="url(#paint1_linear_703_13872)" stroke-width="2" shape-rendering="crispEdges"/>
</g>
<defs>
<filter id="filter0_d_703_13872" x="0" y="0" width="60" height="60" filterUnits="userSpaceOnUse" color-interpolation-filters="sRGB">
<feFlood flood-opacity="0" result="BackgroundImageFix"/>
<feColorMatrix in="SourceAlpha" type="matrix" values="0 0 0 0 0 0 0 0 0 0 0 0 0 0 0 0 0 0 127 0" result="hardAlpha"/>
<feOffset dy="3"/>
<feGaussianBlur stdDeviation="2"/>
<feComposite in2="hardAlpha" operator="out"/>
<feColorMatrix type="matrix" values="0 0 0 0 0 0 0 0 0 0.34 0 0 0 0 1 0 0 0 1 0"/>
<feBlend mode="normal" in2="BackgroundImageFix" result="effect1_dropShadow_703_13872"/>
<feBlend mode="normal" in="SourceGraphic" in2="effect1_dropShadow_703_13872" result="shape"/>
</filter>
<linearGradient id="paint0_linear_703_13872" x1="29.9842" y1="51" x2="29.9842" y2="3" gradientUnits="userSpaceOnUse">
<stop stop-color="#2E6CFF"/>
<stop offset="1" stop-color="#59B4FF"/>
</linearGradient>
<linearGradient id="paint1_linear_703_13872" x1="30" y1="3" x2="30" y2="51" gradientUnits="userSpaceOnUse">
<stop stop-color="white"/>
<stop offset="1" stop-color="white" stop-opacity="0"/>
</linearGradient>
</defs>
</svg>
