<svg width="52" height="52" viewBox="0 0 52 52" fill="none" xmlns="http://www.w3.org/2000/svg">
<g filter="url(#filter0_d_604_13780)">
<rect x="6" y="2" width="40" height="40" rx="20" fill="url(#paint0_linear_604_13780)" shape-rendering="crispEdges"/>
<path d="M17.4297 27.0011V30.5725H21.0006L31.5325 20.0392L27.9616 16.4678L17.4297 27.0011ZM20.2103 28.6678H19.3342V27.7916L27.9616 19.163L28.8376 20.0392L20.2103 28.6678ZM34.294 15.9344L32.0658 13.7059C31.8753 13.5154 31.6372 13.4297 31.3897 13.4297C31.1421 13.4297 30.904 13.5249 30.7231 13.7059L28.9805 15.4487L32.5514 19.0202L34.294 17.2773C34.6654 16.9059 34.6654 16.3059 34.294 15.9344Z" fill="white"/>
<rect x="6.71429" y="2.71429" width="38.5714" height="38.5714" rx="19.2857" stroke="url(#paint1_linear_604_13780)" stroke-width="1.42857" shape-rendering="crispEdges"/>
</g>
<defs>
<filter id="filter0_d_604_13780" x="0.285714" y="0.571428" width="51.4286" height="51.4286" filterUnits="userSpaceOnUse" color-interpolation-filters="sRGB">
<feFlood flood-opacity="0" result="BackgroundImageFix"/>
<feColorMatrix in="SourceAlpha" type="matrix" values="0 0 0 0 0 0 0 0 0 0 0 0 0 0 0 0 0 0 127 0" result="hardAlpha"/>
<feOffset dy="4.28571"/>
<feGaussianBlur stdDeviation="2.85714"/>
<feComposite in2="hardAlpha" operator="out"/>
<feColorMatrix type="matrix" values="0 0 0 0 0 0 0 0 0 0.341176 0 0 0 0 1 0 0 0 0.25 0"/>
<feBlend mode="normal" in2="BackgroundImageFix" result="effect1_dropShadow_604_13780"/>
<feBlend mode="normal" in="SourceGraphic" in2="effect1_dropShadow_604_13780" result="shape"/>
</filter>
<linearGradient id="paint0_linear_604_13780" x1="25.9869" y1="42" x2="25.9869" y2="2" gradientUnits="userSpaceOnUse">
<stop stop-color="#2E6CFF"/>
<stop offset="1" stop-color="#59B4FF"/>
</linearGradient>
<linearGradient id="paint1_linear_604_13780" x1="26" y1="2" x2="26" y2="42" gradientUnits="userSpaceOnUse">
<stop stop-color="white"/>
<stop offset="1" stop-color="white" stop-opacity="0"/>
</linearGradient>
</defs>
</svg>
