<svg width="59" height="59" viewBox="0 0 59 59" fill="none" xmlns="http://www.w3.org/2000/svg">
<g clip-path="url(#clip0_28_207)">
<path d="M29.5 59C45.7924 59 59 45.7924 59 29.5C59 13.2076 45.7924 0 29.5 0C13.2076 0 0 13.2076 0 29.5C0 45.7924 13.2076 59 29.5 59Z" fill="#4FF461"/>
<path d="M29.5 54C43.031 54 54 43.031 54 29.5C54 15.969 43.031 5 29.5 5C15.969 5 5 15.969 5 29.5C5 43.031 15.969 54 29.5 54Z" fill="#151720"/>
<path d="M23.0018 21.7132V37.4371C23.0143 37.7219 23.0996 37.9983 23.2494 38.2392C23.3992 38.48 23.6082 38.6768 23.8557 38.8101C24.1032 38.9434 24.3807 39.0085 24.6606 38.9991C24.9404 38.9897 25.213 38.9059 25.4513 38.7563L38.2175 30.8415C38.4563 30.6948 38.6538 30.4877 38.7908 30.2404C38.9279 29.9931 39 29.714 39 29.4301C39 29.1461 38.9279 28.867 38.7908 28.6197C38.6538 28.3725 38.4563 28.1654 38.2175 28.0186L25.4384 20.2358C25.1891 20.0825 24.9035 20.001 24.6122 20C24.3209 19.9991 24.0348 20.0787 23.7846 20.2305C23.5343 20.3822 23.3293 20.6003 23.1914 20.8615C23.0535 21.1227 22.988 21.4171 23.0018 21.7132Z" fill="white"/>
</g>
<defs>
<clipPath id="clip0_28_207">
<rect width="59" height="59" fill="white"/>
</clipPath>
</defs>
</svg>
