<svg width="41" height="41" viewBox="0 0 41 41" fill="none" xmlns="http://www.w3.org/2000/svg">
<circle cx="20.2381" cy="20.2381" r="19.0238" fill="#FF003E" stroke="url(#paint0_linear_28_159)" stroke-width="2.42857"/>
<path d="M20.2357 29.6831C25.4302 29.6831 29.6802 25.4331 29.6802 20.2386C29.6802 15.0442 25.4302 10.7942 20.2357 10.7942C15.0413 10.7942 10.7913 15.0442 10.7913 20.2386C10.7913 25.4331 15.0413 29.6831 20.2357 29.6831Z" fill="white" stroke="#E90038" stroke-width="1.21429" stroke-linecap="round" stroke-linejoin="round"/>
<path d="M20.2361 21.2532V21.0549C20.2361 20.4127 20.6328 20.0726 21.0294 19.7988C21.4167 19.5343 21.8038 19.1943 21.8038 18.571C21.8038 17.7021 21.105 17.0032 20.2361 17.0032C19.3672 17.0032 18.6683 17.7021 18.6683 18.571" stroke="#E90038" stroke-width="1.21429" stroke-linecap="round" stroke-linejoin="round"/>
<path d="M20.232 23.5103H20.2405" stroke="#E90038" stroke-width="1.21429" stroke-linecap="round" stroke-linejoin="round"/>
<defs>
<linearGradient id="paint0_linear_28_159" x1="20.2381" y1="0" x2="20.2381" y2="40.4762" gradientUnits="userSpaceOnUse">
<stop stop-color="white"/>
<stop offset="1" stop-color="white" stop-opacity="0"/>
</linearGradient>
</defs>
</svg>
