<svg width="49" height="49" viewBox="0 0 49 49" fill="none" xmlns="http://www.w3.org/2000/svg">
<g filter="url(#filter0_d_705_13904)">
<circle cx="24.2381" cy="21.2381" r="20.2381" fill="url(#paint0_linear_705_13904)"/>
<circle cx="24.2381" cy="21.2381" r="19.2381" stroke="url(#paint1_linear_705_13904)" stroke-width="2"/>
</g>
<path d="M24.2374 30.6858C29.4319 30.6858 33.6819 26.4358 33.6819 21.2413C33.6819 16.0469 29.4319 11.7969 24.2374 11.7969C19.043 11.7969 14.793 16.0469 14.793 21.2413C14.793 26.4358 19.043 30.6858 24.2374 30.6858Z" fill="white" stroke="white" stroke-width="1.21429" stroke-linecap="round" stroke-linejoin="round"/>
<path d="M24.2377 22.2559V22.0576C24.2377 21.4153 24.6344 21.0753 25.031 20.8014C25.4183 20.537 25.8054 20.197 25.8054 19.5737C25.8054 18.7048 25.1066 18.0059 24.2377 18.0059C23.3688 18.0059 22.6699 18.7048 22.6699 19.5737" stroke="#2F6DFF" stroke-width="1.21429" stroke-linecap="round" stroke-linejoin="round"/>
<path d="M24.2336 24.5132H24.2421" stroke="#2F6DFF" stroke-width="1.21429" stroke-linecap="round" stroke-linejoin="round"/>
<defs>
<filter id="filter0_d_705_13904" x="0" y="0" width="48.4766" height="48.4766" filterUnits="userSpaceOnUse" color-interpolation-filters="sRGB">
<feFlood flood-opacity="0" result="BackgroundImageFix"/>
<feColorMatrix in="SourceAlpha" type="matrix" values="0 0 0 0 0 0 0 0 0 0 0 0 0 0 0 0 0 0 127 0" result="hardAlpha"/>
<feOffset dy="3"/>
<feGaussianBlur stdDeviation="2"/>
<feComposite in2="hardAlpha" operator="out"/>
<feColorMatrix type="matrix" values="0 0 0 0 0 0 0 0 0 0.34 0 0 0 0 1 0 0 0 1 0"/>
<feBlend mode="normal" in2="BackgroundImageFix" result="effect1_dropShadow_705_13904"/>
<feBlend mode="normal" in="SourceGraphic" in2="effect1_dropShadow_705_13904" result="shape"/>
</filter>
<linearGradient id="paint0_linear_705_13904" x1="24.2248" y1="41.4762" x2="24.2248" y2="1" gradientUnits="userSpaceOnUse">
<stop stop-color="#2E6CFF"/>
<stop offset="1" stop-color="#59B4FF"/>
</linearGradient>
<linearGradient id="paint1_linear_705_13904" x1="24.2381" y1="1" x2="24.2381" y2="41.4762" gradientUnits="userSpaceOnUse">
<stop stop-color="white"/>
<stop offset="1" stop-color="white" stop-opacity="0"/>
</linearGradient>
</defs>
</svg>
