<svg width="796" height="78" viewBox="0 0 796 78" fill="none" xmlns="http://www.w3.org/2000/svg">
<rect x="0.5" y="0.5" width="795" height="53" rx="13.5" fill="#1570EF" fill-opacity="0.1" stroke="#1570EF" stroke-dasharray="2 2"/>
<g filter="url(#filter0_d_209_6304)">
<path d="M319 18H309C306.239 18 304 20.2386 304 23V33C304 35.7614 306.239 38 309 38H319C321.761 38 324 35.7614 324 33V23C324 20.2386 321.761 18 319 18Z" fill="#1570EF"/>
<rect x="313" y="22" width="2" height="12" rx="1" fill="white"/>
<rect x="308" y="29" width="2" height="12" rx="1" transform="rotate(-90 308 29)" fill="white"/>
</g>
<path d="M338.754 33H337.62C337.416 33 337.314 32.898 337.314 32.694V21.732C337.314 21.528 337.416 21.426 337.62 21.426H341.832C342.708 21.426 343.392 21.678 343.884 22.182C344.388 22.674 344.64 23.358 344.64 24.234V25.746C344.64 27.126 344.07 27.996 342.93 28.356V28.428L344.928 32.64C345.06 32.88 344.982 33 344.694 33H343.578C343.29 33 343.104 32.898 343.02 32.694L341.094 28.554H339.276C339.132 28.554 339.06 28.614 339.06 28.734V32.694C339.06 32.898 338.958 33 338.754 33ZM339.258 27.114H341.544C342.432 27.114 342.876 26.676 342.876 25.8V24.288C342.876 23.4 342.432 22.956 341.544 22.956H339.258C339.126 22.956 339.06 23.016 339.06 23.136V26.934C339.06 27.054 339.126 27.114 339.258 27.114ZM353.388 33H349.5C348.612 33 347.922 32.754 347.43 32.262C346.95 31.77 346.71 31.086 346.71 30.21V26.61C346.71 25.722 346.95 25.038 347.43 24.558C347.922 24.066 348.612 23.82 349.5 23.82H350.976C351.864 23.82 352.554 24.066 353.046 24.558C353.538 25.038 353.784 25.722 353.784 26.61V28.896C353.784 29.112 353.676 29.22 353.46 29.22H348.636C348.504 29.22 348.438 29.28 348.438 29.4V30.174C348.438 31.05 348.876 31.488 349.752 31.488H353.388C353.604 31.488 353.712 31.596 353.712 31.812V32.712C353.712 32.904 353.604 33 353.388 33ZM348.636 27.996H351.858C351.978 27.996 352.038 27.936 352.038 27.816V26.664C352.038 26.208 351.936 25.878 351.732 25.674C351.528 25.458 351.198 25.35 350.742 25.35H349.752C349.296 25.35 348.966 25.458 348.762 25.674C348.558 25.878 348.456 26.208 348.456 26.664V27.816C348.456 27.936 348.516 27.996 348.636 27.996ZM358.539 23.82H360.051C360.267 23.82 360.375 23.916 360.375 24.108V25.044C360.375 25.248 360.267 25.35 360.051 25.35H358.539C358.419 25.35 358.359 25.41 358.359 25.53V32.694C358.359 32.898 358.251 33 358.035 33H356.901C356.697 33 356.595 32.898 356.595 32.694V25.53C356.595 25.41 356.529 25.35 356.397 25.35H355.443C355.239 25.35 355.137 25.248 355.137 25.044V24.108C355.137 24 355.155 23.928 355.191 23.892C355.239 23.844 355.323 23.82 355.443 23.82H356.397C356.529 23.82 356.595 23.76 356.595 23.64V23.118C356.595 22.23 356.823 21.546 357.279 21.066C357.735 20.586 358.401 20.346 359.277 20.346H360.069C360.273 20.346 360.375 20.442 360.375 20.634V21.57C360.375 21.774 360.273 21.876 360.069 21.876H359.529C359.097 21.876 358.791 21.984 358.611 22.2C358.443 22.404 358.359 22.74 358.359 23.208V23.64C358.359 23.76 358.419 23.82 358.539 23.82ZM368.294 33H364.406C363.518 33 362.828 32.754 362.336 32.262C361.856 31.77 361.616 31.086 361.616 30.21V26.61C361.616 25.722 361.856 25.038 362.336 24.558C362.828 24.066 363.518 23.82 364.406 23.82H365.882C366.77 23.82 367.46 24.066 367.952 24.558C368.444 25.038 368.69 25.722 368.69 26.61V28.896C368.69 29.112 368.582 29.22 368.366 29.22H363.542C363.41 29.22 363.344 29.28 363.344 29.4V30.174C363.344 31.05 363.782 31.488 364.658 31.488H368.294C368.51 31.488 368.618 31.596 368.618 31.812V32.712C368.618 32.904 368.51 33 368.294 33ZM363.542 27.996H366.764C366.884 27.996 366.944 27.936 366.944 27.816V26.664C366.944 26.208 366.842 25.878 366.638 25.674C366.434 25.458 366.104 25.35 365.648 25.35H364.658C364.202 25.35 363.872 25.458 363.668 25.674C363.464 25.878 363.362 26.208 363.362 26.664V27.816C363.362 27.936 363.422 27.996 363.542 27.996ZM372.113 33H370.979C370.775 33 370.673 32.898 370.673 32.694V24.126C370.673 23.922 370.775 23.82 370.979 23.82H372.113C372.317 23.82 372.419 23.922 372.419 24.126V24.81H372.491C372.611 24.51 372.839 24.27 373.175 24.09C373.523 23.91 373.907 23.82 374.327 23.82H374.993C375.197 23.82 375.299 23.922 375.299 24.126V25.062C375.299 25.29 375.197 25.386 374.993 25.35H373.913C372.917 25.35 372.419 25.896 372.419 26.988V32.694C372.419 32.898 372.317 33 372.113 33ZM382.431 33H381.297C381.093 33 380.991 32.898 380.991 32.694V24.126C380.991 23.922 381.093 23.82 381.297 23.82H382.431C382.635 23.82 382.737 23.922 382.737 24.126V24.774H382.809C383.157 24.138 383.793 23.82 384.717 23.82H385.311C386.355 23.82 387.099 24.216 387.543 25.008C387.735 24.624 388.029 24.33 388.425 24.126C388.821 23.922 389.247 23.82 389.703 23.82H390.279C391.155 23.82 391.821 24.066 392.277 24.558C392.745 25.038 392.979 25.722 392.979 26.61V32.694C392.979 32.898 392.877 33 392.673 33H391.521C391.317 33 391.215 32.898 391.215 32.694V26.682C391.215 25.794 390.783 25.35 389.919 25.35H389.397C388.401 25.35 387.903 25.872 387.903 26.916V32.694C387.903 32.898 387.795 33 387.579 33H386.445C386.241 33 386.139 32.898 386.139 32.694V26.682C386.139 25.794 385.707 25.35 384.843 25.35H384.213C383.229 25.35 382.737 25.86 382.737 26.88V32.694C382.737 32.898 382.635 33 382.431 33ZM399.353 33H397.769C396.881 33 396.191 32.754 395.699 32.262C395.219 31.77 394.979 31.086 394.979 30.21V26.61C394.979 25.722 395.219 25.038 395.699 24.558C396.191 24.066 396.881 23.82 397.769 23.82H399.353C400.229 23.82 400.913 24.066 401.405 24.558C401.909 25.038 402.161 25.722 402.161 26.61V30.21C402.161 31.086 401.909 31.77 401.405 32.262C400.913 32.754 400.229 33 399.353 33ZM398.021 31.47H399.119C399.983 31.47 400.415 31.032 400.415 30.156V26.664C400.415 25.788 399.983 25.35 399.119 25.35H398.021C397.565 25.35 397.235 25.458 397.031 25.674C396.827 25.878 396.725 26.208 396.725 26.664V30.156C396.725 30.612 396.827 30.948 397.031 31.164C397.235 31.368 397.565 31.47 398.021 31.47ZM405.67 33H404.536C404.332 33 404.23 32.898 404.23 32.694V24.126C404.23 23.922 404.332 23.82 404.536 23.82H405.67C405.874 23.82 405.976 23.922 405.976 24.126V24.81H406.048C406.168 24.51 406.396 24.27 406.732 24.09C407.08 23.91 407.464 23.82 407.884 23.82H408.55C408.754 23.82 408.856 23.922 408.856 24.126V25.062C408.856 25.29 408.754 25.386 408.55 25.35H407.47C406.474 25.35 405.976 25.896 405.976 26.988V32.694C405.976 32.898 405.874 33 405.67 33ZM416.757 33H412.869C411.981 33 411.291 32.754 410.799 32.262C410.319 31.77 410.079 31.086 410.079 30.21V26.61C410.079 25.722 410.319 25.038 410.799 24.558C411.291 24.066 411.981 23.82 412.869 23.82H414.345C415.233 23.82 415.923 24.066 416.415 24.558C416.907 25.038 417.153 25.722 417.153 26.61V28.896C417.153 29.112 417.045 29.22 416.829 29.22H412.005C411.873 29.22 411.807 29.28 411.807 29.4V30.174C411.807 31.05 412.245 31.488 413.121 31.488H416.757C416.973 31.488 417.081 31.596 417.081 31.812V32.712C417.081 32.904 416.973 33 416.757 33ZM412.005 27.996H415.227C415.347 27.996 415.407 27.936 415.407 27.816V26.664C415.407 26.208 415.305 25.878 415.101 25.674C414.897 25.458 414.567 25.35 414.111 25.35H413.121C412.665 25.35 412.335 25.458 412.131 25.674C411.927 25.878 411.825 26.208 411.825 26.664V27.816C411.825 27.936 411.885 27.996 412.005 27.996ZM424.865 33H423.731C423.527 33 423.425 32.898 423.425 32.694V24.126C423.425 23.922 423.527 23.82 423.731 23.82H424.865C425.069 23.82 425.171 23.922 425.171 24.126V24.774H425.243C425.591 24.138 426.227 23.82 427.151 23.82H427.745C428.789 23.82 429.533 24.216 429.977 25.008C430.169 24.624 430.463 24.33 430.859 24.126C431.255 23.922 431.681 23.82 432.137 23.82H432.713C433.589 23.82 434.255 24.066 434.711 24.558C435.179 25.038 435.413 25.722 435.413 26.61V32.694C435.413 32.898 435.311 33 435.107 33H433.955C433.751 33 433.649 32.898 433.649 32.694V26.682C433.649 25.794 433.217 25.35 432.353 25.35H431.831C430.835 25.35 430.337 25.872 430.337 26.916V32.694C430.337 32.898 430.229 33 430.013 33H428.879C428.675 33 428.573 32.898 428.573 32.694V26.682C428.573 25.794 428.141 25.35 427.277 25.35H426.647C425.663 25.35 425.171 25.86 425.171 26.88V32.694C425.171 32.898 425.069 33 424.865 33ZM444.091 33H440.203C439.315 33 438.625 32.754 438.133 32.262C437.653 31.77 437.413 31.086 437.413 30.21V26.61C437.413 25.722 437.653 25.038 438.133 24.558C438.625 24.066 439.315 23.82 440.203 23.82H441.679C442.567 23.82 443.257 24.066 443.749 24.558C444.241 25.038 444.487 25.722 444.487 26.61V28.896C444.487 29.112 444.379 29.22 444.163 29.22H439.339C439.207 29.22 439.141 29.28 439.141 29.4V30.174C439.141 31.05 439.579 31.488 440.455 31.488H444.091C444.307 31.488 444.415 31.596 444.415 31.812V32.712C444.415 32.904 444.307 33 444.091 33ZM439.339 27.996H442.561C442.681 27.996 442.741 27.936 442.741 27.816V26.664C442.741 26.208 442.639 25.878 442.435 25.674C442.231 25.458 441.901 25.35 441.445 25.35H440.455C439.999 25.35 439.669 25.458 439.465 25.674C439.261 25.878 439.159 26.208 439.159 26.664V27.816C439.159 27.936 439.219 27.996 439.339 27.996ZM447.91 33H446.776C446.572 33 446.47 32.898 446.47 32.694V24.126C446.47 23.922 446.572 23.82 446.776 23.82H447.91C448.114 23.82 448.216 23.922 448.216 24.126V24.774H448.288C448.636 24.138 449.272 23.82 450.196 23.82H450.79C451.834 23.82 452.578 24.216 453.022 25.008C453.214 24.624 453.508 24.33 453.904 24.126C454.3 23.922 454.726 23.82 455.182 23.82H455.758C456.634 23.82 457.3 24.066 457.756 24.558C458.224 25.038 458.458 25.722 458.458 26.61V32.694C458.458 32.898 458.356 33 458.152 33H457C456.796 33 456.694 32.898 456.694 32.694V26.682C456.694 25.794 456.262 25.35 455.398 25.35H454.876C453.88 25.35 453.382 25.872 453.382 26.916V32.694C453.382 32.898 453.274 33 453.058 33H451.924C451.72 33 451.618 32.898 451.618 32.694V26.682C451.618 25.794 451.186 25.35 450.322 25.35H449.692C448.708 25.35 448.216 25.86 448.216 26.88V32.694C448.216 32.898 448.114 33 447.91 33ZM462.582 31.47H464.814C465.678 31.47 466.11 31.026 466.11 30.138V26.61C466.11 25.722 465.678 25.278 464.814 25.278H463.86C462.876 25.278 462.384 25.782 462.384 26.79V31.272C462.384 31.404 462.45 31.47 462.582 31.47ZM460.638 32.694V20.652C460.638 20.448 460.74 20.346 460.944 20.346H462.078C462.282 20.346 462.384 20.448 462.384 20.652V24.72H462.456C462.756 24.072 463.362 23.748 464.274 23.748H465.066C465.954 23.748 466.644 23.994 467.136 24.486C467.628 24.966 467.874 25.644 467.874 26.52V30.21C467.874 31.086 467.628 31.77 467.136 32.262C466.644 32.754 465.954 33 465.066 33H460.944C460.74 33 460.638 32.898 460.638 32.694ZM476.452 33H472.564C471.676 33 470.986 32.754 470.494 32.262C470.014 31.77 469.774 31.086 469.774 30.21V26.61C469.774 25.722 470.014 25.038 470.494 24.558C470.986 24.066 471.676 23.82 472.564 23.82H474.04C474.928 23.82 475.618 24.066 476.11 24.558C476.602 25.038 476.848 25.722 476.848 26.61V28.896C476.848 29.112 476.74 29.22 476.524 29.22H471.7C471.568 29.22 471.502 29.28 471.502 29.4V30.174C471.502 31.05 471.94 31.488 472.816 31.488H476.452C476.668 31.488 476.776 31.596 476.776 31.812V32.712C476.776 32.904 476.668 33 476.452 33ZM471.7 27.996H474.922C475.042 27.996 475.102 27.936 475.102 27.816V26.664C475.102 26.208 475 25.878 474.796 25.674C474.592 25.458 474.262 25.35 473.806 25.35H472.816C472.36 25.35 472.03 25.458 471.826 25.674C471.622 25.878 471.52 26.208 471.52 26.664V27.816C471.52 27.936 471.58 27.996 471.7 27.996ZM480.271 33H479.137C478.933 33 478.831 32.898 478.831 32.694V24.126C478.831 23.922 478.933 23.82 479.137 23.82H480.271C480.475 23.82 480.577 23.922 480.577 24.126V24.81H480.649C480.769 24.51 480.997 24.27 481.333 24.09C481.681 23.91 482.065 23.82 482.485 23.82H483.151C483.355 23.82 483.457 23.922 483.457 24.126V25.062C483.457 25.29 483.355 25.386 483.151 25.35H482.071C481.075 25.35 480.577 25.896 480.577 26.988V32.694C480.577 32.898 480.475 33 480.271 33ZM488.137 33H484.825C484.621 33 484.519 32.898 484.519 32.694V31.812C484.519 31.62 484.621 31.524 484.825 31.524H487.849C488.629 31.524 489.019 31.254 489.019 30.714V30.498C489.019 30.018 488.737 29.652 488.173 29.4L486.211 28.464C485.599 28.176 485.155 27.858 484.879 27.51C484.603 27.162 484.465 26.706 484.465 26.142C484.465 24.594 485.323 23.82 487.039 23.82H490.027C490.219 23.82 490.315 23.922 490.315 24.126V25.008C490.315 25.212 490.219 25.314 490.027 25.314H487.399C487.039 25.314 486.763 25.38 486.571 25.512C486.379 25.632 486.283 25.794 486.283 25.998V26.196C486.283 26.58 486.589 26.916 487.201 27.204L489.181 28.212C489.805 28.488 490.231 28.818 490.459 29.202C490.699 29.574 490.819 30.06 490.819 30.66C490.819 32.22 489.925 33 488.137 33Z" fill="#1570EF"/>
<defs>
<filter id="filter0_d_209_6304" x="280" y="10" width="68" height="68" filterUnits="userSpaceOnUse" color-interpolation-filters="sRGB">
<feFlood flood-opacity="0" result="BackgroundImageFix"/>
<feColorMatrix in="SourceAlpha" type="matrix" values="0 0 0 0 0 0 0 0 0 0 0 0 0 0 0 0 0 0 127 0" result="hardAlpha"/>
<feOffset dy="16"/>
<feGaussianBlur stdDeviation="12"/>
<feColorMatrix type="matrix" values="0 0 0 0 0.541176 0 0 0 0 0.584314 0 0 0 0 0.619608 0 0 0 0.078 0"/>
<feBlend mode="normal" in2="BackgroundImageFix" result="effect1_dropShadow_209_6304"/>
<feBlend mode="normal" in="SourceGraphic" in2="effect1_dropShadow_209_6304" result="shape"/>
</filter>
</defs>
</svg>
