<svg width="20" height="20" viewBox="0 0 20 20" fill="none" xmlns="http://www.w3.org/2000/svg">
<g clip-path="url(#clip0_901_21520)">
<g filter="url(#filter0_d_901_21520)">
<path d="M19.1727 19.9992C19.0637 19.9992 18.9558 19.9777 18.8551 19.9359C18.7545 19.8941 18.663 19.8328 18.5861 19.7556L13.1826 14.3522C13.1035 14.2757 13.0404 14.1843 12.997 14.0832C12.9535 13.9822 12.9307 13.8734 12.9297 13.7634C12.9288 13.6534 12.9497 13.5443 12.9914 13.4425C13.033 13.3407 13.0946 13.2482 13.1723 13.1704C13.2501 13.0926 13.3426 13.0311 13.4445 12.9894C13.5463 12.9478 13.6554 12.9268 13.7654 12.9278C13.8754 12.9287 13.9841 12.9516 14.0852 12.995C14.1863 13.0384 14.2777 13.1015 14.3541 13.1807L19.7576 18.5841C19.8737 18.6999 19.9528 18.8475 19.9849 19.0083C20.0171 19.169 20.0008 19.3357 19.9382 19.4872C19.8755 19.6387 19.7694 19.7682 19.6331 19.8594C19.4969 19.9505 19.3366 19.9992 19.1727 19.9992V19.9992Z" fill="white"/>
<path d="M8.28501 1.657C9.5959 1.657 10.8774 2.04573 11.9673 2.77402C13.0573 3.50231 13.9068 4.53747 14.4085 5.74858C14.9101 6.95969 15.0414 8.29235 14.7857 9.57806C14.5299 10.8638 13.8987 12.0448 12.9717 12.9717C12.0448 13.8986 10.8638 14.5299 9.57807 14.7856C8.29236 15.0414 6.95969 14.9101 5.74858 14.4085C4.53747 13.9068 3.50232 13.0573 2.77403 11.9673C2.04573 10.8774 1.65701 9.5959 1.65701 8.285C1.65701 6.52715 2.35531 4.84129 3.5983 3.59829C4.8413 2.3553 6.52715 1.657 8.28501 1.657V1.657ZM8.28501 0C6.64639 0 5.04457 0.485906 3.68211 1.39627C2.31964 2.30664 1.25773 3.60059 0.630663 5.11447C0.00359022 6.62836 -0.160481 8.2942 0.159198 9.90133C0.478876 11.5085 1.26795 12.9847 2.42663 14.1434C3.5853 15.3021 5.06155 16.0911 6.66869 16.4108C8.27582 16.7305 9.94166 16.5664 11.4555 15.9393C12.9694 15.3123 14.2634 14.2504 15.1737 12.8879C16.0841 11.5254 16.57 9.92362 16.57 8.285C16.57 6.08768 15.6971 3.98036 14.1434 2.42662C12.5897 0.872881 10.4823 0 8.28501 0Z" fill="white"/>
</g>
</g>
<defs>
<filter id="filter0_d_901_21520" x="-1.66667" y="-1.66667" width="23.3333" height="23.3324" filterUnits="userSpaceOnUse" color-interpolation-filters="sRGB">
<feFlood flood-opacity="0" result="BackgroundImageFix"/>
<feColorMatrix in="SourceAlpha" type="matrix" values="0 0 0 0 0 0 0 0 0 0 0 0 0 0 0 0 0 0 127 0" result="hardAlpha"/>
<feOffset/>
<feGaussianBlur stdDeviation="0.833333"/>
<feComposite in2="hardAlpha" operator="out"/>
<feColorMatrix type="matrix" values="0 0 0 0 0 0 0 0 0 0 0 0 0 0 0 0 0 0 0.25 0"/>
<feBlend mode="normal" in2="BackgroundImageFix" result="effect1_dropShadow_901_21520"/>
<feBlend mode="normal" in="SourceGraphic" in2="effect1_dropShadow_901_21520" result="shape"/>
</filter>
<clipPath id="clip0_901_21520">
<rect width="20" height="20" fill="white"/>
</clipPath>
</defs>
</svg>
