<svg width="41" height="41" viewBox="0 0 41 41" fill="none" xmlns="http://www.w3.org/2000/svg">
<circle cx="20.2381" cy="20.2381" r="19.0238" fill="#BB2301" stroke="url(#paint0_linear_28_162)" stroke-width="2.42857"/>
<path d="M10.7852 21.0698V19.4076C10.7852 18.4254 11.5879 17.6132 12.5796 17.6132C14.289 17.6132 14.9879 16.4043 14.1285 14.9215C13.6374 14.0715 13.9302 12.9665 14.7896 12.4754L16.4235 11.5404C17.1696 11.0965 18.1329 11.361 18.5768 12.1071L18.6807 12.2865C19.5307 13.7693 20.9285 13.7693 21.7879 12.2865L21.8918 12.1071C22.3357 11.361 23.299 11.0965 24.0452 11.5404L25.679 12.4754C26.5385 12.9665 26.8313 14.0715 26.3402 14.9215C25.4807 16.4043 26.1796 17.6132 27.889 17.6132C28.8713 17.6132 29.6835 18.416 29.6835 19.4076V21.0698C29.6835 22.0521 28.8807 22.8643 27.889 22.8643C26.1796 22.8643 25.4807 24.0732 26.3402 25.556C26.8313 26.4154 26.5385 27.511 25.679 28.0021L24.0452 28.9371C23.299 29.381 22.3357 29.1165 21.8918 28.3704L21.7879 28.191C20.9379 26.7082 19.5402 26.7082 18.6807 28.191L18.5768 28.3704C18.1329 29.1165 17.1696 29.381 16.4235 28.9371L14.7896 28.0021C13.9302 27.511 13.6374 26.406 14.1285 25.556C14.9879 24.0732 14.289 22.8643 12.5796 22.8643C11.5879 22.8643 10.7852 22.0521 10.7852 21.0698Z" fill="white" stroke="white" stroke-opacity="0.87" stroke-width="1.21429" stroke-miterlimit="10" stroke-linecap="round" stroke-linejoin="round"/>
<path d="M20.2318 23.0719C21.7966 23.0719 23.0651 21.8034 23.0651 20.2386C23.0651 18.6738 21.7966 17.4053 20.2318 17.4053C18.667 17.4053 17.3984 18.6738 17.3984 20.2386C17.3984 21.8034 18.667 23.0719 20.2318 23.0719Z" fill="#8014EE" stroke="white" stroke-opacity="0.87" stroke-width="1.21429" stroke-miterlimit="10" stroke-linecap="round" stroke-linejoin="round"/>
<defs>
<linearGradient id="paint0_linear_28_162" x1="20.2381" y1="0" x2="20.2381" y2="40.4762" gradientUnits="userSpaceOnUse">
<stop stop-color="white"/>
<stop offset="1" stop-color="white" stop-opacity="0"/>
</linearGradient>
</defs>
</svg>
