<svg width="645" height="412" viewBox="0 0 645 412" fill="none" xmlns="http://www.w3.org/2000/svg">
<g filter="url(#filter0_d_222_6591)">
<rect x="9" y="9.42578" width="627" height="393.574" rx="13" fill="#D900FE"/>
</g>
<path fill-rule="evenodd" clip-rule="evenodd" d="M9 380.361V383.574C9 390.754 14.8203 396.574 22 396.574H623C630.18 396.574 636 390.754 636 383.574V380.361C636 387.541 630.18 393.361 623 393.361H22C14.8203 393.361 9 387.541 9 380.361Z" fill="url(#paint0_radial_222_6591)" style="mix-blend-mode:screen"/>
<rect x="9" y="3" width="627" height="391.968" rx="14" fill="url(#paint1_linear_222_6591)"/>
<g filter="url(#filter1_f_222_6591)">
<ellipse cx="144.081" cy="186.112" rx="38.866" ry="3.192" fill="#D900FE"/>
</g>
<path d="M410.527 52.8613L409.845 53.5924L409.845 53.5924L410.527 52.8613ZM413.647 52.8413L412.963 52.1118L412.951 52.1228L412.94 52.1342L413.647 52.8413ZM413.487 50.6013L412.916 51.4222L412.936 51.4363L412.957 51.4493L413.487 50.6013ZM412.327 50.2213L412.412 49.225L412.412 49.225L412.327 50.2213ZM410.807 50.0013L410.588 50.9769L410.601 50.9801L410.616 50.9828L410.807 50.0013ZM409.307 49.5613L408.936 50.4898L408.947 50.4944L408.959 50.4987L409.307 49.5613ZM408.127 48.5013L407.26 48.9998L407.268 49.0127L407.275 49.0254L408.127 48.5013ZM408.547 43.3413L409.246 44.0565L409.246 44.0565L408.547 43.3413ZM415.447 43.3413L414.748 44.0565L414.748 44.0565L415.447 43.3413ZM413.487 44.9613L414.169 44.2303L414.169 44.2303L413.487 44.9613ZM410.487 45.0013L409.757 44.3174L409.756 44.319L410.487 45.0013ZM411.847 47.6613L411.762 48.6577L411.765 48.6579L411.847 47.6613ZM414.867 48.3413L415.261 47.4222L415.253 47.4189L415.246 47.4158L414.867 48.3413ZM416.027 49.4213L415.166 49.9293L415.173 49.9424L415.182 49.9553L416.027 49.4213ZM408.567 54.4813L407.868 55.1965L407.868 55.1965L408.567 54.4813ZM408.687 52.0613V51.6613H406.687V52.0613H408.687ZM408.687 51.6613C408.687 51.6755 408.683 51.8697 408.499 52.0534C408.315 52.2371 408.121 52.2413 408.107 52.2413V50.2413C407.813 50.2413 407.409 50.3155 407.085 50.6392C406.761 50.9629 406.687 51.3672 406.687 51.6613H408.687ZM408.107 52.2413H409.807V50.2413H408.107V52.2413ZM409.807 52.2413C409.793 52.2413 409.599 52.2371 409.415 52.0534C409.231 51.8697 409.227 51.6755 409.227 51.6613H411.227C411.227 51.3672 411.153 50.9629 410.829 50.6392C410.505 50.3155 410.101 50.2413 409.807 50.2413V52.2413ZM409.227 51.6613V51.8213H411.227V51.6613H409.227ZM409.227 51.8213C409.227 52.3902 409.326 53.1079 409.845 53.5924L411.209 52.1303C411.277 52.1936 411.278 52.2377 411.263 52.1841C411.247 52.1291 411.227 52.0156 411.227 51.8213H409.227ZM409.845 53.5924C410.341 54.0552 411.05 54.1413 411.627 54.1413V52.1413C411.413 52.1413 411.276 52.1219 411.199 52.1022C411.119 52.0819 411.148 52.0733 411.209 52.1303L409.845 53.5924ZM411.627 54.1413H412.567V52.1413H411.627V54.1413ZM412.567 54.1413C413.151 54.1413 413.861 54.0417 414.354 53.5484L412.94 52.1342C412.995 52.0793 413.025 52.0846 412.959 52.1028C412.893 52.1212 412.769 52.1413 412.567 52.1413V54.1413ZM414.331 53.5708C414.863 53.072 414.967 52.3267 414.967 51.7213H412.967C412.967 51.9364 412.945 52.0674 412.926 52.1366C412.906 52.2047 412.901 52.1697 412.963 52.1118L414.331 53.5708ZM414.967 51.7213V51.4813H412.967V51.7213H414.967ZM414.967 51.4813C414.967 50.7602 414.638 50.1415 414.017 49.7533L412.957 51.4493C412.975 51.4608 412.981 51.4673 412.98 51.4662C412.979 51.4646 412.974 51.459 412.969 51.4502C412.964 51.4414 412.963 51.4361 412.964 51.4378C412.964 51.4403 412.967 51.4536 412.967 51.4813H414.967ZM414.058 49.7804C413.576 49.4447 413.01 49.2762 412.412 49.225L412.242 51.2177C412.578 51.2464 412.785 51.3312 412.916 51.4222L414.058 49.7804ZM412.412 49.225C411.987 49.1885 411.516 49.1209 410.999 49.0198L410.616 50.9828C411.191 51.0951 411.733 51.1741 412.242 51.2177L412.412 49.225ZM411.027 49.0257C410.533 48.9146 410.076 48.7802 409.655 48.6239L408.959 50.4987C409.471 50.6891 410.015 50.848 410.588 50.9769L411.027 49.0257ZM409.678 48.6328C409.451 48.5418 409.211 48.3545 408.979 47.9772L407.275 49.0254C407.683 49.6881 408.23 50.2075 408.936 50.4898L409.678 48.6328ZM408.994 48.0028C408.799 47.6645 408.667 47.171 408.667 46.4613H406.667C406.667 47.405 406.841 48.2714 407.26 48.9998L408.994 48.0028ZM408.667 46.4613V45.7613H406.667V46.4613H408.667ZM408.667 45.7613C408.667 44.9144 408.9 44.3944 409.246 44.0565L407.848 42.6261C407.021 43.4349 406.667 44.5282 406.667 45.7613H408.667ZM409.246 44.0565C409.599 43.7113 410.135 43.4813 410.987 43.4813V41.4813C409.759 41.4813 408.668 41.8247 407.848 42.6261L409.246 44.0565ZM410.987 43.4813H412.987V41.4813H410.987V43.4813ZM412.987 43.4813C413.857 43.4813 414.397 43.7135 414.748 44.0565L416.146 42.6261C415.324 41.8224 414.224 41.4813 412.987 41.4813V43.4813ZM414.748 44.0565C415.094 44.3944 415.327 44.9144 415.327 45.7613H417.327C417.327 44.5282 416.974 43.4349 416.146 42.6261L414.748 44.0565ZM415.327 45.7613V46.1413H417.327V45.7613H415.327ZM415.327 46.1413C415.327 46.1272 415.331 45.9329 415.515 45.7492C415.699 45.5655 415.893 45.5613 415.907 45.5613V47.5613C416.201 47.5613 416.605 47.4871 416.929 47.1634C417.253 46.8397 417.327 46.4355 417.327 46.1413H415.327ZM415.907 45.5613H414.207V47.5613H415.907V45.5613ZM414.207 45.5613C414.221 45.5613 414.415 45.5655 414.599 45.7492C414.783 45.9329 414.787 46.1272 414.787 46.1413H412.787C412.787 46.4355 412.861 46.8397 413.185 47.1634C413.509 47.4871 413.913 47.5613 414.207 47.5613V45.5613ZM414.787 46.1413V46.0213H412.787V46.1413H414.787ZM414.787 46.0213C414.787 45.4486 414.692 44.7182 414.169 44.2303L412.805 45.6924C412.733 45.6255 412.733 45.5793 412.75 45.6386C412.767 45.6984 412.787 45.8185 412.787 46.0213H414.787ZM414.169 44.2303C413.673 43.7674 412.964 43.6813 412.387 43.6813V45.6813C412.602 45.6813 412.738 45.7007 412.815 45.7204C412.895 45.7407 412.866 45.7493 412.805 45.6924L414.169 44.2303ZM412.387 43.6813H411.607V45.6813H412.387V43.6813ZM411.607 43.6813C411.002 43.6813 410.256 43.7852 409.757 44.3174L411.217 45.6852C411.159 45.747 411.124 45.7423 411.192 45.7228C411.261 45.7031 411.392 45.6813 411.607 45.6813V43.6813ZM409.756 44.319C409.498 44.5953 409.371 44.9328 409.303 45.2241C409.233 45.5241 409.207 45.8564 409.207 46.2013H411.207C411.207 45.9462 411.228 45.7785 411.251 45.6785C411.276 45.5699 411.289 45.6073 411.218 45.6836L409.756 44.319ZM409.207 46.2013V46.5813H411.207V46.2013H409.207ZM409.207 46.5813C409.207 47.2486 409.528 47.8014 410.067 48.1565C410.544 48.4704 411.148 48.6053 411.762 48.6577L411.932 46.6649C411.453 46.624 411.237 46.5322 411.167 46.4861C411.144 46.4707 411.163 46.4775 411.184 46.5167C411.207 46.5576 411.207 46.5877 411.207 46.5813H409.207ZM411.765 48.6579C412.816 48.7445 413.719 48.9523 414.488 49.2669L415.246 47.4158C414.255 47.0103 413.145 46.7648 411.929 46.6647L411.765 48.6579ZM414.473 49.2605C414.709 49.3617 414.946 49.5569 415.166 49.9293L416.888 48.9133C416.495 48.2457 415.958 47.7209 415.261 47.4222L414.473 49.2605ZM415.182 49.9553C415.372 50.257 415.507 50.7086 415.507 51.3813H417.507C417.507 50.454 417.322 49.599 416.873 48.8873L415.182 49.9553ZM415.507 51.3813V52.0613H417.507V51.3813H415.507ZM415.507 52.0613C415.507 52.9082 415.274 53.4282 414.928 53.7661L416.326 55.1965C417.154 54.3878 417.507 53.2944 417.507 52.0613H415.507ZM414.928 53.7661C414.575 54.1113 414.039 54.3413 413.187 54.3413V56.3413C414.415 56.3413 415.506 55.9979 416.326 55.1965L414.928 53.7661ZM413.187 54.3413H411.007V56.3413H413.187V54.3413ZM411.007 54.3413C410.155 54.3413 409.619 54.1113 409.266 53.7661L407.868 55.1965C408.688 55.9979 409.779 56.3413 411.007 56.3413V54.3413ZM409.266 53.7661C408.92 53.4282 408.687 52.9082 408.687 52.0613H406.687C406.687 53.2944 407.041 54.3878 407.868 55.1965L409.266 53.7661ZM417.668 47.2613L416.961 47.9684L417 48.0076L417.044 48.0422L417.668 47.2613ZM423.688 47.2613L422.981 46.5542L422.981 46.5542L423.688 47.2613ZM421.848 52.8813L421.141 53.5884L421.154 53.6015L421.168 53.6141L421.848 52.8813ZM423.888 55.2613L424.595 55.9684L424.595 55.9684L423.888 55.2613ZM419.888 54.5013L419.189 55.2167L419.198 55.2247L419.888 54.5013ZM418.808 46.3413H418.008V48.3413H418.808V46.3413ZM418.008 46.3413C417.979 46.3413 417.992 46.3384 418.032 46.3479C418.071 46.3569 418.176 46.387 418.293 46.4804L417.044 48.0422C417.387 48.3168 417.794 48.3413 418.008 48.3413V46.3413ZM418.375 46.5542C418.523 46.7014 418.567 46.8519 418.578 46.8988C418.592 46.9517 418.588 46.973 418.588 46.9413H416.588C416.588 47.0696 416.598 47.2242 416.638 47.3838C416.677 47.5374 416.761 47.7679 416.961 47.9684L418.375 46.5542ZM418.588 46.9413V45.5613H416.588V46.9413H418.588ZM418.588 45.5613C418.588 45.5755 418.584 45.7697 418.4 45.9534C418.217 46.1371 418.022 46.1413 418.008 46.1413V44.1413C417.714 44.1413 417.31 44.2155 416.986 44.5392C416.662 44.8629 416.588 45.2672 416.588 45.5613H418.588ZM418.008 46.1413H418.808V44.1413H418.008V46.1413ZM418.808 46.1413C419.036 46.1413 419.39 46.0838 419.68 45.7934C419.971 45.5031 420.028 45.1488 420.028 44.9213H418.028C418.028 44.8405 418.049 44.5962 418.266 44.3792C418.483 44.1622 418.727 44.1413 418.808 44.1413V46.1413ZM420.028 44.9213V43.0213H418.028V44.9213H420.028ZM420.028 43.0213C420.028 43.0476 420.019 43.248 419.829 43.4297C419.741 43.5133 419.649 43.5583 419.579 43.5805C419.514 43.6013 419.471 43.6013 419.468 43.6013V41.6013C419.179 41.6013 418.776 41.6696 418.448 41.983C418.111 42.3046 418.028 42.715 418.028 43.0213H420.028ZM419.468 43.6013H421.148V41.6013H419.468V43.6013ZM421.148 43.6013C421.134 43.6013 420.94 43.5971 420.756 43.4134C420.572 43.2297 420.568 43.0355 420.568 43.0213H422.568C422.568 42.7272 422.494 42.3229 422.17 41.9992C421.847 41.6755 421.442 41.6013 421.148 41.6013V43.6013ZM420.568 43.0213V44.9213H422.568V43.0213H420.568ZM420.568 44.9213C420.568 45.1722 420.641 45.5376 420.953 45.8235C421.248 46.0942 421.595 46.1413 421.808 46.1413V44.1413C421.862 44.1413 422.089 44.1518 422.304 44.3492C422.536 44.5617 422.568 44.817 422.568 44.9213H420.568ZM421.808 46.1413H423.368V44.1413H421.808V46.1413ZM423.368 46.1413C423.354 46.1413 423.16 46.1371 422.976 45.9534C422.792 45.7697 422.788 45.5755 422.788 45.5613H424.788C424.788 45.2672 424.714 44.8629 424.39 44.5392C424.067 44.2155 423.662 44.1413 423.368 44.1413V46.1413ZM422.788 45.5613V46.9413H424.788V45.5613H422.788ZM422.788 46.9413C422.788 46.9406 422.788 46.9307 422.791 46.9134C422.793 46.896 422.798 46.8683 422.809 46.833C422.831 46.7606 422.881 46.6545 422.981 46.5542L424.395 47.9684C424.731 47.6326 424.788 47.2097 424.788 46.9413H422.788ZM422.981 46.5542C423.128 46.407 423.279 46.3629 423.326 46.3512C423.379 46.3379 423.4 46.3413 423.368 46.3413V48.3413C423.497 48.3413 423.651 48.3314 423.811 48.2915C423.964 48.2531 424.195 48.169 424.395 47.9684L422.981 46.5542ZM423.368 46.3413H421.808V48.3413H423.368V46.3413ZM421.808 46.3413C421.595 46.3413 421.248 46.3884 420.953 46.6592C420.641 46.945 420.568 47.3104 420.568 47.5613H422.568C422.568 47.6656 422.536 47.921 422.304 48.1335C422.089 48.3309 421.862 48.3413 421.808 48.3413V46.3413ZM420.568 47.5613V51.9813H422.568V47.5613H420.568ZM420.568 51.9813C420.568 52.5142 420.684 53.1316 421.141 53.5884L422.555 52.1742C422.597 52.2153 422.601 52.2438 422.593 52.2192C422.584 52.1903 422.568 52.1171 422.568 51.9813H420.568ZM421.168 53.6141C421.63 54.0432 422.248 54.1413 422.768 54.1413V52.1413C422.618 52.1413 422.531 52.1255 422.49 52.114C422.452 52.1032 422.481 52.1037 422.529 52.1485L421.168 53.6141ZM422.768 54.1413H423.568V52.1413H422.768V54.1413ZM423.568 54.1413C423.554 54.1413 423.36 54.1371 423.176 53.9534C422.992 53.7697 422.988 53.5755 422.988 53.5613H424.988C424.988 53.2672 424.914 52.8629 424.59 52.5392C424.267 52.2155 423.862 52.1413 423.568 52.1413V54.1413ZM422.988 53.5613V54.9413H424.988V53.5613H422.988ZM422.988 54.9413C422.988 54.9406 422.988 54.9307 422.991 54.9134C422.993 54.896 422.998 54.8683 423.009 54.833C423.031 54.7606 423.081 54.6545 423.181 54.5542L424.595 55.9684C424.931 55.6326 424.988 55.2097 424.988 54.9413H422.988ZM423.181 54.5542C423.328 54.407 423.479 54.3629 423.526 54.3512C423.579 54.3379 423.6 54.3413 423.568 54.3413V56.3413C423.697 56.3413 423.851 56.3314 424.011 56.2915C424.164 56.2531 424.395 56.169 424.595 55.9684L423.181 54.5542ZM423.568 54.3413H422.348V56.3413H423.568V54.3413ZM422.348 54.3413C421.473 54.3413 420.929 54.1122 420.579 53.778L419.198 55.2247C420.021 56.0105 421.117 56.3413 422.348 56.3413V54.3413ZM420.587 53.7859C420.259 53.4656 420.028 52.9559 420.028 52.1013H418.028C418.028 53.3267 418.371 54.417 419.19 55.2167L420.587 53.7859ZM420.028 52.1013V47.5613H418.028V52.1013H420.028ZM420.028 47.5613C420.028 47.3338 419.971 46.9795 419.68 46.6892C419.39 46.3989 419.036 46.3413 418.808 46.3413V48.3413C418.727 48.3413 418.483 48.3204 418.266 48.1034C418.049 47.8864 418.028 47.6421 418.028 47.5613H420.028ZM426.299 54.5013L426.998 53.7859L426.299 54.5013ZM426.299 45.9813L426.998 46.6967L426.998 46.6967L426.299 45.9813ZM431.259 54.2613H432.259V53.2613H431.259V54.2613ZM431.179 54.2613V53.2613H430.507L430.253 53.884L431.179 54.2613ZM430.399 55.0813L430.82 55.9883L430.833 55.9822L430.846 55.9757L430.399 55.0813ZM428.239 47.6213L428.946 48.3284L428.959 48.3153L428.972 48.3018L428.239 47.6213ZM428.239 52.8813L427.506 53.5618L427.519 53.5753L427.532 53.5884L428.239 52.8813ZM429.219 54.3413H428.739V56.3413H429.219V54.3413ZM428.739 54.3413C427.862 54.3413 427.331 54.1117 426.998 53.7859L425.6 55.2167C426.413 56.011 427.51 56.3413 428.739 56.3413V54.3413ZM426.998 53.7859C426.672 53.4679 426.439 52.9536 426.439 52.0813H424.439C424.439 53.3157 424.779 54.4147 425.6 55.2167L426.998 53.7859ZM426.439 52.0813V48.4013H424.439V52.0813H426.439ZM426.439 48.4013C426.439 47.5291 426.672 47.0147 426.998 46.6967L425.6 45.2659C424.779 46.0679 424.439 47.1669 424.439 48.4013H426.439ZM426.998 46.6967C427.331 46.3709 427.862 46.1413 428.739 46.1413V44.1413C427.51 44.1413 426.413 44.4717 425.6 45.2659L426.998 46.6967ZM428.739 46.1413H433.359V44.1413H428.739V46.1413ZM433.359 46.1413C433.356 46.1413 433.314 46.1413 433.248 46.1205C433.179 46.0983 433.086 46.0533 432.999 45.9697C432.808 45.788 432.799 45.5876 432.799 45.5613H434.799C434.799 45.255 434.716 44.8446 434.38 44.523C434.051 44.2096 433.649 44.1413 433.359 44.1413V46.1413ZM432.799 45.5613V54.9213H434.799V45.5613H432.799ZM432.799 54.9213C432.799 54.895 432.808 54.6946 432.999 54.513C433.086 54.4293 433.179 54.3843 433.248 54.3621C433.314 54.3413 433.356 54.3413 433.359 54.3413V56.3413C433.649 56.3413 434.051 56.273 434.38 55.9597C434.716 55.638 434.799 55.2276 434.799 54.9213H432.799ZM433.359 54.3413H431.679V56.3413H433.359V54.3413ZM431.679 54.3413C431.693 54.3413 431.887 54.3455 432.071 54.5292C432.255 54.7129 432.259 54.9072 432.259 54.9213H430.259C430.259 55.2155 430.333 55.6197 430.657 55.9434C430.981 56.2671 431.385 56.3413 431.679 56.3413V54.3413ZM432.259 54.9213V54.2613H430.259V54.9213H432.259ZM431.259 53.2613H431.179V55.2613H431.259V53.2613ZM430.253 53.884C430.205 54.0019 430.125 54.1001 429.952 54.1869L430.846 55.9757C431.419 55.6892 431.86 55.2407 432.105 54.6386L430.253 53.884ZM429.978 54.1743C429.737 54.2861 429.488 54.3413 429.219 54.3413V56.3413C429.777 56.3413 430.314 56.2232 430.82 55.9883L429.978 54.1743ZM432.259 51.6213V47.5613H430.259V51.6213H432.259ZM432.259 47.5613C432.259 47.3104 432.187 46.945 431.875 46.6592C431.579 46.3884 431.233 46.3413 431.019 46.3413V48.3413C430.965 48.3413 430.739 48.3309 430.523 48.1335C430.292 47.921 430.259 47.6656 430.259 47.5613H432.259ZM431.019 46.3413H429.139V48.3413H431.019V46.3413ZM429.139 46.3413C428.613 46.3413 427.963 46.4485 427.506 46.9409L428.972 48.3018C428.915 48.363 428.869 48.373 428.891 48.3662C428.917 48.358 428.993 48.3413 429.139 48.3413V46.3413ZM427.532 46.9142C427.073 47.3733 426.979 48.0116 426.979 48.5213H428.979C428.979 48.3701 428.995 48.2875 429.005 48.2538C429.014 48.2227 429.007 48.2672 428.946 48.3284L427.532 46.9142ZM426.979 48.5213V51.9613H428.979V48.5213H426.979ZM426.979 51.9613C426.979 52.4814 427.077 53.0997 427.506 53.5618L428.972 52.2009C429.017 52.2491 429.017 52.2777 429.006 52.2394C428.995 52.1986 428.979 52.1117 428.979 51.9613H426.979ZM427.532 53.5884C427.991 54.0475 428.629 54.1413 429.139 54.1413V52.1413C428.988 52.1413 428.905 52.1253 428.872 52.1156C428.84 52.1066 428.885 52.113 428.946 52.1742L427.532 53.5884ZM429.139 54.1413H429.879V52.1413H429.139V54.1413ZM429.879 54.1413C430.519 54.1413 431.176 53.9605 431.654 53.4335C432.116 52.9248 432.259 52.2595 432.259 51.6213H430.259C430.259 51.8022 430.238 51.9223 430.216 51.9967C430.194 52.0673 430.174 52.0886 430.174 52.0891C430.173 52.0903 430.172 52.0914 430.169 52.0933C430.166 52.0953 430.156 52.1008 430.138 52.1076C430.1 52.1216 430.02 52.1413 429.879 52.1413V54.1413ZM438.531 46.2413H437.531V47.2413H438.531V46.2413ZM438.611 46.2413V47.2413H439.283L439.537 46.6186L438.611 46.2413ZM439.391 45.4213L439.838 46.3157L439.838 46.3157L439.391 45.4213ZM441.591 47.2813L440.884 46.5742L440.884 46.5742L441.591 47.2813ZM441.291 47.3413L441.381 46.3454L441.336 46.3413H441.291V47.3413ZM438.111 54.3413H436.411V56.3413H438.111V54.3413ZM436.411 54.3413C436.425 54.3413 436.619 54.3455 436.803 54.5292C436.986 54.7129 436.991 54.9072 436.991 54.9213H434.991C434.991 55.2155 435.065 55.6197 435.389 55.9434C435.712 56.2671 436.116 56.3413 436.411 56.3413V54.3413ZM436.991 54.9213V45.5613H434.991V54.9213H436.991ZM436.991 45.5613C436.991 45.5755 436.986 45.7697 436.803 45.9534C436.619 46.1371 436.425 46.1413 436.411 46.1413V44.1413C436.116 44.1413 435.712 44.2155 435.389 44.5392C435.065 44.8629 434.991 45.2672 434.991 45.5613H436.991ZM436.411 46.1413H438.111V44.1413H436.411V46.1413ZM438.111 46.1413C438.096 46.1413 437.902 46.1371 437.719 45.9534C437.535 45.7697 437.531 45.5755 437.531 45.5613H439.531C439.531 45.2672 439.456 44.8629 439.133 44.5392C438.809 44.2155 438.405 44.1413 438.111 44.1413V46.1413ZM437.531 45.5613V46.2413H439.531V45.5613H437.531ZM438.531 47.2413H438.611V45.2413H438.531V47.2413ZM439.537 46.6186C439.585 46.5007 439.664 46.4025 439.838 46.3157L438.943 44.5269C438.37 44.8134 437.93 45.2619 437.685 45.864L439.537 46.6186ZM439.838 46.3157C440.074 46.1978 440.314 46.1413 440.571 46.1413V44.1413C440 44.1413 439.454 44.2715 438.943 44.5269L439.838 46.3157ZM440.571 46.1413H441.291V44.1413H440.571V46.1413ZM441.291 46.1413C441.257 46.1413 441.051 46.13 440.866 45.936C440.69 45.751 440.691 45.5636 440.691 45.5613H442.691C442.691 45.279 442.624 44.8816 442.315 44.5567C441.997 44.2226 441.591 44.1413 441.291 44.1413V46.1413ZM440.691 45.5613V46.9413H442.691V45.5613H440.691ZM440.691 46.9413C440.691 46.9572 440.688 46.925 440.706 46.8641C440.725 46.8002 440.772 46.6855 440.884 46.5742L442.298 47.9884C442.647 47.6396 442.691 47.1931 442.691 46.9413H440.691ZM440.884 46.5742C441.038 46.42 441.202 46.3712 441.28 46.3557C441.355 46.3405 441.397 46.3469 441.381 46.3454L441.2 48.3372C441.388 48.3543 441.904 48.3822 442.298 47.9884L440.884 46.5742ZM441.291 46.3413H439.911V48.3413H441.291V46.3413ZM439.911 46.3413C439.263 46.3413 438.603 46.5301 438.127 47.0687C437.671 47.584 437.531 48.2553 437.531 48.9013H439.531C439.531 48.5073 439.62 48.3986 439.625 48.3939C439.625 48.3934 439.63 48.3858 439.659 48.3746C439.695 48.3611 439.772 48.3413 439.911 48.3413V46.3413ZM437.531 48.9013V54.9213H439.531V48.9013H437.531ZM437.531 54.9213C437.531 54.9072 437.535 54.7129 437.719 54.5292C437.902 54.3455 438.096 54.3413 438.111 54.3413V56.3413C438.405 56.3413 438.809 56.2671 439.133 55.9434C439.456 55.6197 439.531 55.2155 439.531 54.9213H437.531ZM442.043 47.2613L441.336 47.9684L441.375 48.0076L441.419 48.0422L442.043 47.2613ZM448.063 47.2613L447.356 46.5542L447.356 46.5542L448.063 47.2613ZM446.223 52.8813L445.516 53.5884L445.529 53.6015L445.543 53.6141L446.223 52.8813ZM448.263 55.2613L448.97 55.9684L448.97 55.9684L448.263 55.2613ZM444.263 54.5013L443.564 55.2167L443.573 55.2247L444.263 54.5013ZM443.183 46.3413H442.383V48.3413H443.183V46.3413ZM442.383 46.3413C442.354 46.3413 442.367 46.3384 442.407 46.3479C442.446 46.3569 442.551 46.387 442.668 46.4804L441.419 48.0422C441.762 48.3168 442.169 48.3413 442.383 48.3413V46.3413ZM442.75 46.5542C442.898 46.7014 442.942 46.8519 442.953 46.8988C442.967 46.9517 442.963 46.973 442.963 46.9413H440.963C440.963 47.0696 440.973 47.2242 441.013 47.3838C441.052 47.5374 441.136 47.7679 441.336 47.9684L442.75 46.5542ZM442.963 46.9413V45.5613H440.963V46.9413H442.963ZM442.963 45.5613C442.963 45.5755 442.959 45.7697 442.775 45.9534C442.592 46.1371 442.397 46.1413 442.383 46.1413V44.1413C442.089 44.1413 441.685 44.2155 441.361 44.5392C441.037 44.8629 440.963 45.2672 440.963 45.5613H442.963ZM442.383 46.1413H443.183V44.1413H442.383V46.1413ZM443.183 46.1413C443.411 46.1413 443.765 46.0838 444.055 45.7934C444.346 45.5031 444.403 45.1488 444.403 44.9213H442.403C442.403 44.8405 442.424 44.5962 442.641 44.3792C442.858 44.1622 443.102 44.1413 443.183 44.1413V46.1413ZM444.403 44.9213V43.0213H442.403V44.9213H444.403ZM444.403 43.0213C444.403 43.0476 444.394 43.248 444.204 43.4297C444.116 43.5133 444.024 43.5583 443.954 43.5805C443.889 43.6013 443.846 43.6013 443.843 43.6013V41.6013C443.554 41.6013 443.151 41.6696 442.823 41.983C442.486 42.3046 442.403 42.715 442.403 43.0213H444.403ZM443.843 43.6013H445.523V41.6013H443.843V43.6013ZM445.523 43.6013C445.509 43.6013 445.315 43.5971 445.131 43.4134C444.947 43.2297 444.943 43.0355 444.943 43.0213H446.943C446.943 42.7272 446.869 42.3229 446.545 41.9992C446.222 41.6755 445.817 41.6013 445.523 41.6013V43.6013ZM444.943 43.0213V44.9213H446.943V43.0213H444.943ZM444.943 44.9213C444.943 45.1722 445.016 45.5376 445.328 45.8235C445.623 46.0942 445.97 46.1413 446.183 46.1413V44.1413C446.237 44.1413 446.464 44.1518 446.679 44.3492C446.911 44.5617 446.943 44.817 446.943 44.9213H444.943ZM446.183 46.1413H447.743V44.1413H446.183V46.1413ZM447.743 46.1413C447.729 46.1413 447.535 46.1371 447.351 45.9534C447.167 45.7697 447.163 45.5755 447.163 45.5613H449.163C449.163 45.2672 449.089 44.8629 448.765 44.5392C448.442 44.2155 448.037 44.1413 447.743 44.1413V46.1413ZM447.163 45.5613V46.9413H449.163V45.5613H447.163ZM447.163 46.9413C447.163 46.9406 447.163 46.9307 447.166 46.9134C447.168 46.896 447.173 46.8683 447.184 46.833C447.206 46.7606 447.256 46.6545 447.356 46.5542L448.77 47.9684C449.106 47.6326 449.163 47.2097 449.163 46.9413H447.163ZM447.356 46.5542C447.503 46.407 447.654 46.3629 447.701 46.3512C447.754 46.3379 447.775 46.3413 447.743 46.3413V48.3413C447.872 48.3413 448.026 48.3314 448.186 48.2915C448.339 48.2531 448.57 48.169 448.77 47.9684L447.356 46.5542ZM447.743 46.3413H446.183V48.3413H447.743V46.3413ZM446.183 46.3413C445.97 46.3413 445.623 46.3884 445.328 46.6592C445.016 46.945 444.943 47.3104 444.943 47.5613H446.943C446.943 47.6656 446.911 47.921 446.679 48.1335C446.464 48.3309 446.237 48.3413 446.183 48.3413V46.3413ZM444.943 47.5613V51.9813H446.943V47.5613H444.943ZM444.943 51.9813C444.943 52.5142 445.059 53.1316 445.516 53.5884L446.93 52.1742C446.972 52.2153 446.976 52.2438 446.968 52.2192C446.959 52.1903 446.943 52.1171 446.943 51.9813H444.943ZM445.543 53.6141C446.005 54.0432 446.623 54.1413 447.143 54.1413V52.1413C446.993 52.1413 446.906 52.1255 446.865 52.114C446.827 52.1032 446.856 52.1037 446.904 52.1485L445.543 53.6141ZM447.143 54.1413H447.943V52.1413H447.143V54.1413ZM447.943 54.1413C447.929 54.1413 447.735 54.1371 447.551 53.9534C447.367 53.7697 447.363 53.5755 447.363 53.5613H449.363C449.363 53.2672 449.289 52.8629 448.965 52.5392C448.642 52.2155 448.237 52.1413 447.943 52.1413V54.1413ZM447.363 53.5613V54.9413H449.363V53.5613H447.363ZM447.363 54.9413C447.363 54.9406 447.363 54.9307 447.366 54.9134C447.368 54.896 447.373 54.8683 447.384 54.833C447.406 54.7606 447.456 54.6545 447.556 54.5542L448.97 55.9684C449.306 55.6326 449.363 55.2097 449.363 54.9413H447.363ZM447.556 54.5542C447.703 54.407 447.854 54.3629 447.901 54.3512C447.954 54.3379 447.975 54.3413 447.943 54.3413V56.3413C448.072 56.3413 448.226 56.3314 448.386 56.2915C448.539 56.2531 448.77 56.169 448.97 55.9684L447.556 54.5542ZM447.943 54.3413H446.723V56.3413H447.943V54.3413ZM446.723 54.3413C445.848 54.3413 445.304 54.1122 444.954 53.778L443.573 55.2247C444.396 56.0105 445.492 56.3413 446.723 56.3413V54.3413ZM444.962 53.7859C444.634 53.4656 444.403 52.9559 444.403 52.1013H442.403C442.403 53.3267 442.746 54.417 443.565 55.2167L444.962 53.7859ZM444.403 52.1013V47.5613H442.403V52.1013H444.403ZM444.403 47.5613C444.403 47.3338 444.346 46.9795 444.055 46.6892C443.765 46.3989 443.411 46.3413 443.183 46.3413V48.3413C443.102 48.3413 442.858 48.3204 442.641 48.1034C442.424 47.8864 442.403 47.6421 442.403 47.5613H444.403ZM449.754 53.3413L450.461 54.0484L450.5 54.0093L450.535 53.966L449.754 53.3413ZM453.574 51.6213L453.088 52.4955L453.095 52.499L453.101 52.5025L453.574 51.6213ZM451.594 50.5213L452.08 49.6472L452.064 49.6385L452.048 49.6304L451.594 50.5213ZM450.094 49.4013L450.875 48.7766L450.875 48.7766L450.094 49.4013ZM450.354 45.8013L451.02 46.5476L451.02 46.5476L450.354 45.8013ZM456.334 47.1813L457.041 47.8884L457.08 47.8493L457.115 47.806L456.334 47.1813ZM453.114 48.7613L453.625 47.9016L453.606 47.8901L453.586 47.8795L453.114 48.7613ZM455.134 49.9613L454.623 50.821L454.641 50.8318L454.66 50.8418L455.134 49.9613ZM456.594 51.1213L455.775 51.6948L455.779 51.7013L455.784 51.7078L456.594 51.1213ZM453.874 54.3413H450.074V56.3413H453.874V54.3413ZM450.074 54.3413C450.108 54.3413 450.313 54.3526 450.498 54.5467C450.674 54.7316 450.674 54.919 450.674 54.9213H448.674C448.674 55.2036 448.74 55.601 449.05 55.926C449.368 56.26 449.774 56.3413 450.074 56.3413V54.3413ZM450.674 54.9213V53.6413H448.674V54.9213H450.674ZM450.674 53.6413C450.674 53.6219 450.677 53.6531 450.66 53.714C450.644 53.7734 450.597 53.9128 450.461 54.0484L449.047 52.6342C448.693 52.988 448.674 53.4499 448.674 53.6413H450.674ZM450.535 53.966C450.404 54.1297 450.251 54.1962 450.172 54.2208C450.097 54.2442 450.055 54.2413 450.074 54.2413V52.2413C449.857 52.2413 449.33 52.2709 448.973 52.7166L450.535 53.966ZM450.074 54.2413H453.414V52.2413H450.074V54.2413ZM453.414 54.2413C453.81 54.2413 454.275 54.1865 454.671 53.9442C455.147 53.6528 455.394 53.1706 455.394 52.6413H453.394C453.394 52.6029 453.403 52.5206 453.455 52.4256C453.507 52.3287 453.578 52.2686 453.627 52.2385C453.67 52.2123 453.684 52.2155 453.643 52.224C453.603 52.2322 453.529 52.2413 453.414 52.2413V54.2413ZM455.394 52.6413V52.5413H453.394V52.6413H455.394ZM455.394 52.5413C455.394 51.6074 454.62 51.0479 454.047 50.7401L453.101 52.5025C453.206 52.5585 453.284 52.6085 453.342 52.6508C453.401 52.6936 453.431 52.7232 453.443 52.7367C453.454 52.7498 453.442 52.7395 453.426 52.7036C453.409 52.6646 453.394 52.6081 453.394 52.5413H455.394ZM454.06 50.7472L452.08 49.6472L451.108 51.3955L453.088 52.4955L454.06 50.7472ZM452.048 49.6304C451.438 49.3194 451.074 49.025 450.875 48.7766L449.313 50.026C449.755 50.5776 450.39 51.0299 451.14 51.4122L452.048 49.6304ZM450.875 48.7766C450.726 48.5908 450.614 48.3132 450.614 47.8613H448.614C448.614 48.6628 448.822 49.4118 449.313 50.026L450.875 48.7766ZM450.614 47.8613C450.614 47.092 450.815 46.73 451.02 46.5476L449.688 45.055C448.906 45.7526 448.614 46.7639 448.614 47.8613H450.614ZM451.02 46.5476C451.248 46.3441 451.728 46.1413 452.674 46.1413V44.1413C451.513 44.1413 450.447 44.3785 449.688 45.055L451.02 46.5476ZM452.674 46.1413H456.014V44.1413H452.674V46.1413ZM456.014 46.1413C455.98 46.1413 455.775 46.13 455.59 45.936C455.414 45.751 455.414 45.5636 455.414 45.5613H457.414C457.414 45.279 457.348 44.8816 457.038 44.5567C456.72 44.2226 456.314 44.1413 456.014 44.1413V46.1413ZM455.414 45.5613V46.8613H457.414V45.5613H455.414ZM455.414 46.8613C455.414 46.8782 455.412 46.8561 455.424 46.8088C455.436 46.7612 455.468 46.663 455.553 46.5566L457.115 47.806C457.381 47.4736 457.414 47.0875 457.414 46.8613H455.414ZM455.627 46.4742C455.774 46.327 455.925 46.2829 455.972 46.2712C456.024 46.2579 456.046 46.2613 456.014 46.2613V48.2613C456.142 48.2613 456.297 48.2514 456.457 48.2115C456.61 48.1731 456.841 48.089 457.041 47.8884L455.627 46.4742ZM456.014 46.2613H453.234V48.2613H456.014V46.2613ZM453.234 46.2613C452.855 46.2613 452.419 46.3043 452.045 46.4955C451.843 46.5985 451.634 46.7572 451.478 46.9956C451.319 47.2393 451.254 47.5071 451.254 47.7613H453.254C453.254 47.8489 453.23 47.9709 453.152 48.0895C453.078 48.2029 452.992 48.2574 452.954 48.2771C452.919 48.2945 452.917 48.2879 452.973 48.2784C453.026 48.2694 453.111 48.2613 453.234 48.2613V46.2613ZM451.254 47.7613V47.8613H453.254V47.7613H451.254ZM451.254 47.8613C451.254 48.3555 451.499 48.7386 451.746 48.9972C451.992 49.2543 452.309 49.4648 452.642 49.6431L453.586 47.8795C453.471 47.8179 453.381 47.7628 453.314 47.7154C453.246 47.6674 453.209 47.6332 453.192 47.6155C453.153 47.5741 453.254 47.6604 453.254 47.8613H451.254ZM452.603 49.621L454.623 50.821L455.645 49.1016L453.625 47.9016L452.603 49.621ZM454.66 50.8418C455.291 51.1815 455.623 51.4777 455.775 51.6948L457.413 50.5478C457.005 49.9649 456.364 49.4878 455.608 49.0808L454.66 50.8418ZM455.784 51.7078C455.905 51.8743 456.014 52.1611 456.014 52.6613H458.014C458.014 51.8815 457.843 51.1417 457.404 50.5348L455.784 51.7078ZM456.014 52.6613C456.014 53.3554 455.818 53.7073 455.58 53.9107C455.311 54.14 454.802 54.3413 453.874 54.3413V56.3413C455.04 56.3413 456.1 56.096 456.878 55.4319C457.687 54.742 458.014 53.7538 458.014 52.6613H456.014ZM469.318 52.9613L469.999 53.6941L470 53.6924L469.318 52.9613ZM469.318 50.0213L468.663 50.777L468.663 50.777L469.318 50.0213ZM469.118 47.4413L469.773 48.197L469.787 48.1849L469.8 48.1724L469.118 47.4413ZM469.118 44.8813L468.411 45.5884L468.436 45.6136L468.463 45.637L469.118 44.8813ZM471.038 43.3213L470.339 44.0367L470.339 44.0367L471.038 43.3213ZM470.318 48.7413L470.016 47.7879L470.17 49.7302L470.318 48.7413ZM471.598 49.4013L470.851 50.0657L470.857 50.0727L470.863 50.0796L471.598 49.4013ZM466.138 54.2213H468.378V52.2213H466.138V54.2213ZM468.378 54.2213C468.902 54.2213 469.532 54.1272 469.999 53.6941L468.638 52.2285C468.69 52.1802 468.72 52.1804 468.677 52.1925C468.631 52.2051 468.538 52.2213 468.378 52.2213V54.2213ZM470 53.6924C470.487 53.2381 470.618 52.6108 470.618 52.0613H468.618C468.618 52.1916 468.602 52.2579 468.594 52.2801C468.589 52.2966 468.596 52.2674 468.636 52.2303L470 53.6924ZM470.618 52.0613V50.9013H468.618V52.0613H470.618ZM470.618 50.9013C470.618 50.36 470.491 49.7141 469.973 49.2656L468.663 50.777C468.638 50.755 468.62 50.7325 468.608 50.7146C468.597 50.6973 468.595 50.6885 468.597 50.694C468.602 50.7086 468.618 50.7701 468.618 50.9013H470.618ZM469.973 49.2656C469.5 48.8557 468.875 48.7613 468.338 48.7613V50.7613C468.506 50.7613 468.61 50.7778 468.667 50.7929C468.722 50.8076 468.706 50.8137 468.663 50.777L469.973 49.2656ZM468.338 48.7613H466.138V50.7613H468.338V48.7613ZM466.138 48.7613C465.911 48.7613 465.556 48.8189 465.266 49.1092C464.976 49.3995 464.918 49.7538 464.918 49.9813H466.918C466.918 50.0621 466.897 50.3064 466.68 50.5234C466.463 50.7404 466.219 50.7613 466.138 50.7613V48.7613ZM464.918 49.9813V53.0013H466.918V49.9813H464.918ZM464.918 53.0013C464.918 53.2288 464.976 53.5831 465.266 53.8734C465.556 54.1638 465.911 54.2213 466.138 54.2213V52.2213C466.219 52.2213 466.463 52.2422 466.68 52.4592C466.897 52.6762 466.918 52.9205 466.918 53.0013H464.918ZM466.138 48.7013H468.178V46.7013H466.138V48.7013ZM468.178 48.7013C468.707 48.7013 469.309 48.5996 469.773 48.197L468.463 46.6856C468.498 46.6552 468.512 46.6599 468.467 46.6725C468.419 46.6857 468.328 46.7013 468.178 46.7013V48.7013ZM469.8 48.1724C470.287 47.7181 470.418 47.0908 470.418 46.5413H468.418C468.418 46.6716 468.402 46.7379 468.394 46.7601C468.389 46.7766 468.396 46.7474 468.436 46.7103L469.8 48.1724ZM470.418 46.5413V45.7613H468.418V46.5413H470.418ZM470.418 45.7613C470.418 45.22 470.291 44.5741 469.773 44.1256L468.463 45.637C468.438 45.615 468.42 45.5925 468.408 45.5746C468.397 45.5573 468.395 45.5485 468.397 45.554C468.402 45.5686 468.418 45.6301 468.418 45.7613H470.418ZM469.825 44.1742C469.364 43.7125 468.733 43.6013 468.198 43.6013V45.6013C468.343 45.6013 468.423 45.6177 468.457 45.628C468.487 45.637 468.456 45.6335 468.411 45.5884L469.825 44.1742ZM468.198 43.6013H466.138V45.6013H468.198V43.6013ZM466.138 43.6013C465.911 43.6013 465.556 43.6589 465.266 43.9492C464.976 44.2395 464.918 44.5938 464.918 44.8213H466.918C466.918 44.9021 466.897 45.1464 466.68 45.3634C466.463 45.5804 466.219 45.6013 466.138 45.6013V43.6013ZM464.918 44.8213V47.4813H466.918V44.8213H464.918ZM464.918 47.4813C464.918 47.7088 464.976 48.0631 465.266 48.3534C465.556 48.6438 465.911 48.7013 466.138 48.7013V46.7013C466.219 46.7013 466.463 46.7222 466.68 46.9392C466.897 47.1562 466.918 47.4005 466.918 47.4813H464.918ZM464.378 54.9213V42.9013H462.378V54.9213H464.378ZM464.378 42.9013C464.378 42.9155 464.374 43.1097 464.19 43.2934C464.007 43.4771 463.812 43.4813 463.798 43.4813V41.4813C463.504 41.4813 463.1 41.5555 462.776 41.8792C462.452 42.2029 462.378 42.6072 462.378 42.9013H464.378ZM463.798 43.4813H468.598V41.4813H463.798V43.4813ZM468.598 43.4813C469.475 43.4813 470.006 43.711 470.339 44.0367L471.737 42.6059C470.924 41.8117 469.828 41.4813 468.598 41.4813V43.4813ZM470.339 44.0367C470.667 44.357 470.898 44.8667 470.898 45.7213H472.898C472.898 44.4959 472.556 43.4056 471.737 42.6059L470.339 44.0367ZM470.898 45.7213V46.5413H472.898V45.7213H470.898ZM470.898 46.5413C470.898 46.9526 470.804 47.2004 470.691 47.358C470.579 47.5133 470.384 47.6714 470.016 47.7879L470.62 49.6947C471.305 49.4778 471.9 49.1027 472.315 48.5246C472.729 47.9489 472.898 47.2634 472.898 46.5413H470.898ZM470.17 49.7302C470.501 49.7799 470.705 49.9017 470.851 50.0657L472.346 48.7369C471.851 48.1809 471.202 47.8627 470.466 47.7524L470.17 49.7302ZM470.863 50.0796C470.957 50.1806 471.078 50.402 471.078 50.9013H473.078C473.078 50.094 472.88 49.3153 472.333 48.723L470.863 50.0796ZM471.078 50.9013V52.1013H473.078V50.9013H471.078ZM471.078 52.1013C471.078 52.9559 470.847 53.4656 470.519 53.7859L471.917 55.2167C472.736 54.417 473.078 53.3267 473.078 52.1013H471.078ZM470.519 53.7859C470.184 54.1139 469.658 54.3413 468.798 54.3413V56.3413C470.018 56.3413 471.106 56.0087 471.917 55.2167L470.519 53.7859ZM468.798 54.3413H463.798V56.3413H468.798V54.3413ZM463.798 54.3413C463.812 54.3413 464.007 54.3455 464.19 54.5292C464.374 54.7129 464.378 54.9072 464.378 54.9213H462.378C462.378 55.2155 462.452 55.6197 462.776 55.9434C463.1 56.2671 463.504 56.3413 463.798 56.3413V54.3413ZM474.932 54.5013L475.631 53.7859L474.932 54.5013ZM474.932 45.9813L475.631 46.6967L475.631 46.6967L474.932 45.9813ZM481.572 46.0013L480.865 46.7084L480.873 46.7166L480.881 46.7247L481.572 46.0013ZM481.572 54.5013L482.271 55.2167L482.271 55.2165L481.572 54.5013ZM479.672 52.9013L478.991 52.1685L478.978 52.1811L478.965 52.1942L479.672 52.9013ZM479.672 47.5813L478.965 48.2884L478.978 48.3015L478.991 48.3141L479.672 47.5813ZM476.852 47.5813L477.559 48.2884L477.559 48.2884L476.852 47.5813ZM476.852 52.9013L477.559 52.1942L477.559 52.1942L476.852 52.9013ZM479.152 54.3413H477.372V56.3413H479.152V54.3413ZM477.372 54.3413C476.495 54.3413 475.964 54.1117 475.631 53.7859L474.233 55.2167C475.046 56.011 476.142 56.3413 477.372 56.3413V54.3413ZM475.631 53.7859C475.305 53.4679 475.072 52.9536 475.072 52.0813H473.072C473.072 53.3157 473.412 54.4147 474.233 55.2167L475.631 53.7859ZM475.072 52.0813V48.4013H473.072V52.0813H475.072ZM475.072 48.4013C475.072 47.5291 475.305 47.0147 475.631 46.6967L474.233 45.2659C473.412 46.0679 473.072 47.1669 473.072 48.4013H475.072ZM475.631 46.6967C475.964 46.3709 476.495 46.1413 477.372 46.1413V44.1413C476.142 44.1413 475.046 44.4717 474.233 45.2659L475.631 46.6967ZM477.372 46.1413H479.152V44.1413H477.372V46.1413ZM479.152 46.1413C480.005 46.1413 480.528 46.3717 480.865 46.7084L482.279 45.2942C481.469 44.4843 480.379 44.1413 479.152 44.1413V46.1413ZM480.881 46.7247C481.218 47.0463 481.452 47.5532 481.452 48.4013H483.452C483.452 47.1694 483.099 46.0763 482.262 45.278L480.881 46.7247ZM481.452 48.4013V52.0813H483.452V48.4013H481.452ZM481.452 52.0813C481.452 52.9282 481.219 53.4482 480.873 53.7861L482.271 55.2165C483.098 54.4078 483.452 53.3144 483.452 52.0813H481.452ZM480.873 53.7859C480.537 54.1139 480.012 54.3413 479.152 54.3413V56.3413C480.372 56.3413 481.46 56.0087 482.271 55.2167L480.873 53.7859ZM477.752 54.1613H478.772V52.1613H477.752V54.1613ZM478.772 54.1613C479.282 54.1613 479.92 54.0675 480.379 53.6084L478.965 52.1942C479.026 52.133 479.071 52.1266 479.039 52.1356C479.006 52.1453 478.923 52.1613 478.772 52.1613V54.1613ZM480.352 53.6341C480.845 53.1769 480.952 52.5269 480.952 52.0013H478.952C478.952 52.1474 478.935 52.2229 478.927 52.2492C478.92 52.2711 478.93 52.2254 478.991 52.1685L480.352 53.6341ZM480.952 52.0013V48.4813H478.952V52.0013H480.952ZM480.952 48.4813C480.952 47.9557 480.845 47.3057 480.352 46.8485L478.991 48.3141C478.93 48.2572 478.92 48.2115 478.927 48.2334C478.935 48.2597 478.952 48.3352 478.952 48.4813H480.952ZM480.379 46.8742C479.92 46.4151 479.282 46.3213 478.772 46.3213V48.3213C478.923 48.3213 479.006 48.3373 479.039 48.347C479.071 48.356 479.026 48.3496 478.965 48.2884L480.379 46.8742ZM478.772 46.3213H477.752V48.3213H478.772V46.3213ZM477.752 46.3213C477.242 46.3213 476.604 46.4151 476.145 46.8742L477.559 48.2884C477.498 48.3496 477.453 48.356 477.484 48.347C477.518 48.3373 477.601 48.3213 477.752 48.3213V46.3213ZM476.145 46.8742C475.686 47.3333 475.592 47.9716 475.592 48.4813H477.592C477.592 48.3301 477.608 48.2475 477.618 48.2138C477.627 48.1827 477.62 48.2272 477.559 48.2884L476.145 46.8742ZM475.592 48.4813V52.0013H477.592V48.4813H475.592ZM475.592 52.0013C475.592 52.511 475.686 53.1493 476.145 53.6084L477.559 52.1942C477.62 52.2554 477.627 52.2999 477.618 52.2688C477.608 52.2351 477.592 52.1525 477.592 52.0013H475.592ZM476.145 53.6084C476.604 54.0675 477.242 54.1613 477.752 54.1613V52.1613C477.601 52.1613 477.518 52.1453 477.484 52.1356C477.453 52.1266 477.498 52.133 477.559 52.1942L476.145 53.6084ZM483.788 54.9213L484.656 55.4174L484.664 55.4027L484.672 55.3877L483.788 54.9213ZM486.308 50.1413L487.192 50.6077L487.443 50.1312L487.184 49.6592L486.308 50.1413ZM483.788 45.5613L482.885 45.9912L482.897 46.0177L482.912 46.0434L483.788 45.5613ZM486.688 45.5613L485.739 45.8775L485.75 45.9113L485.764 45.9442L486.688 45.5613ZM487.948 48.6013L487.024 48.9842L487.28 49.6013H487.948V48.6013ZM488.028 48.6013V49.6013H488.729L488.968 48.9416L488.028 48.6013ZM489.128 45.5613L490.068 45.9016L490.072 45.8896L490.076 45.8775L489.128 45.5613ZM492.008 45.5613L491.157 45.035L491.139 45.0654L491.122 45.0972L492.008 45.5613ZM489.608 50.1413L488.722 49.6772L488.475 50.1483L488.728 50.6163L489.608 50.1413ZM492.188 54.9213L491.308 55.3963L491.313 55.407L492.188 54.9213ZM492.208 55.2213L491.376 54.6666L491.341 54.7184L491.313 54.7741L492.208 55.2213ZM489.288 54.9213L488.363 55.3021L488.366 55.3087L488.369 55.3152L489.288 54.9213ZM488.028 51.8613L488.952 51.4806L488.697 50.8613H488.028V51.8613ZM487.948 51.8613V50.8613H487.278L487.023 51.4806L487.948 51.8613ZM486.688 54.9213L485.763 54.5406L485.75 54.5724L485.739 54.6051L486.688 54.9213ZM486.088 54.3413H484.068V56.3413H486.088V54.3413ZM484.068 54.3413C484.038 54.3413 484.079 54.337 484.158 54.3621C484.24 54.3881 484.427 54.4681 484.57 54.6816C484.72 54.9068 484.723 55.1341 484.703 55.2618C484.685 55.3738 484.648 55.4312 484.656 55.4174L482.919 54.4252C482.823 54.5942 482.509 55.1959 482.906 55.791C483.095 56.0745 483.36 56.207 483.552 56.268C483.741 56.3281 483.924 56.3413 484.068 56.3413V54.3413ZM484.672 55.3877L487.192 50.6077L485.423 49.675L482.903 54.455L484.672 55.3877ZM487.184 49.6592L484.664 45.0792L482.912 46.0434L485.432 50.6234L487.184 49.6592ZM484.691 45.1314C484.684 45.117 484.708 45.162 484.72 45.2516C484.732 45.3471 484.733 45.5376 484.616 45.7424C484.495 45.9545 484.317 46.0595 484.199 46.1039C484.143 46.1249 484.098 46.1336 484.072 46.1374C484.046 46.1413 484.03 46.1413 484.028 46.1413V44.1413C483.815 44.1413 483.206 44.1781 482.879 44.7502C482.574 45.284 482.799 45.8116 482.885 45.9912L484.691 45.1314ZM484.028 46.1413H486.068V44.1413H484.028V46.1413ZM486.068 46.1413C486.084 46.1413 486.005 46.1442 485.902 46.0742C485.792 45.9995 485.749 45.9067 485.739 45.8775L487.636 45.2451C487.533 44.9359 487.34 44.6331 487.024 44.4184C486.714 44.2084 486.372 44.1413 486.068 44.1413V46.1413ZM485.764 45.9442L487.024 48.9842L488.871 48.2184L487.611 45.1784L485.764 45.9442ZM487.948 49.6013H488.028V47.6013H487.948V49.6013ZM488.968 48.9416L490.068 45.9016L488.187 45.2211L487.087 48.2611L488.968 48.9416ZM490.076 45.8775C490.067 45.9067 490.024 45.9995 489.914 46.0742C489.81 46.1442 489.732 46.1413 489.748 46.1413V44.1413C489.444 44.1413 489.102 44.2084 488.792 44.4184C488.475 44.6331 488.282 44.9359 488.179 45.2451L490.076 45.8775ZM489.748 46.1413H491.748V44.1413H489.748V46.1413ZM491.748 46.1413C491.779 46.1413 491.734 46.1458 491.651 46.1191C491.566 46.0915 491.366 46.0047 491.222 45.7727C491.073 45.5308 491.085 45.2952 491.11 45.1755C491.132 45.0688 491.169 45.017 491.157 45.035L492.858 46.0877C492.933 45.9656 493.025 45.7914 493.068 45.5796C493.115 45.3549 493.116 45.0319 492.923 44.72C492.736 44.4179 492.46 44.2786 492.266 44.216C492.075 44.1543 491.89 44.1413 491.748 44.1413V46.1413ZM491.122 45.0972L488.722 49.6772L490.493 50.6055L492.893 46.0255L491.122 45.0972ZM488.728 50.6163L491.308 55.3963L493.068 54.4463L490.488 49.6663L488.728 50.6163ZM491.313 55.407C491.3 55.383 491.254 55.2938 491.245 55.1528C491.234 54.9932 491.275 54.818 491.376 54.6666L493.04 55.776C493.385 55.2579 493.222 54.7244 493.062 54.4357L491.313 55.407ZM491.313 54.7741C491.402 54.5968 491.546 54.4716 491.694 54.4033C491.823 54.3436 491.923 54.3413 491.948 54.3413V56.3413C492.252 56.3413 492.816 56.2401 493.102 55.6685L491.313 54.7741ZM491.948 54.3413H489.888V56.3413H491.948V54.3413ZM489.888 54.3413C489.922 54.3413 490.009 54.3527 490.101 54.4171C490.187 54.4775 490.212 54.5384 490.207 54.5274L488.369 55.3152C488.484 55.5842 488.668 55.8551 488.954 56.0555C489.246 56.2599 489.574 56.3413 489.888 56.3413V54.3413ZM490.212 54.5406L488.952 51.4806L487.103 52.2421L488.363 55.3021L490.212 54.5406ZM488.028 50.8613H487.948V52.8613H488.028V50.8613ZM487.023 51.4806L485.763 54.5406L487.612 55.3021L488.872 52.2421L487.023 51.4806ZM485.739 54.6051C485.746 54.5851 485.784 54.4941 485.894 54.4171C486.001 54.3424 486.089 54.3413 486.088 54.3413V56.3413C486.393 56.3413 486.734 56.2702 487.041 56.0555C487.351 55.8385 487.536 55.5375 487.636 55.2375L485.739 54.6051Z" fill="url(#paint2_linear_222_6591)"/>
<path d="M406.065 50.4549V50.0549C406.065 49.7749 406.205 49.6349 406.485 49.6349H408.185C408.465 49.6349 408.605 49.7749 408.605 50.0549V50.2149C408.605 50.7215 408.705 51.0682 408.905 51.2549C409.105 51.4415 409.472 51.5349 410.005 51.5349H410.945C411.465 51.5349 411.825 51.4349 412.025 51.2349C412.238 51.0349 412.345 50.6615 412.345 50.1149V49.8749C412.345 49.4882 412.185 49.1949 411.865 48.9949C411.558 48.7815 411.172 48.6549 410.705 48.6149C410.238 48.5749 409.732 48.5015 409.185 48.3949C408.652 48.2749 408.152 48.1282 407.685 47.9549C407.218 47.7682 406.825 47.4149 406.505 46.8949C406.198 46.3615 406.045 45.6815 406.045 44.8549V44.1549C406.045 43.1149 406.338 42.3082 406.925 41.7349C407.512 41.1615 408.325 40.8749 409.365 40.8749H411.365C412.418 40.8749 413.238 41.1615 413.825 41.7349C414.412 42.3082 414.705 43.1149 414.705 44.1549V44.5349C414.705 44.8149 414.565 44.9549 414.285 44.9549H412.585C412.305 44.9549 412.165 44.8149 412.165 44.5349V44.4149C412.165 43.8949 412.065 43.5415 411.865 43.3549C411.665 43.1682 411.298 43.0749 410.765 43.0749H409.985C409.438 43.0749 409.065 43.1815 408.865 43.3949C408.678 43.5949 408.585 43.9949 408.585 44.5949V44.9749C408.585 45.6015 409.132 45.9615 410.225 46.0549C411.358 46.1482 412.365 46.3749 413.245 46.7349C413.712 46.9349 414.098 47.2949 414.405 47.8149C414.725 48.3215 414.885 48.9749 414.885 49.7749V50.4549C414.885 51.4949 414.592 52.3015 414.005 52.8749C413.418 53.4482 412.605 53.7349 411.565 53.7349H409.385C408.345 53.7349 407.532 53.4482 406.945 52.8749C406.358 52.3015 406.065 51.4949 406.065 50.4549ZM417.186 45.7349H416.386C416.226 45.7349 416.113 45.7082 416.046 45.6549C415.993 45.6015 415.966 45.4949 415.966 45.3349V43.9549C415.966 43.6749 416.106 43.5349 416.386 43.5349H417.186C417.333 43.5349 417.406 43.4615 417.406 43.3149V41.4149C417.406 41.1349 417.553 40.9949 417.846 40.9949H419.526C419.806 40.9949 419.946 41.1349 419.946 41.4149V43.3149C419.946 43.4615 420.026 43.5349 420.186 43.5349H421.746C422.026 43.5349 422.166 43.6749 422.166 43.9549V45.3349C422.166 45.4815 422.133 45.5882 422.066 45.6549C422.013 45.7082 421.906 45.7349 421.746 45.7349H420.186C420.026 45.7349 419.946 45.8082 419.946 45.9549V50.3749C419.946 50.7882 420.04 51.0882 420.226 51.2749C420.413 51.4482 420.72 51.5349 421.146 51.5349H421.946C422.226 51.5349 422.366 51.6749 422.366 51.9549V53.3349C422.366 53.4815 422.333 53.5882 422.266 53.6549C422.213 53.7082 422.106 53.7349 421.946 53.7349H420.726C419.673 53.7349 418.853 53.4549 418.266 52.8949C417.693 52.3349 417.406 51.5349 417.406 50.4949V45.9549C417.406 45.8082 417.333 45.7349 417.186 45.7349ZM427.597 53.7349H427.117C426.064 53.7349 425.25 53.4549 424.677 52.8949C424.104 52.3349 423.817 51.5282 423.817 50.4749V46.7949C423.817 45.7415 424.104 44.9349 424.677 44.3749C425.25 43.8149 426.064 43.5349 427.117 43.5349H431.737C432.03 43.5349 432.177 43.6749 432.177 43.9549V53.3149C432.177 53.5949 432.03 53.7349 431.737 53.7349H430.057C429.777 53.7349 429.637 53.5949 429.637 53.3149V52.6549H429.557C429.41 53.0149 429.15 53.2882 428.777 53.4749C428.404 53.6482 428.01 53.7349 427.597 53.7349ZM429.637 50.0149V45.9549C429.637 45.8082 429.557 45.7349 429.397 45.7349H427.517C427.09 45.7349 426.79 45.8282 426.617 46.0149C426.444 46.1882 426.357 46.4882 426.357 46.9149V50.3549C426.357 50.7815 426.444 51.0882 426.617 51.2749C426.79 51.4482 427.09 51.5349 427.517 51.5349H428.257C429.177 51.5349 429.637 51.0282 429.637 50.0149ZM436.489 53.7349H434.789C434.509 53.7349 434.369 53.5949 434.369 53.3149V43.9549C434.369 43.6749 434.509 43.5349 434.789 43.5349H436.489C436.769 43.5349 436.909 43.6749 436.909 43.9549V44.6349H436.989C437.135 44.2749 437.395 44.0015 437.769 43.8149C438.142 43.6282 438.535 43.5349 438.949 43.5349H439.669C439.935 43.5349 440.069 43.6749 440.069 43.9549V45.3349C440.069 45.4949 440.035 45.6082 439.969 45.6749C439.915 45.7282 439.815 45.7482 439.669 45.7349H438.289C437.369 45.7349 436.909 46.2549 436.909 47.2949V53.3149C436.909 53.5949 436.769 53.7349 436.489 53.7349ZM441.561 45.7349H440.761C440.601 45.7349 440.488 45.7082 440.421 45.6549C440.368 45.6015 440.341 45.4949 440.341 45.3349V43.9549C440.341 43.6749 440.481 43.5349 440.761 43.5349H441.561C441.708 43.5349 441.781 43.4615 441.781 43.3149V41.4149C441.781 41.1349 441.928 40.9949 442.221 40.9949H443.901C444.181 40.9949 444.321 41.1349 444.321 41.4149V43.3149C444.321 43.4615 444.401 43.5349 444.561 43.5349H446.121C446.401 43.5349 446.541 43.6749 446.541 43.9549V45.3349C446.541 45.4815 446.508 45.5882 446.441 45.6549C446.388 45.7082 446.281 45.7349 446.121 45.7349H444.561C444.401 45.7349 444.321 45.8082 444.321 45.9549V50.3749C444.321 50.7882 444.415 51.0882 444.601 51.2749C444.788 51.4482 445.095 51.5349 445.521 51.5349H446.321C446.601 51.5349 446.741 51.6749 446.741 51.9549V53.3349C446.741 53.4815 446.708 53.5882 446.641 53.6549C446.588 53.7082 446.481 53.7349 446.321 53.7349H445.101C444.048 53.7349 443.228 53.4549 442.641 52.8949C442.068 52.3349 441.781 51.5349 441.781 50.4949V45.9549C441.781 45.8082 441.708 45.7349 441.561 45.7349ZM452.252 53.7349H448.452C448.185 53.7349 448.052 53.5949 448.052 53.3149V52.0349C448.052 51.8882 448.079 51.7882 448.132 51.7349C448.185 51.6682 448.292 51.6349 448.452 51.6349H451.792C452.445 51.6349 452.772 51.4349 452.772 51.0349V50.9349C452.772 50.6149 452.499 50.3082 451.952 50.0149L449.972 48.9149C449.292 48.5682 448.792 48.1949 448.472 47.7949C448.152 47.3949 447.992 46.8815 447.992 46.2549C447.992 45.3215 448.239 44.6349 448.732 44.1949C449.225 43.7549 449.999 43.5349 451.052 43.5349H454.392C454.659 43.5349 454.792 43.6749 454.792 43.9549V45.2549C454.792 45.4015 454.765 45.5082 454.712 45.5749C454.659 45.6282 454.552 45.6549 454.392 45.6549H451.612C450.959 45.6549 450.632 45.8215 450.632 46.1549V46.2549C450.632 46.5482 450.919 46.8482 451.492 47.1549L453.512 48.3549C454.205 48.7282 454.692 49.1149 454.972 49.5149C455.252 49.9015 455.392 50.4149 455.392 51.0549C455.392 52.8415 454.345 53.7349 452.252 53.7349ZM464.516 51.6149H466.756C467.196 51.6149 467.509 51.5282 467.696 51.3549C467.896 51.1682 467.996 50.8682 467.996 50.4549V49.2949C467.996 48.8815 467.896 48.5882 467.696 48.4149C467.496 48.2415 467.169 48.1549 466.716 48.1549H464.516C464.369 48.1549 464.296 48.2282 464.296 48.3749V51.3949C464.296 51.5415 464.369 51.6149 464.516 51.6149ZM464.516 46.0949H466.556C466.983 46.0949 467.296 46.0082 467.496 45.8349C467.696 45.6482 467.796 45.3482 467.796 44.9349V44.1549C467.796 43.7415 467.696 43.4482 467.496 43.2749C467.309 43.0882 467.003 42.9949 466.576 42.9949H464.516C464.369 42.9949 464.296 43.0682 464.296 43.2149V45.8749C464.296 46.0215 464.369 46.0949 464.516 46.0949ZM461.756 53.3149V41.2949C461.756 41.0149 461.896 40.8749 462.176 40.8749H466.976C468.029 40.8749 468.843 41.1549 469.416 41.7149C469.989 42.2749 470.276 43.0749 470.276 44.1149V44.9349C470.276 46.0682 469.749 46.8015 468.696 47.1349C469.229 47.2149 469.656 47.4349 469.976 47.7949C470.296 48.1415 470.456 48.6415 470.456 49.2949V50.4949C470.456 51.5349 470.169 52.3349 469.596 52.8949C469.023 53.4549 468.216 53.7349 467.176 53.7349H462.176C461.896 53.7349 461.756 53.5949 461.756 53.3149ZM477.53 53.7349H475.75C474.696 53.7349 473.883 53.4549 473.31 52.8949C472.736 52.3349 472.45 51.5282 472.45 50.4749V46.7949C472.45 45.7415 472.736 44.9349 473.31 44.3749C473.883 43.8149 474.696 43.5349 475.75 43.5349H477.53C478.57 43.5349 479.376 43.8215 479.95 44.3949C480.536 44.9549 480.83 45.7549 480.83 46.7949V50.4749C480.83 51.5149 480.536 52.3215 479.95 52.8949C479.376 53.4549 478.57 53.7349 477.53 53.7349ZM476.13 51.5549H477.15C477.576 51.5549 477.876 51.4682 478.05 51.2949C478.236 51.1215 478.33 50.8215 478.33 50.3949V46.8749C478.33 46.4482 478.236 46.1482 478.05 45.9749C477.876 45.8015 477.576 45.7149 477.15 45.7149H476.13C475.703 45.7149 475.403 45.8015 475.23 45.9749C475.056 46.1482 474.97 46.4482 474.97 46.8749V50.3949C474.97 50.8215 475.056 51.1215 475.23 51.2949C475.403 51.4682 475.703 51.5549 476.13 51.5549ZM484.466 53.7349H482.446C482.099 53.7349 482.006 53.5949 482.166 53.3149L484.686 48.5349L482.166 43.9549C482.032 43.6749 482.112 43.5349 482.406 43.5349H484.446C484.766 43.5349 484.972 43.6749 485.066 43.9549L486.326 46.9949H486.406L487.506 43.9549C487.599 43.6749 487.806 43.5349 488.126 43.5349H490.126C490.472 43.5349 490.559 43.6749 490.386 43.9549L487.986 48.5349L490.566 53.3149C490.632 53.4349 490.639 53.5349 490.586 53.6149C490.546 53.6949 490.459 53.7349 490.326 53.7349H488.266C487.986 53.7349 487.786 53.5949 487.666 53.3149L486.406 50.2549H486.326L485.066 53.3149C484.972 53.5949 484.772 53.7349 484.466 53.7349Z" fill="white"/>
<g filter="url(#filter2_d_222_6591)">
<rect width="22.544" height="22.544" transform="matrix(0.708797 0.705413 -0.708797 0.705413 587.949 31.9155)" fill="#D900FE"/>
<rect y="0.705413" width="21.544" height="21.544" transform="matrix(0.708797 0.705413 -0.708797 0.705413 588.449 32.1233)" stroke="url(#paint3_linear_222_6591)"/>
</g>
<path d="M157.679 93.7012H199.691C202.894 93.7012 205.491 96.2979 205.491 99.5012V130.732C205.491 139.944 198.023 147.412 188.811 147.412H168.559C159.347 147.412 151.879 139.944 151.879 130.732V99.5012C151.879 96.2979 154.476 93.7012 157.679 93.7012Z" fill="#EA6DFF" stroke="url(#paint4_linear_222_6591)" stroke-width="2"/>
<path d="M91.1682 93.7012H133.18C136.384 93.7012 138.98 96.2979 138.98 99.5012V130.732C138.98 139.944 131.512 147.412 122.3 147.412H102.048C92.836 147.412 85.3682 139.944 85.3682 130.732V99.5012C85.3682 96.2979 87.9649 93.7012 91.1682 93.7012Z" fill="#EA6DFF" stroke="url(#paint5_linear_222_6591)" stroke-width="2"/>
<path d="M124.975 93.7012H166.987C170.19 93.7012 172.787 96.2979 172.787 99.5012V142.748C172.787 151.96 165.319 159.428 156.107 159.428H135.855C126.643 159.428 119.175 151.96 119.175 142.748V99.5012C119.175 96.2979 121.772 93.7012 124.975 93.7012Z" fill="#D900FE" stroke="url(#paint6_linear_222_6591)" stroke-width="2"/>
<path d="M119.356 71.9484C119.356 79.844 112.968 86.2416 105.09 86.2416C97.213 86.2416 90.8242 79.844 90.8242 71.9484C90.8242 64.0529 97.213 57.6553 105.09 57.6553C112.968 57.6553 119.356 64.0529 119.356 71.9484Z" fill="#EA6DFF" stroke="url(#paint7_linear_222_6591)" stroke-width="2"/>
<path d="M200.049 71.9484C200.049 79.844 193.66 86.2416 185.783 86.2416C177.905 86.2416 171.517 79.844 171.517 71.9484C171.517 64.0529 177.905 57.6553 185.783 57.6553C193.66 57.6553 200.049 64.0529 200.049 71.9484Z" fill="#EA6DFF" stroke="url(#paint8_linear_222_6591)" stroke-width="2"/>
<path d="M162.975 69.217C162.975 78.6208 155.365 86.2411 145.982 86.2411C136.6 86.2411 128.99 78.6208 128.99 69.217C128.99 59.8131 136.6 52.1929 145.982 52.1929C155.365 52.1929 162.975 59.8131 162.975 69.217Z" fill="#D900FE" stroke="url(#paint9_linear_222_6591)" stroke-width="2"/>
<defs>
<filter id="filter0_d_222_6591" x="0" y="0.425781" width="645" height="411.574" filterUnits="userSpaceOnUse" color-interpolation-filters="sRGB">
<feFlood flood-opacity="0" result="BackgroundImageFix"/>
<feColorMatrix in="SourceAlpha" type="matrix" values="0 0 0 0 0 0 0 0 0 0 0 0 0 0 0 0 0 0 127 0" result="hardAlpha"/>
<feOffset/>
<feGaussianBlur stdDeviation="4.5"/>
<feComposite in2="hardAlpha" operator="out"/>
<feColorMatrix type="matrix" values="0 0 0 0 0.85098 0 0 0 0 0 0 0 0 0 0.996078 0 0 0 0.15 0"/>
<feBlend mode="normal" in2="BackgroundImageFix" result="effect1_dropShadow_222_6591"/>
<feBlend mode="normal" in="SourceGraphic" in2="effect1_dropShadow_222_6591" result="shape"/>
</filter>
<filter id="filter1_f_222_6591" x="97.2668" y="174.972" width="93.6286" height="22.28" filterUnits="userSpaceOnUse" color-interpolation-filters="sRGB">
<feFlood flood-opacity="0" result="BackgroundImageFix"/>
<feBlend mode="normal" in="SourceGraphic" in2="BackgroundImageFix" result="shape"/>
<feGaussianBlur stdDeviation="3.97404" result="effect1_foregroundBlur_222_6591"/>
</filter>
<filter id="filter2_d_222_6591" x="567.97" y="31.9155" width="39.959" height="39.8057" filterUnits="userSpaceOnUse" color-interpolation-filters="sRGB">
<feFlood flood-opacity="0" result="BackgroundImageFix"/>
<feColorMatrix in="SourceAlpha" type="matrix" values="0 0 0 0 0 0 0 0 0 0 0 0 0 0 0 0 0 0 127 0" result="hardAlpha"/>
<feOffset dy="4"/>
<feGaussianBlur stdDeviation="2"/>
<feComposite in2="hardAlpha" operator="out"/>
<feColorMatrix type="matrix" values="0 0 0 0 0.85098 0 0 0 0 0 0 0 0 0 0.996078 0 0 0 1 0"/>
<feBlend mode="normal" in2="BackgroundImageFix" result="effect1_dropShadow_222_6591"/>
<feBlend mode="normal" in="SourceGraphic" in2="effect1_dropShadow_222_6591" result="shape"/>
</filter>
<radialGradient id="paint0_radial_222_6591" cx="0" cy="0" r="1" gradientUnits="userSpaceOnUse" gradientTransform="translate(110.079 377.553) scale(788.417 692.353)">
<stop stop-color="#92DDFF"/>
<stop offset="1"/>
</radialGradient>
<linearGradient id="paint1_linear_222_6591" x1="322.5" y1="3" x2="322.5" y2="394.968" gradientUnits="userSpaceOnUse">
<stop stop-color="#FC8AFF"/>
<stop offset="1" stop-color="#FC8AFF" stop-opacity="0"/>
</linearGradient>
<linearGradient id="paint2_linear_222_6591" x1="406.707" y1="39.4322" x2="426.193" y2="98.0877" gradientUnits="userSpaceOnUse">
<stop stop-color="white"/>
<stop offset="0.255208" stop-color="white" stop-opacity="0"/>
<stop offset="0.505208" stop-color="white"/>
<stop offset="0.755208" stop-color="white" stop-opacity="0"/>
<stop offset="1" stop-color="white"/>
</linearGradient>
<linearGradient id="paint3_linear_222_6591" x1="-0.0501935" y1="9.73547" x2="24.3951" y2="8.54301" gradientUnits="userSpaceOnUse">
<stop stop-color="white"/>
<stop offset="1" stop-color="white" stop-opacity="0"/>
</linearGradient>
<linearGradient id="paint4_linear_222_6591" x1="178.685" y1="92.7012" x2="178.685" y2="148.412" gradientUnits="userSpaceOnUse">
<stop stop-color="white"/>
<stop offset="1" stop-color="white" stop-opacity="0"/>
</linearGradient>
<linearGradient id="paint5_linear_222_6591" x1="112.174" y1="92.7012" x2="112.174" y2="148.412" gradientUnits="userSpaceOnUse">
<stop stop-color="white"/>
<stop offset="1" stop-color="white" stop-opacity="0"/>
</linearGradient>
<linearGradient id="paint6_linear_222_6591" x1="145.981" y1="92.7012" x2="145.981" y2="160.428" gradientUnits="userSpaceOnUse">
<stop stop-color="white"/>
<stop offset="1" stop-color="white" stop-opacity="0"/>
</linearGradient>
<linearGradient id="paint7_linear_222_6591" x1="105.09" y1="56.6553" x2="105.09" y2="87.2416" gradientUnits="userSpaceOnUse">
<stop stop-color="white"/>
<stop offset="1" stop-color="white" stop-opacity="0"/>
</linearGradient>
<linearGradient id="paint8_linear_222_6591" x1="185.783" y1="56.6553" x2="185.783" y2="87.2416" gradientUnits="userSpaceOnUse">
<stop stop-color="white"/>
<stop offset="1" stop-color="white" stop-opacity="0"/>
</linearGradient>
<linearGradient id="paint9_linear_222_6591" x1="145.982" y1="51.1929" x2="145.982" y2="87.2411" gradientUnits="userSpaceOnUse">
<stop stop-color="white"/>
<stop offset="1" stop-color="white" stop-opacity="0"/>
</linearGradient>
</defs>
</svg>
