<svg width="639" height="406" viewBox="0 0 639 406" fill="none" xmlns="http://www.w3.org/2000/svg">
<g filter="url(#filter0_d_222_6676)">
<rect x="6" y="6.42578" width="627" height="393.574" rx="13" fill="#E69B00"/>
</g>
<path fill-rule="evenodd" clip-rule="evenodd" d="M6 378.968V382.181C6 389.36 11.8203 395.181 19 395.181H620C627.18 395.181 633 389.36 633 382.181V378.968C633 386.147 627.18 391.968 620 391.968H19C11.8203 391.968 6 386.147 6 378.968Z" fill="url(#paint0_radial_222_6676)" style="mix-blend-mode:screen"/>
<rect x="6" width="627" height="393.574" rx="14" fill="url(#paint1_linear_222_6676)"/>
<g filter="url(#filter1_f_222_6676)">
<ellipse cx="109.01" cy="183.112" rx="38.866" ry="3.192" fill="#B4A78D"/>
</g>
<path d="M407.527 49.8613L406.845 50.5924L406.845 50.5924L407.527 49.8613ZM410.647 49.8413L409.963 49.1118L409.951 49.1228L409.94 49.1342L410.647 49.8413ZM410.487 47.6013L409.916 48.4222L409.936 48.4363L409.957 48.4493L410.487 47.6013ZM409.327 47.2213L409.412 46.225L409.412 46.225L409.327 47.2213ZM407.807 47.0013L407.588 47.9769L407.601 47.9801L407.616 47.9828L407.807 47.0013ZM406.307 46.5613L405.936 47.4898L405.947 47.4944L405.959 47.4987L406.307 46.5613ZM405.127 45.5013L404.26 45.9998L404.268 46.0127L404.275 46.0254L405.127 45.5013ZM405.547 40.3413L406.246 41.0565L406.246 41.0565L405.547 40.3413ZM412.447 40.3413L411.748 41.0565L411.748 41.0565L412.447 40.3413ZM410.487 41.9613L411.169 41.2303L411.169 41.2303L410.487 41.9613ZM407.487 42.0013L406.757 41.3174L406.756 41.319L407.487 42.0013ZM408.847 44.6613L408.762 45.6577L408.765 45.6579L408.847 44.6613ZM411.867 45.3413L412.261 44.4222L412.253 44.4189L412.246 44.4158L411.867 45.3413ZM413.027 46.4213L412.166 46.9293L412.173 46.9424L412.182 46.9553L413.027 46.4213ZM405.567 51.4813L404.868 52.1965L404.868 52.1965L405.567 51.4813ZM405.687 49.0613V48.6613H403.687V49.0613H405.687ZM405.687 48.6613C405.687 48.6755 405.683 48.8697 405.499 49.0534C405.315 49.2371 405.121 49.2413 405.107 49.2413V47.2413C404.813 47.2413 404.409 47.3155 404.085 47.6392C403.761 47.9629 403.687 48.3672 403.687 48.6613H405.687ZM405.107 49.2413H406.807V47.2413H405.107V49.2413ZM406.807 49.2413C406.793 49.2413 406.599 49.2371 406.415 49.0534C406.231 48.8697 406.227 48.6755 406.227 48.6613H408.227C408.227 48.3672 408.153 47.9629 407.829 47.6392C407.505 47.3155 407.101 47.2413 406.807 47.2413V49.2413ZM406.227 48.6613V48.8213H408.227V48.6613H406.227ZM406.227 48.8213C406.227 49.3902 406.326 50.1079 406.845 50.5924L408.209 49.1303C408.277 49.1936 408.278 49.2377 408.263 49.1841C408.247 49.1291 408.227 49.0156 408.227 48.8213H406.227ZM406.845 50.5924C407.341 51.0552 408.05 51.1413 408.627 51.1413V49.1413C408.413 49.1413 408.276 49.1219 408.199 49.1022C408.119 49.0819 408.148 49.0733 408.209 49.1303L406.845 50.5924ZM408.627 51.1413H409.567V49.1413H408.627V51.1413ZM409.567 51.1413C410.151 51.1413 410.861 51.0417 411.354 50.5484L409.94 49.1342C409.995 49.0793 410.025 49.0846 409.959 49.1028C409.893 49.1212 409.769 49.1413 409.567 49.1413V51.1413ZM411.331 50.5708C411.863 50.072 411.967 49.3267 411.967 48.7213H409.967C409.967 48.9364 409.945 49.0674 409.926 49.1366C409.906 49.2047 409.901 49.1697 409.963 49.1118L411.331 50.5708ZM411.967 48.7213V48.4813H409.967V48.7213H411.967ZM411.967 48.4813C411.967 47.7602 411.638 47.1415 411.017 46.7533L409.957 48.4493C409.975 48.4608 409.981 48.4673 409.98 48.4662C409.979 48.4646 409.974 48.459 409.969 48.4502C409.964 48.4414 409.963 48.4361 409.964 48.4378C409.964 48.4403 409.967 48.4536 409.967 48.4813H411.967ZM411.058 46.7804C410.576 46.4447 410.01 46.2762 409.412 46.225L409.242 48.2177C409.578 48.2464 409.785 48.3312 409.916 48.4222L411.058 46.7804ZM409.412 46.225C408.987 46.1885 408.516 46.1209 407.999 46.0198L407.616 47.9828C408.191 48.0951 408.733 48.1741 409.242 48.2177L409.412 46.225ZM408.027 46.0257C407.533 45.9146 407.076 45.7802 406.655 45.6239L405.959 47.4987C406.471 47.6891 407.015 47.848 407.588 47.9769L408.027 46.0257ZM406.678 45.6328C406.451 45.5418 406.211 45.3545 405.979 44.9772L404.275 46.0254C404.683 46.6881 405.23 47.2075 405.936 47.4898L406.678 45.6328ZM405.994 45.0028C405.799 44.6645 405.667 44.171 405.667 43.4613H403.667C403.667 44.405 403.841 45.2714 404.26 45.9998L405.994 45.0028ZM405.667 43.4613V42.7613H403.667V43.4613H405.667ZM405.667 42.7613C405.667 41.9144 405.9 41.3944 406.246 41.0565L404.848 39.6261C404.021 40.4349 403.667 41.5282 403.667 42.7613H405.667ZM406.246 41.0565C406.599 40.7113 407.135 40.4813 407.987 40.4813V38.4813C406.759 38.4813 405.668 38.8247 404.848 39.6261L406.246 41.0565ZM407.987 40.4813H409.987V38.4813H407.987V40.4813ZM409.987 40.4813C410.857 40.4813 411.397 40.7135 411.748 41.0565L413.146 39.6261C412.324 38.8224 411.224 38.4813 409.987 38.4813V40.4813ZM411.748 41.0565C412.094 41.3944 412.327 41.9144 412.327 42.7613H414.327C414.327 41.5282 413.974 40.4349 413.146 39.6261L411.748 41.0565ZM412.327 42.7613V43.1413H414.327V42.7613H412.327ZM412.327 43.1413C412.327 43.1272 412.331 42.9329 412.515 42.7492C412.699 42.5655 412.893 42.5613 412.907 42.5613V44.5613C413.201 44.5613 413.605 44.4871 413.929 44.1634C414.253 43.8397 414.327 43.4355 414.327 43.1413H412.327ZM412.907 42.5613H411.207V44.5613H412.907V42.5613ZM411.207 42.5613C411.221 42.5613 411.415 42.5655 411.599 42.7492C411.783 42.9329 411.787 43.1272 411.787 43.1413H409.787C409.787 43.4355 409.861 43.8397 410.185 44.1634C410.509 44.4871 410.913 44.5613 411.207 44.5613V42.5613ZM411.787 43.1413V43.0213H409.787V43.1413H411.787ZM411.787 43.0213C411.787 42.4486 411.692 41.7182 411.169 41.2303L409.805 42.6924C409.733 42.6255 409.733 42.5793 409.75 42.6386C409.767 42.6984 409.787 42.8185 409.787 43.0213H411.787ZM411.169 41.2303C410.673 40.7674 409.964 40.6813 409.387 40.6813V42.6813C409.602 42.6813 409.738 42.7007 409.815 42.7204C409.895 42.7407 409.866 42.7493 409.805 42.6924L411.169 41.2303ZM409.387 40.6813H408.607V42.6813H409.387V40.6813ZM408.607 40.6813C408.002 40.6813 407.256 40.7852 406.757 41.3174L408.217 42.6852C408.159 42.747 408.124 42.7423 408.192 42.7228C408.261 42.7031 408.392 42.6813 408.607 42.6813V40.6813ZM406.756 41.319C406.498 41.5953 406.371 41.9328 406.303 42.2241C406.233 42.5241 406.207 42.8564 406.207 43.2013H408.207C408.207 42.9462 408.228 42.7785 408.251 42.6785C408.276 42.5699 408.289 42.6073 408.218 42.6836L406.756 41.319ZM406.207 43.2013V43.5813H408.207V43.2013H406.207ZM406.207 43.5813C406.207 44.2486 406.528 44.8014 407.067 45.1565C407.544 45.4704 408.148 45.6053 408.762 45.6577L408.932 43.6649C408.453 43.624 408.237 43.5322 408.167 43.4861C408.144 43.4707 408.163 43.4775 408.184 43.5167C408.207 43.5576 408.207 43.5877 408.207 43.5813H406.207ZM408.765 45.6579C409.816 45.7445 410.719 45.9523 411.488 46.2669L412.246 44.4158C411.255 44.0103 410.145 43.7648 408.929 43.6647L408.765 45.6579ZM411.473 46.2605C411.709 46.3617 411.946 46.5569 412.166 46.9293L413.888 45.9133C413.495 45.2457 412.958 44.7209 412.261 44.4222L411.473 46.2605ZM412.182 46.9553C412.372 47.257 412.507 47.7086 412.507 48.3813H414.507C414.507 47.454 414.322 46.599 413.873 45.8873L412.182 46.9553ZM412.507 48.3813V49.0613H414.507V48.3813H412.507ZM412.507 49.0613C412.507 49.9082 412.274 50.4282 411.928 50.7661L413.326 52.1965C414.154 51.3878 414.507 50.2944 414.507 49.0613H412.507ZM411.928 50.7661C411.575 51.1113 411.039 51.3413 410.187 51.3413V53.3413C411.415 53.3413 412.506 52.9979 413.326 52.1965L411.928 50.7661ZM410.187 51.3413H408.007V53.3413H410.187V51.3413ZM408.007 51.3413C407.155 51.3413 406.619 51.1113 406.266 50.7661L404.868 52.1965C405.688 52.9979 406.779 53.3413 408.007 53.3413V51.3413ZM406.266 50.7661C405.92 50.4282 405.687 49.9082 405.687 49.0613H403.687C403.687 50.2944 404.041 51.3878 404.868 52.1965L406.266 50.7661ZM414.668 44.2613L413.961 44.9684L414 45.0076L414.044 45.0422L414.668 44.2613ZM420.688 44.2613L419.981 43.5542L419.981 43.5542L420.688 44.2613ZM418.848 49.8813L418.141 50.5884L418.154 50.6015L418.168 50.6141L418.848 49.8813ZM420.888 52.2613L421.595 52.9684L421.595 52.9684L420.888 52.2613ZM416.888 51.5013L416.189 52.2167L416.198 52.2247L416.888 51.5013ZM415.808 43.3413H415.008V45.3413H415.808V43.3413ZM415.008 43.3413C414.979 43.3413 414.992 43.3384 415.032 43.3479C415.071 43.3569 415.176 43.387 415.293 43.4804L414.044 45.0422C414.387 45.3168 414.794 45.3413 415.008 45.3413V43.3413ZM415.375 43.5542C415.523 43.7014 415.567 43.8519 415.578 43.8988C415.592 43.9517 415.588 43.973 415.588 43.9413H413.588C413.588 44.0696 413.598 44.2242 413.638 44.3838C413.677 44.5374 413.761 44.7679 413.961 44.9684L415.375 43.5542ZM415.588 43.9413V42.5613H413.588V43.9413H415.588ZM415.588 42.5613C415.588 42.5755 415.584 42.7697 415.4 42.9534C415.217 43.1371 415.022 43.1413 415.008 43.1413V41.1413C414.714 41.1413 414.31 41.2155 413.986 41.5392C413.662 41.8629 413.588 42.2672 413.588 42.5613H415.588ZM415.008 43.1413H415.808V41.1413H415.008V43.1413ZM415.808 43.1413C416.036 43.1413 416.39 43.0838 416.68 42.7934C416.971 42.5031 417.028 42.1488 417.028 41.9213H415.028C415.028 41.8405 415.049 41.5962 415.266 41.3792C415.483 41.1622 415.727 41.1413 415.808 41.1413V43.1413ZM417.028 41.9213V40.0213H415.028V41.9213H417.028ZM417.028 40.0213C417.028 40.0476 417.019 40.248 416.829 40.4297C416.741 40.5133 416.649 40.5583 416.579 40.5805C416.514 40.6013 416.471 40.6013 416.468 40.6013V38.6013C416.179 38.6013 415.776 38.6696 415.448 38.983C415.111 39.3046 415.028 39.715 415.028 40.0213H417.028ZM416.468 40.6013H418.148V38.6013H416.468V40.6013ZM418.148 40.6013C418.134 40.6013 417.94 40.5971 417.756 40.4134C417.572 40.2297 417.568 40.0355 417.568 40.0213H419.568C419.568 39.7272 419.494 39.3229 419.17 38.9992C418.847 38.6755 418.442 38.6013 418.148 38.6013V40.6013ZM417.568 40.0213V41.9213H419.568V40.0213H417.568ZM417.568 41.9213C417.568 42.1722 417.641 42.5376 417.953 42.8235C418.248 43.0942 418.595 43.1413 418.808 43.1413V41.1413C418.862 41.1413 419.089 41.1518 419.304 41.3492C419.536 41.5617 419.568 41.817 419.568 41.9213H417.568ZM418.808 43.1413H420.368V41.1413H418.808V43.1413ZM420.368 43.1413C420.354 43.1413 420.16 43.1371 419.976 42.9534C419.792 42.7697 419.788 42.5755 419.788 42.5613H421.788C421.788 42.2672 421.714 41.8629 421.39 41.5392C421.067 41.2155 420.662 41.1413 420.368 41.1413V43.1413ZM419.788 42.5613V43.9413H421.788V42.5613H419.788ZM419.788 43.9413C419.788 43.9406 419.788 43.9307 419.791 43.9134C419.793 43.896 419.798 43.8683 419.809 43.833C419.831 43.7606 419.881 43.6545 419.981 43.5542L421.395 44.9684C421.731 44.6326 421.788 44.2097 421.788 43.9413H419.788ZM419.981 43.5542C420.128 43.407 420.279 43.3629 420.326 43.3512C420.379 43.3379 420.4 43.3413 420.368 43.3413V45.3413C420.497 45.3413 420.651 45.3314 420.811 45.2915C420.964 45.2531 421.195 45.169 421.395 44.9684L419.981 43.5542ZM420.368 43.3413H418.808V45.3413H420.368V43.3413ZM418.808 43.3413C418.595 43.3413 418.248 43.3884 417.953 43.6592C417.641 43.945 417.568 44.3104 417.568 44.5613H419.568C419.568 44.6656 419.536 44.921 419.304 45.1335C419.089 45.3309 418.862 45.3413 418.808 45.3413V43.3413ZM417.568 44.5613V48.9813H419.568V44.5613H417.568ZM417.568 48.9813C417.568 49.5142 417.684 50.1316 418.141 50.5884L419.555 49.1742C419.597 49.2153 419.601 49.2438 419.593 49.2192C419.584 49.1903 419.568 49.1171 419.568 48.9813H417.568ZM418.168 50.6141C418.63 51.0432 419.248 51.1413 419.768 51.1413V49.1413C419.618 49.1413 419.531 49.1255 419.49 49.114C419.452 49.1032 419.481 49.1037 419.529 49.1485L418.168 50.6141ZM419.768 51.1413H420.568V49.1413H419.768V51.1413ZM420.568 51.1413C420.554 51.1413 420.36 51.1371 420.176 50.9534C419.992 50.7697 419.988 50.5755 419.988 50.5613H421.988C421.988 50.2672 421.914 49.8629 421.59 49.5392C421.267 49.2155 420.862 49.1413 420.568 49.1413V51.1413ZM419.988 50.5613V51.9413H421.988V50.5613H419.988ZM419.988 51.9413C419.988 51.9406 419.988 51.9307 419.991 51.9134C419.993 51.896 419.998 51.8683 420.009 51.833C420.031 51.7606 420.081 51.6545 420.181 51.5542L421.595 52.9684C421.931 52.6326 421.988 52.2097 421.988 51.9413H419.988ZM420.181 51.5542C420.328 51.407 420.479 51.3629 420.526 51.3512C420.579 51.3379 420.6 51.3413 420.568 51.3413V53.3413C420.697 53.3413 420.851 53.3314 421.011 53.2915C421.164 53.2531 421.395 53.169 421.595 52.9684L420.181 51.5542ZM420.568 51.3413H419.348V53.3413H420.568V51.3413ZM419.348 51.3413C418.473 51.3413 417.929 51.1122 417.579 50.778L416.198 52.2247C417.021 53.0105 418.117 53.3413 419.348 53.3413V51.3413ZM417.587 50.7859C417.259 50.4656 417.028 49.9559 417.028 49.1013H415.028C415.028 50.3267 415.371 51.417 416.19 52.2167L417.587 50.7859ZM417.028 49.1013V44.5613H415.028V49.1013H417.028ZM417.028 44.5613C417.028 44.3338 416.971 43.9795 416.68 43.6892C416.39 43.3989 416.036 43.3413 415.808 43.3413V45.3413C415.727 45.3413 415.483 45.3204 415.266 45.1034C415.049 44.8864 415.028 44.6421 415.028 44.5613H417.028ZM423.299 51.5013L423.998 50.7859L423.299 51.5013ZM423.299 42.9813L423.998 43.6967L423.998 43.6967L423.299 42.9813ZM428.259 51.2613H429.259V50.2613H428.259V51.2613ZM428.179 51.2613V50.2613H427.507L427.253 50.884L428.179 51.2613ZM427.399 52.0813L427.82 52.9883L427.833 52.9822L427.846 52.9757L427.399 52.0813ZM425.239 44.6213L425.946 45.3284L425.959 45.3153L425.972 45.3018L425.239 44.6213ZM425.239 49.8813L424.506 50.5618L424.519 50.5753L424.532 50.5884L425.239 49.8813ZM426.219 51.3413H425.739V53.3413H426.219V51.3413ZM425.739 51.3413C424.862 51.3413 424.331 51.1117 423.998 50.7859L422.6 52.2167C423.413 53.011 424.51 53.3413 425.739 53.3413V51.3413ZM423.998 50.7859C423.672 50.4679 423.439 49.9536 423.439 49.0813H421.439C421.439 50.3157 421.779 51.4147 422.6 52.2167L423.998 50.7859ZM423.439 49.0813V45.4013H421.439V49.0813H423.439ZM423.439 45.4013C423.439 44.5291 423.672 44.0147 423.998 43.6967L422.6 42.2659C421.779 43.0679 421.439 44.1669 421.439 45.4013H423.439ZM423.998 43.6967C424.331 43.3709 424.862 43.1413 425.739 43.1413V41.1413C424.51 41.1413 423.413 41.4717 422.6 42.2659L423.998 43.6967ZM425.739 43.1413H430.359V41.1413H425.739V43.1413ZM430.359 43.1413C430.356 43.1413 430.314 43.1413 430.248 43.1205C430.179 43.0983 430.086 43.0533 429.999 42.9697C429.808 42.788 429.799 42.5876 429.799 42.5613H431.799C431.799 42.255 431.716 41.8446 431.38 41.523C431.051 41.2096 430.649 41.1413 430.359 41.1413V43.1413ZM429.799 42.5613V51.9213H431.799V42.5613H429.799ZM429.799 51.9213C429.799 51.895 429.808 51.6946 429.999 51.513C430.086 51.4293 430.179 51.3843 430.248 51.3621C430.314 51.3413 430.356 51.3413 430.359 51.3413V53.3413C430.649 53.3413 431.051 53.273 431.38 52.9597C431.716 52.638 431.799 52.2276 431.799 51.9213H429.799ZM430.359 51.3413H428.679V53.3413H430.359V51.3413ZM428.679 51.3413C428.693 51.3413 428.887 51.3455 429.071 51.5292C429.255 51.7129 429.259 51.9072 429.259 51.9213H427.259C427.259 52.2155 427.333 52.6197 427.657 52.9434C427.981 53.2671 428.385 53.3413 428.679 53.3413V51.3413ZM429.259 51.9213V51.2613H427.259V51.9213H429.259ZM428.259 50.2613H428.179V52.2613H428.259V50.2613ZM427.253 50.884C427.205 51.0019 427.125 51.1001 426.952 51.1869L427.846 52.9757C428.419 52.6892 428.86 52.2407 429.105 51.6386L427.253 50.884ZM426.978 51.1743C426.737 51.2861 426.488 51.3413 426.219 51.3413V53.3413C426.777 53.3413 427.314 53.2232 427.82 52.9883L426.978 51.1743ZM429.259 48.6213V44.5613H427.259V48.6213H429.259ZM429.259 44.5613C429.259 44.3104 429.187 43.945 428.875 43.6592C428.579 43.3884 428.233 43.3413 428.019 43.3413V45.3413C427.965 45.3413 427.739 45.3309 427.523 45.1335C427.292 44.921 427.259 44.6656 427.259 44.5613H429.259ZM428.019 43.3413H426.139V45.3413H428.019V43.3413ZM426.139 43.3413C425.613 43.3413 424.963 43.4485 424.506 43.9409L425.972 45.3018C425.915 45.363 425.869 45.373 425.891 45.3662C425.917 45.358 425.993 45.3413 426.139 45.3413V43.3413ZM424.532 43.9142C424.073 44.3733 423.979 45.0116 423.979 45.5213H425.979C425.979 45.3701 425.995 45.2875 426.005 45.2538C426.014 45.2227 426.007 45.2672 425.946 45.3284L424.532 43.9142ZM423.979 45.5213V48.9613H425.979V45.5213H423.979ZM423.979 48.9613C423.979 49.4814 424.077 50.0997 424.506 50.5618L425.972 49.2009C426.017 49.2491 426.017 49.2777 426.006 49.2394C425.995 49.1986 425.979 49.1117 425.979 48.9613H423.979ZM424.532 50.5884C424.991 51.0475 425.629 51.1413 426.139 51.1413V49.1413C425.988 49.1413 425.905 49.1253 425.872 49.1156C425.84 49.1066 425.885 49.113 425.946 49.1742L424.532 50.5884ZM426.139 51.1413H426.879V49.1413H426.139V51.1413ZM426.879 51.1413C427.519 51.1413 428.176 50.9605 428.654 50.4335C429.116 49.9248 429.259 49.2595 429.259 48.6213H427.259C427.259 48.8022 427.238 48.9223 427.216 48.9967C427.194 49.0673 427.174 49.0886 427.174 49.0891C427.173 49.0903 427.172 49.0914 427.169 49.0933C427.166 49.0953 427.156 49.1008 427.138 49.1076C427.1 49.1216 427.02 49.1413 426.879 49.1413V51.1413ZM435.531 43.2413H434.531V44.2413H435.531V43.2413ZM435.611 43.2413V44.2413H436.283L436.537 43.6186L435.611 43.2413ZM436.391 42.4213L436.838 43.3157L436.838 43.3157L436.391 42.4213ZM438.591 44.2813L437.884 43.5742L437.884 43.5742L438.591 44.2813ZM438.291 44.3413L438.381 43.3454L438.336 43.3413H438.291V44.3413ZM435.111 51.3413H433.411V53.3413H435.111V51.3413ZM433.411 51.3413C433.425 51.3413 433.619 51.3455 433.803 51.5292C433.986 51.7129 433.991 51.9072 433.991 51.9213H431.991C431.991 52.2155 432.065 52.6197 432.389 52.9434C432.712 53.2671 433.116 53.3413 433.411 53.3413V51.3413ZM433.991 51.9213V42.5613H431.991V51.9213H433.991ZM433.991 42.5613C433.991 42.5755 433.986 42.7697 433.803 42.9534C433.619 43.1371 433.425 43.1413 433.411 43.1413V41.1413C433.116 41.1413 432.712 41.2155 432.389 41.5392C432.065 41.8629 431.991 42.2672 431.991 42.5613H433.991ZM433.411 43.1413H435.111V41.1413H433.411V43.1413ZM435.111 43.1413C435.096 43.1413 434.902 43.1371 434.719 42.9534C434.535 42.7697 434.531 42.5755 434.531 42.5613H436.531C436.531 42.2672 436.456 41.8629 436.133 41.5392C435.809 41.2155 435.405 41.1413 435.111 41.1413V43.1413ZM434.531 42.5613V43.2413H436.531V42.5613H434.531ZM435.531 44.2413H435.611V42.2413H435.531V44.2413ZM436.537 43.6186C436.585 43.5007 436.664 43.4025 436.838 43.3157L435.943 41.5269C435.37 41.8134 434.93 42.2619 434.685 42.864L436.537 43.6186ZM436.838 43.3157C437.074 43.1978 437.314 43.1413 437.571 43.1413V41.1413C437 41.1413 436.454 41.2715 435.943 41.5269L436.838 43.3157ZM437.571 43.1413H438.291V41.1413H437.571V43.1413ZM438.291 43.1413C438.257 43.1413 438.051 43.13 437.866 42.936C437.69 42.751 437.691 42.5636 437.691 42.5613H439.691C439.691 42.279 439.624 41.8816 439.315 41.5567C438.997 41.2226 438.591 41.1413 438.291 41.1413V43.1413ZM437.691 42.5613V43.9413H439.691V42.5613H437.691ZM437.691 43.9413C437.691 43.9572 437.688 43.925 437.706 43.8641C437.725 43.8002 437.772 43.6855 437.884 43.5742L439.298 44.9884C439.647 44.6396 439.691 44.1931 439.691 43.9413H437.691ZM437.884 43.5742C438.038 43.42 438.202 43.3712 438.28 43.3557C438.355 43.3405 438.397 43.3469 438.381 43.3454L438.2 45.3372C438.388 45.3543 438.904 45.3822 439.298 44.9884L437.884 43.5742ZM438.291 43.3413H436.911V45.3413H438.291V43.3413ZM436.911 43.3413C436.263 43.3413 435.603 43.5301 435.127 44.0687C434.671 44.584 434.531 45.2553 434.531 45.9013H436.531C436.531 45.5073 436.62 45.3986 436.625 45.3939C436.625 45.3934 436.63 45.3858 436.659 45.3746C436.695 45.3611 436.772 45.3413 436.911 45.3413V43.3413ZM434.531 45.9013V51.9213H436.531V45.9013H434.531ZM434.531 51.9213C434.531 51.9072 434.535 51.7129 434.719 51.5292C434.902 51.3455 435.096 51.3413 435.111 51.3413V53.3413C435.405 53.3413 435.809 53.2671 436.133 52.9434C436.456 52.6197 436.531 52.2155 436.531 51.9213H434.531ZM439.043 44.2613L438.336 44.9684L438.375 45.0076L438.419 45.0422L439.043 44.2613ZM445.063 44.2613L444.356 43.5542L444.356 43.5542L445.063 44.2613ZM443.223 49.8813L442.516 50.5884L442.529 50.6015L442.543 50.6141L443.223 49.8813ZM445.263 52.2613L445.97 52.9684L445.97 52.9684L445.263 52.2613ZM441.263 51.5013L440.564 52.2167L440.573 52.2247L441.263 51.5013ZM440.183 43.3413H439.383V45.3413H440.183V43.3413ZM439.383 43.3413C439.354 43.3413 439.367 43.3384 439.407 43.3479C439.446 43.3569 439.551 43.387 439.668 43.4804L438.419 45.0422C438.762 45.3168 439.169 45.3413 439.383 45.3413V43.3413ZM439.75 43.5542C439.898 43.7014 439.942 43.8519 439.953 43.8988C439.967 43.9517 439.963 43.973 439.963 43.9413H437.963C437.963 44.0696 437.973 44.2242 438.013 44.3838C438.052 44.5374 438.136 44.7679 438.336 44.9684L439.75 43.5542ZM439.963 43.9413V42.5613H437.963V43.9413H439.963ZM439.963 42.5613C439.963 42.5755 439.959 42.7697 439.775 42.9534C439.592 43.1371 439.397 43.1413 439.383 43.1413V41.1413C439.089 41.1413 438.685 41.2155 438.361 41.5392C438.037 41.8629 437.963 42.2672 437.963 42.5613H439.963ZM439.383 43.1413H440.183V41.1413H439.383V43.1413ZM440.183 43.1413C440.411 43.1413 440.765 43.0838 441.055 42.7934C441.346 42.5031 441.403 42.1488 441.403 41.9213H439.403C439.403 41.8405 439.424 41.5962 439.641 41.3792C439.858 41.1622 440.102 41.1413 440.183 41.1413V43.1413ZM441.403 41.9213V40.0213H439.403V41.9213H441.403ZM441.403 40.0213C441.403 40.0476 441.394 40.248 441.204 40.4297C441.116 40.5133 441.024 40.5583 440.954 40.5805C440.889 40.6013 440.846 40.6013 440.843 40.6013V38.6013C440.554 38.6013 440.151 38.6696 439.823 38.983C439.486 39.3046 439.403 39.715 439.403 40.0213H441.403ZM440.843 40.6013H442.523V38.6013H440.843V40.6013ZM442.523 40.6013C442.509 40.6013 442.315 40.5971 442.131 40.4134C441.947 40.2297 441.943 40.0355 441.943 40.0213H443.943C443.943 39.7272 443.869 39.3229 443.545 38.9992C443.222 38.6755 442.817 38.6013 442.523 38.6013V40.6013ZM441.943 40.0213V41.9213H443.943V40.0213H441.943ZM441.943 41.9213C441.943 42.1722 442.016 42.5376 442.328 42.8235C442.623 43.0942 442.97 43.1413 443.183 43.1413V41.1413C443.237 41.1413 443.464 41.1518 443.679 41.3492C443.911 41.5617 443.943 41.817 443.943 41.9213H441.943ZM443.183 43.1413H444.743V41.1413H443.183V43.1413ZM444.743 43.1413C444.729 43.1413 444.535 43.1371 444.351 42.9534C444.167 42.7697 444.163 42.5755 444.163 42.5613H446.163C446.163 42.2672 446.089 41.8629 445.765 41.5392C445.442 41.2155 445.037 41.1413 444.743 41.1413V43.1413ZM444.163 42.5613V43.9413H446.163V42.5613H444.163ZM444.163 43.9413C444.163 43.9406 444.163 43.9307 444.166 43.9134C444.168 43.896 444.173 43.8683 444.184 43.833C444.206 43.7606 444.256 43.6545 444.356 43.5542L445.77 44.9684C446.106 44.6326 446.163 44.2097 446.163 43.9413H444.163ZM444.356 43.5542C444.503 43.407 444.654 43.3629 444.701 43.3512C444.754 43.3379 444.775 43.3413 444.743 43.3413V45.3413C444.872 45.3413 445.026 45.3314 445.186 45.2915C445.339 45.2531 445.57 45.169 445.77 44.9684L444.356 43.5542ZM444.743 43.3413H443.183V45.3413H444.743V43.3413ZM443.183 43.3413C442.97 43.3413 442.623 43.3884 442.328 43.6592C442.016 43.945 441.943 44.3104 441.943 44.5613H443.943C443.943 44.6656 443.911 44.921 443.679 45.1335C443.464 45.3309 443.237 45.3413 443.183 45.3413V43.3413ZM441.943 44.5613V48.9813H443.943V44.5613H441.943ZM441.943 48.9813C441.943 49.5142 442.059 50.1316 442.516 50.5884L443.93 49.1742C443.972 49.2153 443.976 49.2438 443.968 49.2192C443.959 49.1903 443.943 49.1171 443.943 48.9813H441.943ZM442.543 50.6141C443.005 51.0432 443.623 51.1413 444.143 51.1413V49.1413C443.993 49.1413 443.906 49.1255 443.865 49.114C443.827 49.1032 443.856 49.1037 443.904 49.1485L442.543 50.6141ZM444.143 51.1413H444.943V49.1413H444.143V51.1413ZM444.943 51.1413C444.929 51.1413 444.735 51.1371 444.551 50.9534C444.367 50.7697 444.363 50.5755 444.363 50.5613H446.363C446.363 50.2672 446.289 49.8629 445.965 49.5392C445.642 49.2155 445.237 49.1413 444.943 49.1413V51.1413ZM444.363 50.5613V51.9413H446.363V50.5613H444.363ZM444.363 51.9413C444.363 51.9406 444.363 51.9307 444.366 51.9134C444.368 51.896 444.373 51.8683 444.384 51.833C444.406 51.7606 444.456 51.6545 444.556 51.5542L445.97 52.9684C446.306 52.6326 446.363 52.2097 446.363 51.9413H444.363ZM444.556 51.5542C444.703 51.407 444.854 51.3629 444.901 51.3512C444.954 51.3379 444.975 51.3413 444.943 51.3413V53.3413C445.072 53.3413 445.226 53.3314 445.386 53.2915C445.539 53.2531 445.77 53.169 445.97 52.9684L444.556 51.5542ZM444.943 51.3413H443.723V53.3413H444.943V51.3413ZM443.723 51.3413C442.848 51.3413 442.304 51.1122 441.954 50.778L440.573 52.2247C441.396 53.0105 442.492 53.3413 443.723 53.3413V51.3413ZM441.962 50.7859C441.634 50.4656 441.403 49.9559 441.403 49.1013H439.403C439.403 50.3267 439.746 51.417 440.565 52.2167L441.962 50.7859ZM441.403 49.1013V44.5613H439.403V49.1013H441.403ZM441.403 44.5613C441.403 44.3338 441.346 43.9795 441.055 43.6892C440.765 43.3989 440.411 43.3413 440.183 43.3413V45.3413C440.102 45.3413 439.858 45.3204 439.641 45.1034C439.424 44.8864 439.403 44.6421 439.403 44.5613H441.403ZM446.754 50.3413L447.461 51.0484L447.5 51.0093L447.535 50.966L446.754 50.3413ZM450.574 48.6213L450.088 49.4955L450.095 49.499L450.101 49.5025L450.574 48.6213ZM448.594 47.5213L449.08 46.6472L449.064 46.6385L449.048 46.6304L448.594 47.5213ZM447.094 46.4013L447.875 45.7766L447.875 45.7766L447.094 46.4013ZM447.354 42.8013L448.02 43.5476L448.02 43.5476L447.354 42.8013ZM453.334 44.1813L454.041 44.8884L454.08 44.8493L454.115 44.806L453.334 44.1813ZM450.114 45.7613L450.625 44.9016L450.606 44.8901L450.586 44.8795L450.114 45.7613ZM452.134 46.9613L451.623 47.821L451.641 47.8318L451.66 47.8418L452.134 46.9613ZM453.594 48.1213L452.775 48.6948L452.779 48.7013L452.784 48.7078L453.594 48.1213ZM450.874 51.3413H447.074V53.3413H450.874V51.3413ZM447.074 51.3413C447.108 51.3413 447.313 51.3526 447.498 51.5467C447.674 51.7316 447.674 51.919 447.674 51.9213H445.674C445.674 52.2036 445.74 52.601 446.05 52.926C446.368 53.26 446.774 53.3413 447.074 53.3413V51.3413ZM447.674 51.9213V50.6413H445.674V51.9213H447.674ZM447.674 50.6413C447.674 50.6219 447.677 50.6531 447.66 50.714C447.644 50.7734 447.597 50.9128 447.461 51.0484L446.047 49.6342C445.693 49.988 445.674 50.4499 445.674 50.6413H447.674ZM447.535 50.966C447.404 51.1297 447.251 51.1962 447.172 51.2208C447.097 51.2442 447.055 51.2413 447.074 51.2413V49.2413C446.857 49.2413 446.33 49.2709 445.973 49.7166L447.535 50.966ZM447.074 51.2413H450.414V49.2413H447.074V51.2413ZM450.414 51.2413C450.81 51.2413 451.275 51.1865 451.671 50.9442C452.147 50.6528 452.394 50.1706 452.394 49.6413H450.394C450.394 49.6029 450.403 49.5206 450.455 49.4256C450.507 49.3287 450.578 49.2686 450.627 49.2385C450.67 49.2123 450.684 49.2155 450.643 49.224C450.603 49.2322 450.529 49.2413 450.414 49.2413V51.2413ZM452.394 49.6413V49.5413H450.394V49.6413H452.394ZM452.394 49.5413C452.394 48.6074 451.62 48.0479 451.047 47.7401L450.101 49.5025C450.206 49.5585 450.284 49.6085 450.342 49.6508C450.401 49.6936 450.431 49.7232 450.443 49.7367C450.454 49.7498 450.442 49.7395 450.426 49.7036C450.409 49.6646 450.394 49.6081 450.394 49.5413H452.394ZM451.06 47.7472L449.08 46.6472L448.108 48.3955L450.088 49.4955L451.06 47.7472ZM449.048 46.6304C448.438 46.3194 448.074 46.025 447.875 45.7766L446.313 47.026C446.755 47.5776 447.39 48.0299 448.14 48.4122L449.048 46.6304ZM447.875 45.7766C447.726 45.5908 447.614 45.3132 447.614 44.8613H445.614C445.614 45.6628 445.822 46.4118 446.313 47.026L447.875 45.7766ZM447.614 44.8613C447.614 44.092 447.815 43.73 448.02 43.5476L446.688 42.055C445.906 42.7526 445.614 43.7639 445.614 44.8613H447.614ZM448.02 43.5476C448.248 43.3441 448.728 43.1413 449.674 43.1413V41.1413C448.513 41.1413 447.447 41.3785 446.688 42.055L448.02 43.5476ZM449.674 43.1413H453.014V41.1413H449.674V43.1413ZM453.014 43.1413C452.98 43.1413 452.775 43.13 452.59 42.936C452.414 42.751 452.414 42.5636 452.414 42.5613H454.414C454.414 42.279 454.348 41.8816 454.038 41.5567C453.72 41.2226 453.314 41.1413 453.014 41.1413V43.1413ZM452.414 42.5613V43.8613H454.414V42.5613H452.414ZM452.414 43.8613C452.414 43.8782 452.412 43.8561 452.424 43.8088C452.436 43.7612 452.468 43.663 452.553 43.5566L454.115 44.806C454.381 44.4736 454.414 44.0875 454.414 43.8613H452.414ZM452.627 43.4742C452.774 43.327 452.925 43.2829 452.972 43.2712C453.024 43.2579 453.046 43.2613 453.014 43.2613V45.2613C453.142 45.2613 453.297 45.2514 453.457 45.2115C453.61 45.1731 453.841 45.089 454.041 44.8884L452.627 43.4742ZM453.014 43.2613H450.234V45.2613H453.014V43.2613ZM450.234 43.2613C449.855 43.2613 449.419 43.3043 449.045 43.4955C448.843 43.5985 448.634 43.7572 448.478 43.9956C448.319 44.2393 448.254 44.5071 448.254 44.7613H450.254C450.254 44.8489 450.23 44.9709 450.152 45.0895C450.078 45.2029 449.992 45.2574 449.954 45.2771C449.919 45.2945 449.917 45.2879 449.973 45.2784C450.026 45.2694 450.111 45.2613 450.234 45.2613V43.2613ZM448.254 44.7613V44.8613H450.254V44.7613H448.254ZM448.254 44.8613C448.254 45.3555 448.499 45.7386 448.746 45.9972C448.992 46.2543 449.309 46.4648 449.642 46.6431L450.586 44.8795C450.471 44.8179 450.381 44.7628 450.314 44.7154C450.246 44.6674 450.209 44.6332 450.192 44.6155C450.153 44.5741 450.254 44.6604 450.254 44.8613H448.254ZM449.603 46.621L451.623 47.821L452.645 46.1016L450.625 44.9016L449.603 46.621ZM451.66 47.8418C452.291 48.1815 452.623 48.4777 452.775 48.6948L454.413 47.5478C454.005 46.9649 453.364 46.4878 452.608 46.0808L451.66 47.8418ZM452.784 48.7078C452.905 48.8743 453.014 49.1611 453.014 49.6613H455.014C455.014 48.8815 454.843 48.1417 454.404 47.5348L452.784 48.7078ZM453.014 49.6613C453.014 50.3554 452.818 50.7073 452.58 50.9107C452.311 51.14 451.802 51.3413 450.874 51.3413V53.3413C452.04 53.3413 453.1 53.096 453.878 52.4319C454.687 51.742 455.014 50.7538 455.014 49.6613H453.014ZM466.318 49.9613L466.999 50.6941L467 50.6924L466.318 49.9613ZM466.318 47.0213L465.663 47.777L465.663 47.777L466.318 47.0213ZM466.118 44.4413L466.773 45.197L466.787 45.1849L466.8 45.1724L466.118 44.4413ZM466.118 41.8813L465.411 42.5884L465.436 42.6136L465.463 42.637L466.118 41.8813ZM468.038 40.3213L467.339 41.0367L467.339 41.0367L468.038 40.3213ZM467.318 45.7413L467.016 44.7879L467.17 46.7302L467.318 45.7413ZM468.598 46.4013L467.851 47.0657L467.857 47.0727L467.863 47.0796L468.598 46.4013ZM463.138 51.2213H465.378V49.2213H463.138V51.2213ZM465.378 51.2213C465.902 51.2213 466.532 51.1272 466.999 50.6941L465.638 49.2285C465.69 49.1802 465.72 49.1804 465.677 49.1925C465.631 49.2051 465.538 49.2213 465.378 49.2213V51.2213ZM467 50.6924C467.487 50.2381 467.618 49.6108 467.618 49.0613H465.618C465.618 49.1916 465.602 49.2579 465.594 49.2801C465.589 49.2966 465.596 49.2674 465.636 49.2303L467 50.6924ZM467.618 49.0613V47.9013H465.618V49.0613H467.618ZM467.618 47.9013C467.618 47.36 467.491 46.7141 466.973 46.2656L465.663 47.777C465.638 47.755 465.62 47.7325 465.608 47.7146C465.597 47.6973 465.595 47.6885 465.597 47.694C465.602 47.7086 465.618 47.7701 465.618 47.9013H467.618ZM466.973 46.2656C466.5 45.8557 465.875 45.7613 465.338 45.7613V47.7613C465.506 47.7613 465.61 47.7778 465.667 47.7929C465.722 47.8076 465.706 47.8137 465.663 47.777L466.973 46.2656ZM465.338 45.7613H463.138V47.7613H465.338V45.7613ZM463.138 45.7613C462.911 45.7613 462.556 45.8189 462.266 46.1092C461.976 46.3995 461.918 46.7538 461.918 46.9813H463.918C463.918 47.0621 463.897 47.3064 463.68 47.5234C463.463 47.7404 463.219 47.7613 463.138 47.7613V45.7613ZM461.918 46.9813V50.0013H463.918V46.9813H461.918ZM461.918 50.0013C461.918 50.2288 461.976 50.5831 462.266 50.8734C462.556 51.1638 462.911 51.2213 463.138 51.2213V49.2213C463.219 49.2213 463.463 49.2422 463.68 49.4592C463.897 49.6762 463.918 49.9205 463.918 50.0013H461.918ZM463.138 45.7013H465.178V43.7013H463.138V45.7013ZM465.178 45.7013C465.707 45.7013 466.309 45.5996 466.773 45.197L465.463 43.6856C465.498 43.6552 465.512 43.6599 465.467 43.6725C465.419 43.6857 465.328 43.7013 465.178 43.7013V45.7013ZM466.8 45.1724C467.287 44.7181 467.418 44.0908 467.418 43.5413H465.418C465.418 43.6716 465.402 43.7379 465.394 43.7601C465.389 43.7766 465.396 43.7474 465.436 43.7103L466.8 45.1724ZM467.418 43.5413V42.7613H465.418V43.5413H467.418ZM467.418 42.7613C467.418 42.22 467.291 41.5741 466.773 41.1256L465.463 42.637C465.438 42.615 465.42 42.5925 465.408 42.5746C465.397 42.5573 465.395 42.5485 465.397 42.554C465.402 42.5686 465.418 42.6301 465.418 42.7613H467.418ZM466.825 41.1742C466.364 40.7125 465.733 40.6013 465.198 40.6013V42.6013C465.343 42.6013 465.423 42.6177 465.457 42.628C465.487 42.637 465.456 42.6335 465.411 42.5884L466.825 41.1742ZM465.198 40.6013H463.138V42.6013H465.198V40.6013ZM463.138 40.6013C462.911 40.6013 462.556 40.6589 462.266 40.9492C461.976 41.2395 461.918 41.5938 461.918 41.8213H463.918C463.918 41.9021 463.897 42.1464 463.68 42.3634C463.463 42.5804 463.219 42.6013 463.138 42.6013V40.6013ZM461.918 41.8213V44.4813H463.918V41.8213H461.918ZM461.918 44.4813C461.918 44.7088 461.976 45.0631 462.266 45.3534C462.556 45.6438 462.911 45.7013 463.138 45.7013V43.7013C463.219 43.7013 463.463 43.7222 463.68 43.9392C463.897 44.1562 463.918 44.4005 463.918 44.4813H461.918ZM461.378 51.9213V39.9013H459.378V51.9213H461.378ZM461.378 39.9013C461.378 39.9155 461.374 40.1097 461.19 40.2934C461.007 40.4771 460.812 40.4813 460.798 40.4813V38.4813C460.504 38.4813 460.1 38.5555 459.776 38.8792C459.452 39.2029 459.378 39.6072 459.378 39.9013H461.378ZM460.798 40.4813H465.598V38.4813H460.798V40.4813ZM465.598 40.4813C466.475 40.4813 467.006 40.711 467.339 41.0367L468.737 39.6059C467.924 38.8117 466.828 38.4813 465.598 38.4813V40.4813ZM467.339 41.0367C467.667 41.357 467.898 41.8667 467.898 42.7213H469.898C469.898 41.4959 469.556 40.4056 468.737 39.6059L467.339 41.0367ZM467.898 42.7213V43.5413H469.898V42.7213H467.898ZM467.898 43.5413C467.898 43.9526 467.804 44.2004 467.691 44.358C467.579 44.5133 467.384 44.6714 467.016 44.7879L467.62 46.6947C468.305 46.4778 468.9 46.1027 469.315 45.5246C469.729 44.9489 469.898 44.2634 469.898 43.5413H467.898ZM467.17 46.7302C467.501 46.7799 467.705 46.9017 467.851 47.0657L469.346 45.7369C468.851 45.1809 468.202 44.8627 467.466 44.7524L467.17 46.7302ZM467.863 47.0796C467.957 47.1806 468.078 47.402 468.078 47.9013H470.078C470.078 47.094 469.88 46.3153 469.333 45.723L467.863 47.0796ZM468.078 47.9013V49.1013H470.078V47.9013H468.078ZM468.078 49.1013C468.078 49.9559 467.847 50.4656 467.519 50.7859L468.917 52.2167C469.736 51.417 470.078 50.3267 470.078 49.1013H468.078ZM467.519 50.7859C467.184 51.1139 466.658 51.3413 465.798 51.3413V53.3413C467.018 53.3413 468.106 53.0087 468.917 52.2167L467.519 50.7859ZM465.798 51.3413H460.798V53.3413H465.798V51.3413ZM460.798 51.3413C460.812 51.3413 461.007 51.3455 461.19 51.5292C461.374 51.7129 461.378 51.9072 461.378 51.9213H459.378C459.378 52.2155 459.452 52.6197 459.776 52.9434C460.1 53.2671 460.504 53.3413 460.798 53.3413V51.3413ZM471.932 51.5013L472.631 50.7859L471.932 51.5013ZM471.932 42.9813L472.631 43.6967L472.631 43.6967L471.932 42.9813ZM478.572 43.0013L477.865 43.7084L477.873 43.7166L477.881 43.7247L478.572 43.0013ZM478.572 51.5013L479.271 52.2167L479.271 52.2165L478.572 51.5013ZM476.672 49.9013L475.991 49.1685L475.978 49.1811L475.965 49.1942L476.672 49.9013ZM476.672 44.5813L475.965 45.2884L475.978 45.3015L475.991 45.3141L476.672 44.5813ZM473.852 44.5813L474.559 45.2884L474.559 45.2884L473.852 44.5813ZM473.852 49.9013L474.559 49.1942L474.559 49.1942L473.852 49.9013ZM476.152 51.3413H474.372V53.3413H476.152V51.3413ZM474.372 51.3413C473.495 51.3413 472.964 51.1117 472.631 50.7859L471.233 52.2167C472.046 53.011 473.142 53.3413 474.372 53.3413V51.3413ZM472.631 50.7859C472.305 50.4679 472.072 49.9536 472.072 49.0813H470.072C470.072 50.3157 470.412 51.4147 471.233 52.2167L472.631 50.7859ZM472.072 49.0813V45.4013H470.072V49.0813H472.072ZM472.072 45.4013C472.072 44.5291 472.305 44.0147 472.631 43.6967L471.233 42.2659C470.412 43.0679 470.072 44.1669 470.072 45.4013H472.072ZM472.631 43.6967C472.964 43.3709 473.495 43.1413 474.372 43.1413V41.1413C473.142 41.1413 472.046 41.4717 471.233 42.2659L472.631 43.6967ZM474.372 43.1413H476.152V41.1413H474.372V43.1413ZM476.152 43.1413C477.005 43.1413 477.528 43.3717 477.865 43.7084L479.279 42.2942C478.469 41.4843 477.379 41.1413 476.152 41.1413V43.1413ZM477.881 43.7247C478.218 44.0463 478.452 44.5532 478.452 45.4013H480.452C480.452 44.1694 480.099 43.0763 479.262 42.278L477.881 43.7247ZM478.452 45.4013V49.0813H480.452V45.4013H478.452ZM478.452 49.0813C478.452 49.9282 478.219 50.4482 477.873 50.7861L479.271 52.2165C480.098 51.4078 480.452 50.3144 480.452 49.0813H478.452ZM477.873 50.7859C477.537 51.1139 477.012 51.3413 476.152 51.3413V53.3413C477.372 53.3413 478.46 53.0087 479.271 52.2167L477.873 50.7859ZM474.752 51.1613H475.772V49.1613H474.752V51.1613ZM475.772 51.1613C476.282 51.1613 476.92 51.0675 477.379 50.6084L475.965 49.1942C476.026 49.133 476.071 49.1266 476.039 49.1356C476.006 49.1453 475.923 49.1613 475.772 49.1613V51.1613ZM477.352 50.6341C477.845 50.1769 477.952 49.5269 477.952 49.0013H475.952C475.952 49.1474 475.935 49.2229 475.927 49.2492C475.92 49.2711 475.93 49.2254 475.991 49.1685L477.352 50.6341ZM477.952 49.0013V45.4813H475.952V49.0013H477.952ZM477.952 45.4813C477.952 44.9557 477.845 44.3057 477.352 43.8485L475.991 45.3141C475.93 45.2572 475.92 45.2115 475.927 45.2334C475.935 45.2597 475.952 45.3352 475.952 45.4813H477.952ZM477.379 43.8742C476.92 43.4151 476.282 43.3213 475.772 43.3213V45.3213C475.923 45.3213 476.006 45.3373 476.039 45.347C476.071 45.356 476.026 45.3496 475.965 45.2884L477.379 43.8742ZM475.772 43.3213H474.752V45.3213H475.772V43.3213ZM474.752 43.3213C474.242 43.3213 473.604 43.4151 473.145 43.8742L474.559 45.2884C474.498 45.3496 474.453 45.356 474.484 45.347C474.518 45.3373 474.601 45.3213 474.752 45.3213V43.3213ZM473.145 43.8742C472.686 44.3333 472.592 44.9716 472.592 45.4813H474.592C474.592 45.3301 474.608 45.2475 474.618 45.2138C474.627 45.1827 474.62 45.2272 474.559 45.2884L473.145 43.8742ZM472.592 45.4813V49.0013H474.592V45.4813H472.592ZM472.592 49.0013C472.592 49.511 472.686 50.1493 473.145 50.6084L474.559 49.1942C474.62 49.2554 474.627 49.2999 474.618 49.2688C474.608 49.2351 474.592 49.1525 474.592 49.0013H472.592ZM473.145 50.6084C473.604 51.0675 474.242 51.1613 474.752 51.1613V49.1613C474.601 49.1613 474.518 49.1453 474.484 49.1356C474.453 49.1266 474.498 49.133 474.559 49.1942L473.145 50.6084ZM480.788 51.9213L481.656 52.4174L481.664 52.4027L481.672 52.3877L480.788 51.9213ZM483.308 47.1413L484.192 47.6077L484.443 47.1312L484.184 46.6592L483.308 47.1413ZM480.788 42.5613L479.885 42.9912L479.897 43.0177L479.912 43.0434L480.788 42.5613ZM483.688 42.5613L482.739 42.8775L482.75 42.9113L482.764 42.9442L483.688 42.5613ZM484.948 45.6013L484.024 45.9842L484.28 46.6013H484.948V45.6013ZM485.028 45.6013V46.6013H485.729L485.968 45.9416L485.028 45.6013ZM486.128 42.5613L487.068 42.9016L487.072 42.8896L487.076 42.8775L486.128 42.5613ZM489.008 42.5613L488.157 42.035L488.139 42.0654L488.122 42.0972L489.008 42.5613ZM486.608 47.1413L485.722 46.6772L485.475 47.1483L485.728 47.6163L486.608 47.1413ZM489.188 51.9213L488.308 52.3963L488.313 52.407L489.188 51.9213ZM489.208 52.2213L488.376 51.6666L488.341 51.7184L488.313 51.7741L489.208 52.2213ZM486.288 51.9213L485.363 52.3021L485.366 52.3087L485.369 52.3152L486.288 51.9213ZM485.028 48.8613L485.952 48.4806L485.697 47.8613H485.028V48.8613ZM484.948 48.8613V47.8613H484.278L484.023 48.4806L484.948 48.8613ZM483.688 51.9213L482.763 51.5406L482.75 51.5724L482.739 51.6051L483.688 51.9213ZM483.088 51.3413H481.068V53.3413H483.088V51.3413ZM481.068 51.3413C481.038 51.3413 481.079 51.337 481.158 51.3621C481.24 51.3881 481.427 51.4681 481.57 51.6816C481.72 51.9068 481.723 52.1341 481.703 52.2618C481.685 52.3738 481.648 52.4312 481.656 52.4174L479.919 51.4252C479.823 51.5942 479.509 52.1959 479.906 52.791C480.095 53.0745 480.36 53.207 480.552 53.268C480.741 53.3281 480.924 53.3413 481.068 53.3413V51.3413ZM481.672 52.3877L484.192 47.6077L482.423 46.675L479.903 51.455L481.672 52.3877ZM484.184 46.6592L481.664 42.0792L479.912 43.0434L482.432 47.6234L484.184 46.6592ZM481.691 42.1314C481.684 42.117 481.708 42.162 481.72 42.2516C481.732 42.3471 481.733 42.5376 481.616 42.7424C481.495 42.9545 481.317 43.0595 481.199 43.1039C481.143 43.1249 481.098 43.1336 481.072 43.1374C481.046 43.1413 481.03 43.1413 481.028 43.1413V41.1413C480.815 41.1413 480.206 41.1781 479.879 41.7502C479.574 42.284 479.799 42.8116 479.885 42.9912L481.691 42.1314ZM481.028 43.1413H483.068V41.1413H481.028V43.1413ZM483.068 43.1413C483.084 43.1413 483.005 43.1442 482.902 43.0742C482.792 42.9995 482.749 42.9067 482.739 42.8775L484.636 42.2451C484.533 41.9359 484.34 41.6331 484.024 41.4184C483.714 41.2084 483.372 41.1413 483.068 41.1413V43.1413ZM482.764 42.9442L484.024 45.9842L485.871 45.2184L484.611 42.1784L482.764 42.9442ZM484.948 46.6013H485.028V44.6013H484.948V46.6013ZM485.968 45.9416L487.068 42.9016L485.187 42.2211L484.087 45.2611L485.968 45.9416ZM487.076 42.8775C487.067 42.9067 487.024 42.9995 486.914 43.0742C486.81 43.1442 486.732 43.1413 486.748 43.1413V41.1413C486.444 41.1413 486.102 41.2084 485.792 41.4184C485.475 41.6331 485.282 41.9359 485.179 42.2451L487.076 42.8775ZM486.748 43.1413H488.748V41.1413H486.748V43.1413ZM488.748 43.1413C488.779 43.1413 488.734 43.1458 488.651 43.1191C488.566 43.0915 488.366 43.0047 488.222 42.7727C488.073 42.5308 488.085 42.2952 488.11 42.1755C488.132 42.0688 488.169 42.017 488.157 42.035L489.858 43.0877C489.933 42.9656 490.025 42.7914 490.068 42.5796C490.115 42.3549 490.116 42.0319 489.923 41.72C489.736 41.4179 489.46 41.2786 489.266 41.216C489.075 41.1543 488.89 41.1413 488.748 41.1413V43.1413ZM488.122 42.0972L485.722 46.6772L487.493 47.6055L489.893 43.0255L488.122 42.0972ZM485.728 47.6163L488.308 52.3963L490.068 51.4463L487.488 46.6663L485.728 47.6163ZM488.313 52.407C488.3 52.383 488.254 52.2938 488.245 52.1528C488.234 51.9932 488.275 51.818 488.376 51.6666L490.04 52.776C490.385 52.2579 490.222 51.7244 490.062 51.4357L488.313 52.407ZM488.313 51.7741C488.402 51.5968 488.546 51.4716 488.694 51.4033C488.823 51.3436 488.923 51.3413 488.948 51.3413V53.3413C489.252 53.3413 489.816 53.2401 490.102 52.6685L488.313 51.7741ZM488.948 51.3413H486.888V53.3413H488.948V51.3413ZM486.888 51.3413C486.922 51.3413 487.009 51.3527 487.101 51.4171C487.187 51.4775 487.212 51.5384 487.207 51.5274L485.369 52.3152C485.484 52.5842 485.668 52.8551 485.954 53.0555C486.246 53.2599 486.574 53.3413 486.888 53.3413V51.3413ZM487.212 51.5406L485.952 48.4806L484.103 49.2421L485.363 52.3021L487.212 51.5406ZM485.028 47.8613H484.948V49.8613H485.028V47.8613ZM484.023 48.4806L482.763 51.5406L484.612 52.3021L485.872 49.2421L484.023 48.4806ZM482.739 51.6051C482.746 51.5851 482.784 51.4941 482.894 51.4171C483.001 51.3424 483.089 51.3413 483.088 51.3413V53.3413C483.393 53.3413 483.734 53.2702 484.041 53.0555C484.351 52.8385 484.536 52.5375 484.636 52.2375L482.739 51.6051Z" fill="url(#paint2_linear_222_6676)"/>
<path d="M403.065 47.4549V47.0549C403.065 46.7749 403.205 46.6349 403.485 46.6349H405.185C405.465 46.6349 405.605 46.7749 405.605 47.0549V47.2149C405.605 47.7215 405.705 48.0682 405.905 48.2549C406.105 48.4415 406.472 48.5349 407.005 48.5349H407.945C408.465 48.5349 408.825 48.4349 409.025 48.2349C409.238 48.0349 409.345 47.6615 409.345 47.1149V46.8749C409.345 46.4882 409.185 46.1949 408.865 45.9949C408.558 45.7815 408.172 45.6549 407.705 45.6149C407.238 45.5749 406.732 45.5015 406.185 45.3949C405.652 45.2749 405.152 45.1282 404.685 44.9549C404.218 44.7682 403.825 44.4149 403.505 43.8949C403.198 43.3615 403.045 42.6815 403.045 41.8549V41.1549C403.045 40.1149 403.338 39.3082 403.925 38.7349C404.512 38.1615 405.325 37.8749 406.365 37.8749H408.365C409.418 37.8749 410.238 38.1615 410.825 38.7349C411.412 39.3082 411.705 40.1149 411.705 41.1549V41.5349C411.705 41.8149 411.565 41.9549 411.285 41.9549H409.585C409.305 41.9549 409.165 41.8149 409.165 41.5349V41.4149C409.165 40.8949 409.065 40.5415 408.865 40.3549C408.665 40.1682 408.298 40.0749 407.765 40.0749H406.985C406.438 40.0749 406.065 40.1815 405.865 40.3949C405.678 40.5949 405.585 40.9949 405.585 41.5949V41.9749C405.585 42.6015 406.132 42.9615 407.225 43.0549C408.358 43.1482 409.365 43.3749 410.245 43.7349C410.712 43.9349 411.098 44.2949 411.405 44.8149C411.725 45.3215 411.885 45.9749 411.885 46.7749V47.4549C411.885 48.4949 411.592 49.3015 411.005 49.8749C410.418 50.4482 409.605 50.7349 408.565 50.7349H406.385C405.345 50.7349 404.532 50.4482 403.945 49.8749C403.358 49.3015 403.065 48.4949 403.065 47.4549ZM414.186 42.7349H413.386C413.226 42.7349 413.113 42.7082 413.046 42.6549C412.993 42.6015 412.966 42.4949 412.966 42.3349V40.9549C412.966 40.6749 413.106 40.5349 413.386 40.5349H414.186C414.333 40.5349 414.406 40.4615 414.406 40.3149V38.4149C414.406 38.1349 414.553 37.9949 414.846 37.9949H416.526C416.806 37.9949 416.946 38.1349 416.946 38.4149V40.3149C416.946 40.4615 417.026 40.5349 417.186 40.5349H418.746C419.026 40.5349 419.166 40.6749 419.166 40.9549V42.3349C419.166 42.4815 419.133 42.5882 419.066 42.6549C419.013 42.7082 418.906 42.7349 418.746 42.7349H417.186C417.026 42.7349 416.946 42.8082 416.946 42.9549V47.3749C416.946 47.7882 417.04 48.0882 417.226 48.2749C417.413 48.4482 417.72 48.5349 418.146 48.5349H418.946C419.226 48.5349 419.366 48.6749 419.366 48.9549V50.3349C419.366 50.4815 419.333 50.5882 419.266 50.6549C419.213 50.7082 419.106 50.7349 418.946 50.7349H417.726C416.673 50.7349 415.853 50.4549 415.266 49.8949C414.693 49.3349 414.406 48.5349 414.406 47.4949V42.9549C414.406 42.8082 414.333 42.7349 414.186 42.7349ZM424.597 50.7349H424.117C423.064 50.7349 422.25 50.4549 421.677 49.8949C421.104 49.3349 420.817 48.5282 420.817 47.4749V43.7949C420.817 42.7415 421.104 41.9349 421.677 41.3749C422.25 40.8149 423.064 40.5349 424.117 40.5349H428.737C429.03 40.5349 429.177 40.6749 429.177 40.9549V50.3149C429.177 50.5949 429.03 50.7349 428.737 50.7349H427.057C426.777 50.7349 426.637 50.5949 426.637 50.3149V49.6549H426.557C426.41 50.0149 426.15 50.2882 425.777 50.4749C425.404 50.6482 425.01 50.7349 424.597 50.7349ZM426.637 47.0149V42.9549C426.637 42.8082 426.557 42.7349 426.397 42.7349H424.517C424.09 42.7349 423.79 42.8282 423.617 43.0149C423.444 43.1882 423.357 43.4882 423.357 43.9149V47.3549C423.357 47.7815 423.444 48.0882 423.617 48.2749C423.79 48.4482 424.09 48.5349 424.517 48.5349H425.257C426.177 48.5349 426.637 48.0282 426.637 47.0149ZM433.489 50.7349H431.789C431.509 50.7349 431.369 50.5949 431.369 50.3149V40.9549C431.369 40.6749 431.509 40.5349 431.789 40.5349H433.489C433.769 40.5349 433.909 40.6749 433.909 40.9549V41.6349H433.989C434.135 41.2749 434.395 41.0015 434.769 40.8149C435.142 40.6282 435.535 40.5349 435.949 40.5349H436.669C436.935 40.5349 437.069 40.6749 437.069 40.9549V42.3349C437.069 42.4949 437.035 42.6082 436.969 42.6749C436.915 42.7282 436.815 42.7482 436.669 42.7349H435.289C434.369 42.7349 433.909 43.2549 433.909 44.2949V50.3149C433.909 50.5949 433.769 50.7349 433.489 50.7349ZM438.561 42.7349H437.761C437.601 42.7349 437.488 42.7082 437.421 42.6549C437.368 42.6015 437.341 42.4949 437.341 42.3349V40.9549C437.341 40.6749 437.481 40.5349 437.761 40.5349H438.561C438.708 40.5349 438.781 40.4615 438.781 40.3149V38.4149C438.781 38.1349 438.928 37.9949 439.221 37.9949H440.901C441.181 37.9949 441.321 38.1349 441.321 38.4149V40.3149C441.321 40.4615 441.401 40.5349 441.561 40.5349H443.121C443.401 40.5349 443.541 40.6749 443.541 40.9549V42.3349C443.541 42.4815 443.508 42.5882 443.441 42.6549C443.388 42.7082 443.281 42.7349 443.121 42.7349H441.561C441.401 42.7349 441.321 42.8082 441.321 42.9549V47.3749C441.321 47.7882 441.415 48.0882 441.601 48.2749C441.788 48.4482 442.095 48.5349 442.521 48.5349H443.321C443.601 48.5349 443.741 48.6749 443.741 48.9549V50.3349C443.741 50.4815 443.708 50.5882 443.641 50.6549C443.588 50.7082 443.481 50.7349 443.321 50.7349H442.101C441.048 50.7349 440.228 50.4549 439.641 49.8949C439.068 49.3349 438.781 48.5349 438.781 47.4949V42.9549C438.781 42.8082 438.708 42.7349 438.561 42.7349ZM449.252 50.7349H445.452C445.185 50.7349 445.052 50.5949 445.052 50.3149V49.0349C445.052 48.8882 445.079 48.7882 445.132 48.7349C445.185 48.6682 445.292 48.6349 445.452 48.6349H448.792C449.445 48.6349 449.772 48.4349 449.772 48.0349V47.9349C449.772 47.6149 449.499 47.3082 448.952 47.0149L446.972 45.9149C446.292 45.5682 445.792 45.1949 445.472 44.7949C445.152 44.3949 444.992 43.8815 444.992 43.2549C444.992 42.3215 445.239 41.6349 445.732 41.1949C446.225 40.7549 446.999 40.5349 448.052 40.5349H451.392C451.659 40.5349 451.792 40.6749 451.792 40.9549V42.2549C451.792 42.4015 451.765 42.5082 451.712 42.5749C451.659 42.6282 451.552 42.6549 451.392 42.6549H448.612C447.959 42.6549 447.632 42.8215 447.632 43.1549V43.2549C447.632 43.5482 447.919 43.8482 448.492 44.1549L450.512 45.3549C451.205 45.7282 451.692 46.1149 451.972 46.5149C452.252 46.9015 452.392 47.4149 452.392 48.0549C452.392 49.8415 451.345 50.7349 449.252 50.7349ZM461.516 48.6149H463.756C464.196 48.6149 464.509 48.5282 464.696 48.3549C464.896 48.1682 464.996 47.8682 464.996 47.4549V46.2949C464.996 45.8815 464.896 45.5882 464.696 45.4149C464.496 45.2415 464.169 45.1549 463.716 45.1549H461.516C461.369 45.1549 461.296 45.2282 461.296 45.3749V48.3949C461.296 48.5415 461.369 48.6149 461.516 48.6149ZM461.516 43.0949H463.556C463.983 43.0949 464.296 43.0082 464.496 42.8349C464.696 42.6482 464.796 42.3482 464.796 41.9349V41.1549C464.796 40.7415 464.696 40.4482 464.496 40.2749C464.309 40.0882 464.003 39.9949 463.576 39.9949H461.516C461.369 39.9949 461.296 40.0682 461.296 40.2149V42.8749C461.296 43.0215 461.369 43.0949 461.516 43.0949ZM458.756 50.3149V38.2949C458.756 38.0149 458.896 37.8749 459.176 37.8749H463.976C465.029 37.8749 465.843 38.1549 466.416 38.7149C466.989 39.2749 467.276 40.0749 467.276 41.1149V41.9349C467.276 43.0682 466.749 43.8015 465.696 44.1349C466.229 44.2149 466.656 44.4349 466.976 44.7949C467.296 45.1415 467.456 45.6415 467.456 46.2949V47.4949C467.456 48.5349 467.169 49.3349 466.596 49.8949C466.023 50.4549 465.216 50.7349 464.176 50.7349H459.176C458.896 50.7349 458.756 50.5949 458.756 50.3149ZM474.53 50.7349H472.75C471.696 50.7349 470.883 50.4549 470.31 49.8949C469.736 49.3349 469.45 48.5282 469.45 47.4749V43.7949C469.45 42.7415 469.736 41.9349 470.31 41.3749C470.883 40.8149 471.696 40.5349 472.75 40.5349H474.53C475.57 40.5349 476.376 40.8215 476.95 41.3949C477.536 41.9549 477.83 42.7549 477.83 43.7949V47.4749C477.83 48.5149 477.536 49.3215 476.95 49.8949C476.376 50.4549 475.57 50.7349 474.53 50.7349ZM473.13 48.5549H474.15C474.576 48.5549 474.876 48.4682 475.05 48.2949C475.236 48.1215 475.33 47.8215 475.33 47.3949V43.8749C475.33 43.4482 475.236 43.1482 475.05 42.9749C474.876 42.8015 474.576 42.7149 474.15 42.7149H473.13C472.703 42.7149 472.403 42.8015 472.23 42.9749C472.056 43.1482 471.97 43.4482 471.97 43.8749V47.3949C471.97 47.8215 472.056 48.1215 472.23 48.2949C472.403 48.4682 472.703 48.5549 473.13 48.5549ZM481.466 50.7349H479.446C479.099 50.7349 479.006 50.5949 479.166 50.3149L481.686 45.5349L479.166 40.9549C479.032 40.6749 479.112 40.5349 479.406 40.5349H481.446C481.766 40.5349 481.972 40.6749 482.066 40.9549L483.326 43.9949H483.406L484.506 40.9549C484.599 40.6749 484.806 40.5349 485.126 40.5349H487.126C487.472 40.5349 487.559 40.6749 487.386 40.9549L484.986 45.5349L487.566 50.3149C487.632 50.4349 487.639 50.5349 487.586 50.6149C487.546 50.6949 487.459 50.7349 487.326 50.7349H485.266C484.986 50.7349 484.786 50.5949 484.666 50.3149L483.406 47.2549H483.326L482.066 50.3149C481.972 50.5949 481.772 50.7349 481.466 50.7349Z" fill="white"/>
<g filter="url(#filter2_d_222_6676)">
<path d="M597.721 21.3784C597.721 18.6326 594.96 16.7808 589.44 13.0773C583.845 9.32309 581.047 7.44601 578.96 8.82423C576.874 10.2025 576.874 13.9278 576.874 21.3784C576.874 28.8291 576.874 32.5544 578.96 33.9326C581.047 35.3109 583.845 33.4337 589.44 29.6796C594.96 25.976 597.721 24.1242 597.721 21.3784Z" fill="#FFAC00" shape-rendering="crispEdges"/>
<path d="M598.311 21.3784C598.311 19.7669 597.485 18.4713 596.05 17.1521C594.637 15.8523 592.537 14.4431 589.816 12.6176L589.769 12.5866L589.718 12.5524C586.964 10.7042 584.834 9.27558 583.132 8.48961C581.414 7.69651 579.94 7.46903 578.635 8.33119C577.363 9.1711 576.814 10.6804 576.549 12.7491C576.283 14.8215 576.283 17.6455 576.283 21.3296V21.3784V21.4273C576.283 25.1114 576.283 27.9354 576.549 30.0078C576.814 32.0765 577.363 33.5858 578.635 34.4257L578.96 33.9326L578.635 34.4257C579.94 35.2878 581.414 35.0603 583.132 34.2672C584.834 33.4813 586.964 32.0527 589.718 30.2045L589.769 30.1703L589.816 30.1392C592.537 28.3137 594.637 26.9046 596.05 25.6048C597.485 24.2856 598.311 22.99 598.311 21.3784Z" stroke="url(#paint3_linear_222_6676)" stroke-width="1.18182" shape-rendering="crispEdges"/>
</g>
<rect x="72.1967" y="53.3579" width="74.4688" height="91.2038" rx="2.37006" fill="#FFAC00" stroke="url(#paint4_linear_222_6676)" stroke-width="2.30769"/>
<rect x="82.6016" y="88.2515" width="53.6583" height="5.5607" rx="2.78035" fill="white"/>
<rect x="82.6016" y="73.4233" width="18.5029" height="5.5607" rx="2.78035" fill="white"/>
<rect x="82.6016" y="103.08" width="53.6583" height="5.5607" rx="2.78035" fill="white"/>
<rect x="82.6016" y="117.91" width="53.6583" height="5.5607" rx="2.78035" fill="white"/>
<rect x="86.8816" y="44.3411" width="45.6534" height="15.4531" rx="1.2474" fill="#FFAC00" stroke="white" stroke-width="1.15385"/>
<defs>
<filter id="filter0_d_222_6676" x="0" y="0.425781" width="639" height="405.574" filterUnits="userSpaceOnUse" color-interpolation-filters="sRGB">
<feFlood flood-opacity="0" result="BackgroundImageFix"/>
<feColorMatrix in="SourceAlpha" type="matrix" values="0 0 0 0 0 0 0 0 0 0 0 0 0 0 0 0 0 0 127 0" result="hardAlpha"/>
<feOffset/>
<feGaussianBlur stdDeviation="3"/>
<feComposite in2="hardAlpha" operator="out"/>
<feColorMatrix type="matrix" values="0 0 0 0 0.494118 0 0 0 0 0 0 0 0 0 1 0 0 0 0.15 0"/>
<feBlend mode="normal" in2="BackgroundImageFix" result="effect1_dropShadow_222_6676"/>
<feBlend mode="normal" in="SourceGraphic" in2="effect1_dropShadow_222_6676" result="shape"/>
</filter>
<filter id="filter1_f_222_6676" x="62.1955" y="171.972" width="93.6286" height="22.28" filterUnits="userSpaceOnUse" color-interpolation-filters="sRGB">
<feFlood flood-opacity="0" result="BackgroundImageFix"/>
<feBlend mode="normal" in="SourceGraphic" in2="BackgroundImageFix" result="shape"/>
<feGaussianBlur stdDeviation="3.97404" result="effect1_foregroundBlur_222_6676"/>
</filter>
<filter id="filter2_d_222_6676" x="570.965" y="7.18994" width="32.6645" height="37.8315" filterUnits="userSpaceOnUse" color-interpolation-filters="sRGB">
<feFlood flood-opacity="0" result="BackgroundImageFix"/>
<feColorMatrix in="SourceAlpha" type="matrix" values="0 0 0 0 0 0 0 0 0 0 0 0 0 0 0 0 0 0 127 0" result="hardAlpha"/>
<feOffset dy="4.72727"/>
<feGaussianBlur stdDeviation="2.36364"/>
<feComposite in2="hardAlpha" operator="out"/>
<feColorMatrix type="matrix" values="0 0 0 0 1 0 0 0 0 0.67451 0 0 0 0 0 0 0 0 1 0"/>
<feBlend mode="normal" in2="BackgroundImageFix" result="effect1_dropShadow_222_6676"/>
<feBlend mode="normal" in="SourceGraphic" in2="effect1_dropShadow_222_6676" result="shape"/>
</filter>
<radialGradient id="paint0_radial_222_6676" cx="0" cy="0" r="1" gradientUnits="userSpaceOnUse" gradientTransform="translate(107.079 376.16) scale(788.417 692.353)">
<stop stop-color="#92DDFF"/>
<stop offset="1"/>
</radialGradient>
<linearGradient id="paint1_linear_222_6676" x1="319.5" y1="0" x2="319.5" y2="393.574" gradientUnits="userSpaceOnUse">
<stop stop-color="#FFDD17"/>
<stop offset="1" stop-color="#FFEB77" stop-opacity="0"/>
</linearGradient>
<linearGradient id="paint2_linear_222_6676" x1="403.707" y1="36.4322" x2="423.193" y2="95.0877" gradientUnits="userSpaceOnUse">
<stop stop-color="white"/>
<stop offset="0.255208" stop-color="white" stop-opacity="0"/>
<stop offset="0.505208" stop-color="white"/>
<stop offset="0.755208" stop-color="white" stop-opacity="0"/>
<stop offset="1" stop-color="white"/>
</linearGradient>
<linearGradient id="paint3_linear_222_6676" x1="577.96" y1="7.28874" x2="590.954" y2="30.069" gradientUnits="userSpaceOnUse">
<stop stop-color="white"/>
<stop offset="1" stop-color="white" stop-opacity="0"/>
</linearGradient>
<linearGradient id="paint4_linear_222_6676" x1="109.431" y1="54.5117" x2="109.431" y2="143.408" gradientUnits="userSpaceOnUse">
<stop stop-color="white"/>
<stop offset="1" stop-color="white" stop-opacity="0"/>
</linearGradient>
</defs>
</svg>
