<svg width="627" height="400" viewBox="0 0 627 400" fill="none" xmlns="http://www.w3.org/2000/svg">
<g filter="url(#filter0_d_222_6720)">
<rect x="9" y="9.23047" width="609" height="381.598" rx="13" fill="#00A3FF"/>
</g>
<path fill-rule="evenodd" clip-rule="evenodd" d="M9 366.926V373.156C9 380.336 14.8203 386.156 22 386.156H605C612.18 386.156 618 380.336 618 373.156V366.926C618 374.105 612.18 379.926 605 379.926H22C14.8203 379.926 9 374.105 9 366.926Z" fill="url(#paint0_radial_222_6720)" style="mix-blend-mode:screen"/>
<rect x="9" y="3" width="609" height="380.041" rx="13" fill="url(#paint1_linear_222_6720)"/>
<path d="M399.11 50.2285L398.428 50.9596L398.428 50.9596L399.11 50.2285ZM402.23 50.2085L401.546 49.479L401.534 49.49L401.523 49.5014L402.23 50.2085ZM402.07 47.9685L401.499 48.7894L401.519 48.8035L401.54 48.8165L402.07 47.9685ZM400.91 47.5885L400.995 46.5921L400.995 46.5921L400.91 47.5885ZM399.39 47.3685L399.171 48.3441L399.184 48.3472L399.199 48.35L399.39 47.3685ZM397.89 46.9285L397.519 47.857L397.53 47.8616L397.542 47.8659L397.89 46.9285ZM396.71 45.8685L395.843 46.367L395.851 46.3799L395.858 46.3926L396.71 45.8685ZM397.13 40.7085L397.829 41.4237L397.829 41.4237L397.13 40.7085ZM404.03 40.7085L403.331 41.4237L403.331 41.4237L404.03 40.7085ZM402.07 42.3285L402.752 41.5974L402.752 41.5974L402.07 42.3285ZM399.07 42.3685L398.34 41.6846L398.339 41.6862L399.07 42.3685ZM400.43 45.0285L400.345 46.0249L400.348 46.0251L400.43 45.0285ZM403.45 45.7085L403.844 44.7894L403.836 44.7861L403.829 44.7829L403.45 45.7085ZM404.61 46.7885L403.749 47.2965L403.756 47.3096L403.765 47.3225L404.61 46.7885ZM397.15 51.8485L396.451 52.5637L396.451 52.5637L397.15 51.8485ZM397.27 49.4285V49.0285H395.27V49.4285H397.27ZM397.27 49.0285C397.27 49.0426 397.266 49.2369 397.082 49.4206C396.898 49.6043 396.704 49.6085 396.69 49.6085V47.6085C396.396 47.6085 395.992 47.6827 395.668 48.0064C395.344 48.3301 395.27 48.7344 395.27 49.0285H397.27ZM396.69 49.6085H398.39V47.6085H396.69V49.6085ZM398.39 49.6085C398.376 49.6085 398.182 49.6043 397.998 49.4206C397.814 49.2369 397.81 49.0426 397.81 49.0285H399.81C399.81 48.7344 399.736 48.3301 399.412 48.0064C399.088 47.6827 398.684 47.6085 398.39 47.6085V49.6085ZM397.81 49.0285V49.1885H399.81V49.0285H397.81ZM397.81 49.1885C397.81 49.7573 397.909 50.4751 398.428 50.9596L399.792 49.4974C399.86 49.5608 399.861 49.6049 399.846 49.5513C399.83 49.4963 399.81 49.3827 399.81 49.1885H397.81ZM398.428 50.9596C398.924 51.4224 399.633 51.5085 400.21 51.5085V49.5085C399.996 49.5085 399.859 49.4891 399.782 49.4694C399.702 49.4491 399.731 49.4405 399.792 49.4974L398.428 50.9596ZM400.21 51.5085H401.15V49.5085H400.21V51.5085ZM401.15 51.5085C401.734 51.5085 402.444 51.4088 402.937 50.9156L401.523 49.5014C401.578 49.4465 401.608 49.4518 401.542 49.47C401.476 49.4884 401.352 49.5085 401.15 49.5085V51.5085ZM402.914 50.938C403.446 50.4391 403.55 49.6939 403.55 49.0885H401.55C401.55 49.3036 401.528 49.4346 401.509 49.5038C401.489 49.5719 401.484 49.5369 401.546 49.479L402.914 50.938ZM403.55 49.0885V48.8485H401.55V49.0885H403.55ZM403.55 48.8485C403.55 48.1274 403.221 47.5087 402.6 47.1205L401.54 48.8165C401.558 48.828 401.564 48.8344 401.563 48.8334C401.562 48.8318 401.557 48.8262 401.552 48.8173C401.547 48.8086 401.546 48.8032 401.547 48.805C401.547 48.8075 401.55 48.8208 401.55 48.8485H403.55ZM402.641 47.1476C402.159 46.8119 401.593 46.6434 400.995 46.5921L400.825 48.5848C401.161 48.6136 401.368 48.6984 401.499 48.7894L402.641 47.1476ZM400.995 46.5921C400.57 46.5557 400.099 46.4881 399.582 46.387L399.199 48.35C399.774 48.4623 400.316 48.5413 400.825 48.5848L400.995 46.5921ZM399.61 46.3929C399.116 46.2818 398.659 46.1474 398.238 45.9911L397.542 47.8659C398.054 48.0563 398.598 48.2152 399.171 48.3441L399.61 46.3929ZM398.261 46C398.034 45.909 397.794 45.7217 397.562 45.3444L395.858 46.3926C396.266 47.0553 396.813 47.5747 397.519 47.857L398.261 46ZM397.577 45.37C397.382 45.0317 397.25 44.5382 397.25 43.8285H395.25C395.25 44.7721 395.424 45.6386 395.843 46.367L397.577 45.37ZM397.25 43.8285V43.1285H395.25V43.8285H397.25ZM397.25 43.1285C397.25 42.2816 397.483 41.7616 397.829 41.4237L396.431 39.9933C395.604 40.802 395.25 41.8954 395.25 43.1285H397.25ZM397.829 41.4237C398.182 41.0785 398.718 40.8485 399.57 40.8485V38.8485C398.342 38.8485 397.251 39.1919 396.431 39.9933L397.829 41.4237ZM399.57 40.8485H401.57V38.8485H399.57V40.8485ZM401.57 40.8485C402.44 40.8485 402.98 41.0807 403.331 41.4237L404.729 39.9933C403.907 39.1896 402.807 38.8485 401.57 38.8485V40.8485ZM403.331 41.4237C403.677 41.7616 403.91 42.2816 403.91 43.1285H405.91C405.91 41.8954 405.557 40.802 404.729 39.9933L403.331 41.4237ZM403.91 43.1285V43.5085H405.91V43.1285H403.91ZM403.91 43.5085C403.91 43.4944 403.914 43.3001 404.098 43.1164C404.282 42.9327 404.476 42.9285 404.49 42.9285V44.9285C404.784 44.9285 405.188 44.8543 405.512 44.5306C405.836 44.2069 405.91 43.8026 405.91 43.5085H403.91ZM404.49 42.9285H402.79V44.9285H404.49V42.9285ZM402.79 42.9285C402.804 42.9285 402.998 42.9327 403.182 43.1164C403.366 43.3001 403.37 43.4944 403.37 43.5085H401.37C401.37 43.8026 401.444 44.2069 401.768 44.5306C402.092 44.8543 402.496 44.9285 402.79 44.9285V42.9285ZM403.37 43.5085V43.3885H401.37V43.5085H403.37ZM403.37 43.3885C403.37 42.8158 403.275 42.0854 402.752 41.5974L401.388 43.0595C401.316 42.9927 401.316 42.9465 401.333 43.0058C401.35 43.0656 401.37 43.1856 401.37 43.3885H403.37ZM402.752 41.5974C402.256 41.1346 401.547 41.0485 400.97 41.0485V43.0485C401.185 43.0485 401.321 43.0679 401.398 43.0876C401.478 43.1079 401.449 43.1165 401.388 43.0596L402.752 41.5974ZM400.97 41.0485H400.19V43.0485H400.97V41.0485ZM400.19 41.0485C399.585 41.0485 398.839 41.1524 398.341 41.6846L399.8 43.0524C399.742 43.1142 399.707 43.1095 399.775 43.09C399.844 43.0702 399.975 43.0485 400.19 43.0485V41.0485ZM398.339 41.6862C398.081 41.9625 397.954 42.2999 397.886 42.5913C397.816 42.8913 397.79 43.2236 397.79 43.5685H399.79C399.79 43.3134 399.811 43.1457 399.834 43.0457C399.859 42.937 399.872 42.9745 399.801 43.0508L398.339 41.6862ZM397.79 43.5685V43.9485H399.79V43.5685H397.79ZM397.79 43.9485C397.79 44.6158 398.111 45.1686 398.65 45.5237C399.127 45.8376 399.731 45.9725 400.345 46.0249L400.515 44.0321C400.036 43.9912 399.82 43.8994 399.75 43.8533C399.727 43.8379 399.746 43.8447 399.767 43.8839C399.79 43.9248 399.79 43.9548 399.79 43.9485H397.79ZM400.348 46.0251C401.399 46.1117 402.302 46.3195 403.071 46.634L403.829 44.7829C402.838 44.3775 401.728 44.132 400.512 44.0319L400.348 46.0251ZM403.056 46.6276C403.292 46.7289 403.529 46.9241 403.749 47.2965L405.471 46.2805C405.078 45.6129 404.541 45.0881 403.844 44.7894L403.056 46.6276ZM403.765 47.3225C403.955 47.6242 404.09 48.0758 404.09 48.7485H406.09C406.09 47.8212 405.905 46.9662 405.456 46.2545L403.765 47.3225ZM404.09 48.7485V49.4285H406.09V48.7485H404.09ZM404.09 49.4285C404.09 50.2754 403.857 50.7954 403.511 51.1333L404.909 52.5637C405.737 51.755 406.09 50.6616 406.09 49.4285H404.09ZM403.511 51.1333C403.158 51.4785 402.622 51.7085 401.77 51.7085V53.7085C402.998 53.7085 404.089 53.3651 404.909 52.5637L403.511 51.1333ZM401.77 51.7085H399.59V53.7085H401.77V51.7085ZM399.59 51.7085C398.738 51.7085 398.202 51.4785 397.849 51.1333L396.451 52.5637C397.271 53.3651 398.362 53.7085 399.59 53.7085V51.7085ZM397.849 51.1333C397.503 50.7954 397.27 50.2754 397.27 49.4285H395.27C395.27 50.6616 395.624 51.755 396.451 52.5637L397.849 51.1333ZM406.251 44.6285L405.544 45.3356L405.583 45.3748L405.627 45.4094L406.251 44.6285ZM412.271 44.6285L411.564 43.9214L411.564 43.9214L412.271 44.6285ZM410.431 50.2485L409.724 50.9556L409.737 50.9687L409.751 50.9813L410.431 50.2485ZM412.471 52.6285L413.178 53.3356L413.178 53.3356L412.471 52.6285ZM408.471 51.8685L407.773 52.5839L407.781 52.5919L408.471 51.8685ZM407.391 43.7085H406.591V45.7085H407.391V43.7085ZM406.591 43.7085C406.562 43.7085 406.575 43.7056 406.615 43.7151C406.654 43.7241 406.759 43.7542 406.876 43.8476L405.627 45.4094C405.97 45.684 406.377 45.7085 406.591 45.7085V43.7085ZM406.958 43.9214C407.106 44.0686 407.15 44.219 407.161 44.266C407.175 44.3189 407.171 44.3402 407.171 44.3085H405.171C405.171 44.4368 405.181 44.5914 405.221 44.751C405.26 44.9046 405.344 45.1351 405.544 45.3356L406.958 43.9214ZM407.171 44.3085V42.9285H405.171V44.3085H407.171ZM407.171 42.9285C407.171 42.9426 407.167 43.1369 406.983 43.3206C406.8 43.5043 406.605 43.5085 406.591 43.5085V41.5085C406.297 41.5085 405.893 41.5827 405.569 41.9064C405.246 42.2301 405.171 42.6344 405.171 42.9285H407.171ZM406.591 43.5085H407.391V41.5085H406.591V43.5085ZM407.391 43.5085C407.619 43.5085 407.973 43.4509 408.263 43.1606C408.554 42.8703 408.611 42.516 408.611 42.2885H406.611C406.611 42.2077 406.632 41.9634 406.849 41.7464C407.066 41.5294 407.31 41.5085 407.391 41.5085V43.5085ZM408.611 42.2885V40.3885H406.611V42.2885H408.611ZM408.611 40.3885C408.611 40.4148 408.602 40.6152 408.412 40.7969C408.324 40.8805 408.232 40.9255 408.162 40.9477C408.097 40.9685 408.054 40.9685 408.051 40.9685V38.9685C407.762 38.9685 407.359 39.0368 407.031 39.3501C406.694 39.6718 406.611 40.0822 406.611 40.3885H408.611ZM408.051 40.9685H409.731V38.9685H408.051V40.9685ZM409.731 40.9685C409.717 40.9685 409.523 40.9643 409.339 40.7806C409.156 40.5969 409.151 40.4026 409.151 40.3885H411.151C411.151 40.0944 411.077 39.6901 410.753 39.3664C410.43 39.0427 410.025 38.9685 409.731 38.9685V40.9685ZM409.151 40.3885V42.2885H411.151V40.3885H409.151ZM409.151 42.2885C409.151 42.5394 409.224 42.9048 409.536 43.1906C409.831 43.4614 410.178 43.5085 410.391 43.5085V41.5085C410.445 41.5085 410.672 41.5189 410.887 41.7163C411.119 41.9288 411.151 42.1842 411.151 42.2885H409.151ZM410.391 43.5085H411.951V41.5085H410.391V43.5085ZM411.951 43.5085C411.937 43.5085 411.743 43.5043 411.559 43.3206C411.376 43.1369 411.371 42.9426 411.371 42.9285H413.371C413.371 42.6344 413.297 42.2301 412.973 41.9064C412.65 41.5827 412.245 41.5085 411.951 41.5085V43.5085ZM411.371 42.9285V44.3085H413.371V42.9285H411.371ZM411.371 44.3085C411.371 44.3078 411.371 44.2979 411.374 44.2805C411.376 44.2632 411.381 44.2354 411.392 44.2002C411.414 44.1278 411.464 44.0217 411.564 43.9214L412.978 45.3356C413.314 44.9998 413.371 44.5769 413.371 44.3085H411.371ZM411.564 43.9214C411.711 43.7742 411.862 43.7301 411.909 43.7184C411.962 43.7051 411.983 43.7085 411.951 43.7085V45.7085C412.08 45.7085 412.234 45.6985 412.394 45.6586C412.547 45.6202 412.778 45.5361 412.978 45.3356L411.564 43.9214ZM411.951 43.7085H410.391V45.7085H411.951V43.7085ZM410.391 43.7085C410.178 43.7085 409.831 43.7556 409.536 44.0263C409.224 44.3122 409.151 44.6776 409.151 44.9285H411.151C411.151 45.0328 411.119 45.2882 410.887 45.5007C410.672 45.698 410.445 45.7085 410.391 45.7085V43.7085ZM409.151 44.9285V49.3485H411.151V44.9285H409.151ZM409.151 49.3485C409.151 49.8813 409.267 50.4988 409.724 50.9556L411.138 49.5414C411.18 49.5825 411.184 49.611 411.176 49.5864C411.167 49.5575 411.151 49.4843 411.151 49.3485H409.151ZM409.751 50.9813C410.213 51.4104 410.831 51.5085 411.351 51.5085V49.5085C411.201 49.5085 411.114 49.4927 411.073 49.4812C411.035 49.4703 411.064 49.4709 411.112 49.5157L409.751 50.9813ZM411.351 51.5085H412.151V49.5085H411.351V51.5085ZM412.151 51.5085C412.137 51.5085 411.943 51.5043 411.759 51.3206C411.576 51.1369 411.571 50.9426 411.571 50.9285H413.571C413.571 50.6344 413.497 50.2301 413.173 49.9064C412.85 49.5827 412.445 49.5085 412.151 49.5085V51.5085ZM411.571 50.9285V52.3085H413.571V50.9285H411.571ZM411.571 52.3085C411.571 52.3078 411.571 52.2979 411.574 52.2805C411.576 52.2632 411.581 52.2354 411.592 52.2002C411.614 52.1278 411.664 52.0217 411.764 51.9214L413.178 53.3356C413.514 52.9998 413.571 52.5769 413.571 52.3085H411.571ZM411.764 51.9214C411.911 51.7742 412.062 51.7301 412.109 51.7184C412.162 51.7051 412.183 51.7085 412.151 51.7085V53.7085C412.28 53.7085 412.434 53.6985 412.594 53.6586C412.747 53.6202 412.978 53.5361 413.178 53.3356L411.764 51.9214ZM412.151 51.7085H410.931V53.7085H412.151V51.7085ZM410.931 51.7085C410.056 51.7085 409.512 51.4793 409.162 51.1451L407.781 52.5919C408.604 53.3776 409.7 53.7085 410.931 53.7085V51.7085ZM409.17 51.1531C408.842 50.8328 408.611 50.3231 408.611 49.4685H406.611C406.611 50.6939 406.954 51.7842 407.773 52.5839L409.17 51.1531ZM408.611 49.4685V44.9285H406.611V49.4685H408.611ZM408.611 44.9285C408.611 44.701 408.554 44.3467 408.263 44.0564C407.973 43.766 407.619 43.7085 407.391 43.7085V45.7085C407.31 45.7085 407.066 45.6876 406.849 45.4706C406.632 45.2536 406.611 45.0093 406.611 44.9285H408.611ZM414.882 51.8685L415.581 51.1531L414.882 51.8685ZM414.882 43.3485L415.581 44.0639L415.581 44.0639L414.882 43.3485ZM419.842 51.6285H420.842V50.6285H419.842V51.6285ZM419.762 51.6285V50.6285H419.09L418.836 51.2512L419.762 51.6285ZM418.982 52.4485L419.403 53.3555L419.416 53.3494L419.429 53.3429L418.982 52.4485ZM416.822 44.9885L417.529 45.6956L417.542 45.6825L417.555 45.6689L416.822 44.9885ZM416.822 50.2485L416.089 50.9289L416.102 50.9425L416.115 50.9556L416.822 50.2485ZM417.802 51.7085H417.322V53.7085H417.802V51.7085ZM417.322 51.7085C416.445 51.7085 415.914 51.4789 415.581 51.1531L414.183 52.5839C414.997 53.3781 416.093 53.7085 417.322 53.7085V51.7085ZM415.581 51.1531C415.255 50.8351 415.022 50.3207 415.022 49.4485H413.022C413.022 50.6829 413.362 51.7819 414.183 52.5839L415.581 51.1531ZM415.022 49.4485V45.7685H413.022V49.4485H415.022ZM415.022 45.7685C415.022 44.8962 415.255 44.3819 415.581 44.0639L414.183 42.6331C413.362 43.4351 413.022 44.5341 413.022 45.7685H415.022ZM415.581 44.0639C415.914 43.7381 416.445 43.5085 417.322 43.5085V41.5085C416.093 41.5085 414.997 41.8389 414.183 42.6331L415.581 44.0639ZM417.322 43.5085H421.942V41.5085H417.322V43.5085ZM421.942 43.5085C421.939 43.5085 421.897 43.5085 421.831 43.4877C421.762 43.4655 421.669 43.4205 421.582 43.3369C421.391 43.1552 421.382 42.9548 421.382 42.9285H423.382C423.382 42.6222 423.299 42.2118 422.963 41.8901C422.634 41.5768 422.232 41.5085 421.942 41.5085V43.5085ZM421.382 42.9285V52.2885H423.382V42.9285H421.382ZM421.382 52.2885C421.382 52.2622 421.391 52.0618 421.582 51.8801C421.669 51.7965 421.762 51.7515 421.831 51.7293C421.897 51.7085 421.939 51.7085 421.942 51.7085V53.7085C422.232 53.7085 422.634 53.6402 422.963 53.3269C423.299 53.0052 423.382 52.5948 423.382 52.2885H421.382ZM421.942 51.7085H420.262V53.7085H421.942V51.7085ZM420.262 51.7085C420.276 51.7085 420.47 51.7127 420.654 51.8964C420.838 52.0801 420.842 52.2744 420.842 52.2885H418.842C418.842 52.5826 418.916 52.9869 419.24 53.3106C419.564 53.6343 419.968 53.7085 420.262 53.7085V51.7085ZM420.842 52.2885V51.6285H418.842V52.2885H420.842ZM419.842 50.6285H419.762V52.6285H419.842V50.6285ZM418.836 51.2512C418.788 51.3691 418.708 51.4673 418.535 51.5541L419.429 53.3429C420.002 53.0564 420.443 52.6079 420.688 52.0058L418.836 51.2512ZM418.561 51.5415C418.32 51.6533 418.071 51.7085 417.802 51.7085V53.7085C418.36 53.7085 418.897 53.5904 419.403 53.3555L418.561 51.5415ZM420.842 48.9885V44.9285H418.842V48.9885H420.842ZM420.842 44.9285C420.842 44.6776 420.77 44.3122 420.458 44.0263C420.162 43.7556 419.816 43.7085 419.602 43.7085V45.7085C419.548 45.7085 419.322 45.698 419.106 45.5007C418.875 45.2882 418.842 45.0328 418.842 44.9285H420.842ZM419.602 43.7085H417.722V45.7085H419.602V43.7085ZM417.722 43.7085C417.196 43.7085 416.546 43.8157 416.089 44.308L417.555 45.6689C417.498 45.7302 417.452 45.7402 417.474 45.7334C417.501 45.7251 417.576 45.7085 417.722 45.7085V43.7085ZM416.115 44.2814C415.656 44.7405 415.562 45.3788 415.562 45.8885H417.562C417.562 45.7373 417.578 45.6547 417.588 45.621C417.597 45.5899 417.59 45.6344 417.529 45.6956L416.115 44.2814ZM415.562 45.8885V49.3285H417.562V45.8885H415.562ZM415.562 49.3285C415.562 49.8486 415.66 50.4668 416.089 50.9289L417.555 49.568C417.6 49.6163 417.6 49.6449 417.589 49.6065C417.578 49.5658 417.562 49.4789 417.562 49.3285H415.562ZM416.115 50.9556C416.574 51.4147 417.212 51.5085 417.722 51.5085V49.5085C417.571 49.5085 417.488 49.4925 417.455 49.4828C417.423 49.4738 417.468 49.4802 417.529 49.5414L416.115 50.9556ZM417.722 51.5085H418.462V49.5085H417.722V51.5085ZM418.462 51.5085C419.102 51.5085 419.759 51.3277 420.237 50.8007C420.699 50.292 420.842 49.6267 420.842 48.9885H418.842C418.842 49.1694 418.821 49.2895 418.799 49.3638C418.777 49.4345 418.757 49.4558 418.757 49.4563C418.756 49.4575 418.755 49.4586 418.752 49.4605C418.749 49.4625 418.74 49.468 418.721 49.4748C418.683 49.4888 418.603 49.5085 418.462 49.5085V51.5085ZM427.114 43.6085H426.114V44.6085H427.114V43.6085ZM427.194 43.6085V44.6085H427.866L428.12 43.9858L427.194 43.6085ZM427.974 42.7885L428.421 43.6829L428.421 43.6829L427.974 42.7885ZM430.174 44.6485L429.467 43.9414L429.467 43.9414L430.174 44.6485ZM429.874 44.7085L429.964 43.7126L429.919 43.7085H429.874V44.7085ZM426.694 51.7085H424.994V53.7085H426.694V51.7085ZM424.994 51.7085C425.008 51.7085 425.202 51.7127 425.386 51.8964C425.569 52.0801 425.574 52.2744 425.574 52.2885H423.574C423.574 52.5826 423.648 52.9869 423.972 53.3106C424.295 53.6343 424.699 53.7085 424.994 53.7085V51.7085ZM425.574 52.2885V42.9285H423.574V52.2885H425.574ZM425.574 42.9285C425.574 42.9426 425.569 43.1369 425.386 43.3206C425.202 43.5043 425.008 43.5085 424.994 43.5085V41.5085C424.699 41.5085 424.295 41.5827 423.972 41.9064C423.648 42.2301 423.574 42.6344 423.574 42.9285H425.574ZM424.994 43.5085H426.694V41.5085H424.994V43.5085ZM426.694 43.5085C426.679 43.5085 426.485 43.5043 426.302 43.3206C426.118 43.1369 426.114 42.9426 426.114 42.9285H428.114C428.114 42.6344 428.039 42.2301 427.716 41.9064C427.392 41.5827 426.988 41.5085 426.694 41.5085V43.5085ZM426.114 42.9285V43.6085H428.114V42.9285H426.114ZM427.114 44.6085H427.194V42.6085H427.114V44.6085ZM428.12 43.9858C428.168 43.8679 428.247 43.7697 428.421 43.6829L427.526 41.8941C426.953 42.1806 426.513 42.6291 426.268 43.2312L428.12 43.9858ZM428.421 43.6829C428.657 43.565 428.897 43.5085 429.154 43.5085V41.5085C428.583 41.5085 428.037 41.6387 427.526 41.8941L428.421 43.6829ZM429.154 43.5085H429.874V41.5085H429.154V43.5085ZM429.874 43.5085C429.84 43.5085 429.634 43.4972 429.449 43.3031C429.273 43.1182 429.274 42.9308 429.274 42.9285H431.274C431.274 42.6462 431.207 42.2488 430.898 41.9238C430.58 41.5898 430.174 41.5085 429.874 41.5085V43.5085ZM429.274 42.9285V44.3085H431.274V42.9285H429.274ZM429.274 44.3085C429.274 44.3244 429.271 44.2922 429.289 44.2313C429.308 44.1674 429.355 44.0527 429.467 43.9414L430.881 45.3556C431.23 45.0068 431.274 44.5603 431.274 44.3085H429.274ZM429.467 43.9414C429.621 43.7872 429.785 43.7383 429.863 43.7229C429.938 43.7077 429.98 43.7141 429.964 43.7126L429.783 45.7044C429.971 45.7215 430.487 45.7494 430.881 45.3556L429.467 43.9414ZM429.874 43.7085H428.494V45.7085H429.874V43.7085ZM428.494 43.7085C427.846 43.7085 427.186 43.8973 426.71 44.4359C426.254 44.9512 426.114 45.6225 426.114 46.2685H428.114C428.114 45.8745 428.203 45.7658 428.208 45.7611C428.208 45.7606 428.213 45.753 428.242 45.7418C428.278 45.7283 428.355 45.7085 428.494 45.7085V43.7085ZM426.114 46.2685V52.2885H428.114V46.2685H426.114ZM426.114 52.2885C426.114 52.2744 426.118 52.0801 426.302 51.8964C426.485 51.7127 426.679 51.7085 426.694 51.7085V53.7085C426.988 53.7085 427.392 53.6343 427.716 53.3106C428.039 52.9869 428.114 52.5826 428.114 52.2885H426.114ZM430.626 44.6285L429.919 45.3356L429.958 45.3748L430.002 45.4094L430.626 44.6285ZM436.646 44.6285L435.939 43.9214L435.939 43.9214L436.646 44.6285ZM434.806 50.2485L434.099 50.9556L434.112 50.9687L434.126 50.9813L434.806 50.2485ZM436.846 52.6285L437.553 53.3356L437.553 53.3356L436.846 52.6285ZM432.846 51.8685L432.148 52.5839L432.156 52.5919L432.846 51.8685ZM431.766 43.7085H430.966V45.7085H431.766V43.7085ZM430.966 43.7085C430.937 43.7085 430.95 43.7056 430.99 43.7151C431.029 43.7241 431.134 43.7542 431.251 43.8476L430.002 45.4094C430.345 45.684 430.752 45.7085 430.966 45.7085V43.7085ZM431.333 43.9214C431.481 44.0686 431.525 44.219 431.536 44.266C431.55 44.3189 431.546 44.3402 431.546 44.3085H429.546C429.546 44.4368 429.556 44.5914 429.596 44.751C429.635 44.9046 429.719 45.1351 429.919 45.3356L431.333 43.9214ZM431.546 44.3085V42.9285H429.546V44.3085H431.546ZM431.546 42.9285C431.546 42.9426 431.542 43.1369 431.358 43.3206C431.175 43.5043 430.98 43.5085 430.966 43.5085V41.5085C430.672 41.5085 430.268 41.5827 429.944 41.9064C429.621 42.2301 429.546 42.6344 429.546 42.9285H431.546ZM430.966 43.5085H431.766V41.5085H430.966V43.5085ZM431.766 43.5085C431.994 43.5085 432.348 43.4509 432.638 43.1606C432.929 42.8703 432.986 42.516 432.986 42.2885H430.986C430.986 42.2077 431.007 41.9634 431.224 41.7464C431.441 41.5294 431.685 41.5085 431.766 41.5085V43.5085ZM432.986 42.2885V40.3885H430.986V42.2885H432.986ZM432.986 40.3885C432.986 40.4148 432.977 40.6152 432.787 40.7969C432.699 40.8805 432.607 40.9255 432.537 40.9477C432.472 40.9685 432.429 40.9685 432.426 40.9685V38.9685C432.137 38.9685 431.734 39.0368 431.406 39.3501C431.069 39.6718 430.986 40.0822 430.986 40.3885H432.986ZM432.426 40.9685H434.106V38.9685H432.426V40.9685ZM434.106 40.9685C434.092 40.9685 433.898 40.9643 433.714 40.7806C433.531 40.5969 433.526 40.4026 433.526 40.3885H435.526C435.526 40.0944 435.452 39.6901 435.128 39.3664C434.805 39.0427 434.4 38.9685 434.106 38.9685V40.9685ZM433.526 40.3885V42.2885H435.526V40.3885H433.526ZM433.526 42.2885C433.526 42.5394 433.599 42.9048 433.911 43.1906C434.206 43.4614 434.553 43.5085 434.766 43.5085V41.5085C434.82 41.5085 435.047 41.5189 435.262 41.7163C435.494 41.9288 435.526 42.1842 435.526 42.2885H433.526ZM434.766 43.5085H436.326V41.5085H434.766V43.5085ZM436.326 43.5085C436.312 43.5085 436.118 43.5043 435.934 43.3206C435.751 43.1369 435.746 42.9426 435.746 42.9285H437.746C437.746 42.6344 437.672 42.2301 437.348 41.9064C437.025 41.5827 436.62 41.5085 436.326 41.5085V43.5085ZM435.746 42.9285V44.3085H437.746V42.9285H435.746ZM435.746 44.3085C435.746 44.3078 435.746 44.2979 435.749 44.2805C435.751 44.2632 435.756 44.2354 435.767 44.2002C435.789 44.1278 435.839 44.0217 435.939 43.9214L437.353 45.3356C437.689 44.9998 437.746 44.5769 437.746 44.3085H435.746ZM435.939 43.9214C436.086 43.7742 436.237 43.7301 436.284 43.7184C436.337 43.7051 436.358 43.7085 436.326 43.7085V45.7085C436.455 45.7085 436.609 45.6985 436.769 45.6586C436.922 45.6202 437.153 45.5361 437.353 45.3356L435.939 43.9214ZM436.326 43.7085H434.766V45.7085H436.326V43.7085ZM434.766 43.7085C434.553 43.7085 434.206 43.7556 433.911 44.0263C433.599 44.3122 433.526 44.6776 433.526 44.9285H435.526C435.526 45.0328 435.494 45.2882 435.262 45.5007C435.047 45.698 434.82 45.7085 434.766 45.7085V43.7085ZM433.526 44.9285V49.3485H435.526V44.9285H433.526ZM433.526 49.3485C433.526 49.8813 433.642 50.4988 434.099 50.9556L435.513 49.5414C435.555 49.5825 435.559 49.611 435.551 49.5864C435.542 49.5575 435.526 49.4843 435.526 49.3485H433.526ZM434.126 50.9813C434.588 51.4104 435.206 51.5085 435.726 51.5085V49.5085C435.576 49.5085 435.489 49.4927 435.448 49.4812C435.41 49.4703 435.439 49.4709 435.487 49.5157L434.126 50.9813ZM435.726 51.5085H436.526V49.5085H435.726V51.5085ZM436.526 51.5085C436.512 51.5085 436.318 51.5043 436.134 51.3206C435.951 51.1369 435.946 50.9426 435.946 50.9285H437.946C437.946 50.6344 437.872 50.2301 437.548 49.9064C437.225 49.5827 436.82 49.5085 436.526 49.5085V51.5085ZM435.946 50.9285V52.3085H437.946V50.9285H435.946ZM435.946 52.3085C435.946 52.3078 435.946 52.2979 435.949 52.2805C435.951 52.2632 435.956 52.2354 435.967 52.2002C435.989 52.1278 436.039 52.0217 436.139 51.9214L437.553 53.3356C437.889 52.9998 437.946 52.5769 437.946 52.3085H435.946ZM436.139 51.9214C436.286 51.7742 436.437 51.7301 436.484 51.7184C436.537 51.7051 436.558 51.7085 436.526 51.7085V53.7085C436.655 53.7085 436.809 53.6985 436.969 53.6586C437.122 53.6202 437.353 53.5361 437.553 53.3356L436.139 51.9214ZM436.526 51.7085H435.306V53.7085H436.526V51.7085ZM435.306 51.7085C434.431 51.7085 433.887 51.4793 433.537 51.1451L432.156 52.5919C432.979 53.3776 434.075 53.7085 435.306 53.7085V51.7085ZM433.545 51.1531C433.217 50.8328 432.986 50.3231 432.986 49.4685H430.986C430.986 50.6939 431.329 51.7842 432.148 52.5839L433.545 51.1531ZM432.986 49.4685V44.9285H430.986V49.4685H432.986ZM432.986 44.9285C432.986 44.701 432.929 44.3467 432.638 44.0564C432.348 43.766 431.994 43.7085 431.766 43.7085V45.7085C431.685 45.7085 431.441 45.6876 431.224 45.4706C431.007 45.2536 430.986 45.0093 430.986 44.9285H432.986ZM438.337 50.7085L439.044 51.4156L439.083 51.3764L439.118 51.3332L438.337 50.7085ZM442.157 48.9885L441.671 49.8627L441.678 49.8662L441.684 49.8697L442.157 48.9885ZM440.177 47.8885L440.663 47.0143L440.647 47.0057L440.631 46.9976L440.177 47.8885ZM438.677 46.7685L439.458 46.1438L439.458 46.1438L438.677 46.7685ZM438.937 43.1685L439.603 43.9148L439.603 43.9148L438.937 43.1685ZM444.917 44.5485L445.624 45.2556L445.663 45.2164L445.698 45.1732L444.917 44.5485ZM441.697 46.1285L442.208 45.2688L442.189 45.2573L442.169 45.2467L441.697 46.1285ZM443.717 47.3285L443.206 48.1882L443.224 48.199L443.243 48.209L443.717 47.3285ZM445.177 48.4885L444.358 49.062L444.362 49.0685L444.367 49.075L445.177 48.4885ZM442.457 51.7085H438.657V53.7085H442.457V51.7085ZM438.657 51.7085C438.691 51.7085 438.896 51.7198 439.081 51.9138C439.257 52.0988 439.257 52.2862 439.257 52.2885H437.257C437.257 52.5708 437.323 52.9682 437.633 53.2932C437.951 53.6272 438.357 53.7085 438.657 53.7085V51.7085ZM439.257 52.2885V51.0085H437.257V52.2885H439.257ZM439.257 51.0085C439.257 50.9891 439.26 51.0203 439.243 51.0812C439.227 51.1406 439.18 51.28 439.044 51.4156L437.63 50.0014C437.276 50.3552 437.257 50.8171 437.257 51.0085H439.257ZM439.118 51.3332C438.987 51.4969 438.834 51.5634 438.755 51.588C438.68 51.6114 438.638 51.6085 438.657 51.6085V49.6085C438.44 49.6085 437.913 49.6381 437.556 50.0838L439.118 51.3332ZM438.657 51.6085H441.997V49.6085H438.657V51.6085ZM441.997 51.6085C442.393 51.6085 442.858 51.5537 443.254 51.3113C443.73 51.02 443.977 50.5378 443.977 50.0085H441.977C441.977 49.9701 441.986 49.8878 442.038 49.7928C442.09 49.6959 442.161 49.6358 442.21 49.6056C442.253 49.5795 442.267 49.5827 442.226 49.5912C442.186 49.5994 442.112 49.6085 441.997 49.6085V51.6085ZM443.977 50.0085V49.9085H441.977V50.0085H443.977ZM443.977 49.9085C443.977 48.9746 443.204 48.4151 442.63 48.1073L441.684 49.8697C441.789 49.9256 441.867 49.9756 441.925 50.018C441.984 50.0608 442.014 50.0904 442.026 50.1039C442.037 50.117 442.025 50.1067 442.009 50.0708C441.992 50.0318 441.977 49.9753 441.977 49.9085H443.977ZM442.643 48.1143L440.663 47.0143L439.691 48.7627L441.671 49.8627L442.643 48.1143ZM440.631 46.9976C440.021 46.6866 439.657 46.3922 439.458 46.1438L437.896 47.3932C438.338 47.9448 438.973 48.397 439.723 48.7794L440.631 46.9976ZM439.458 46.1438C439.309 45.958 439.197 45.6804 439.197 45.2285H437.197C437.197 46.03 437.405 46.779 437.896 47.3932L439.458 46.1438ZM439.197 45.2285C439.197 44.4592 439.398 44.0972 439.603 43.9148L438.271 42.4222C437.489 43.1198 437.197 44.1311 437.197 45.2285H439.197ZM439.603 43.9148C439.831 43.7113 440.311 43.5085 441.257 43.5085V41.5085C440.096 41.5085 439.03 41.7457 438.271 42.4222L439.603 43.9148ZM441.257 43.5085H444.597V41.5085H441.257V43.5085ZM444.597 43.5085C444.563 43.5085 444.358 43.4972 444.173 43.3032C443.997 43.1182 443.997 42.9308 443.997 42.9285H445.997C445.997 42.6462 445.931 42.2488 445.621 41.9238C445.303 41.5898 444.897 41.5085 444.597 41.5085V43.5085ZM443.997 42.9285V44.2285H445.997V42.9285H443.997ZM443.997 44.2285C443.997 44.2454 443.995 44.2233 444.007 44.176C444.019 44.1284 444.051 44.0302 444.136 43.9238L445.698 45.1732C445.964 44.8408 445.997 44.4547 445.997 44.2285H443.997ZM444.21 43.8414C444.357 43.6942 444.508 43.6501 444.555 43.6384C444.608 43.6251 444.629 43.6285 444.597 43.6285V45.6285C444.725 45.6285 444.88 45.6185 445.04 45.5786C445.193 45.5402 445.424 45.4561 445.624 45.2556L444.21 43.8414ZM444.597 43.6285H441.817V45.6285H444.597V43.6285ZM441.817 43.6285C441.438 43.6285 441.002 43.6715 440.628 43.8627C440.426 43.9657 440.217 44.1244 440.061 44.3628C439.902 44.6064 439.837 44.8743 439.837 45.1285H441.837C441.837 45.2161 441.813 45.338 441.735 45.4567C441.661 45.5701 441.575 45.6246 441.537 45.6443C441.502 45.6617 441.5 45.655 441.556 45.6456C441.609 45.6366 441.694 45.6285 441.817 45.6285V43.6285ZM439.837 45.1285V45.2285H441.837V45.1285H439.837ZM439.837 45.2285C439.837 45.7227 440.082 46.1057 440.329 46.3644C440.575 46.6215 440.892 46.832 441.225 47.0103L442.169 45.2467C442.054 45.1851 441.964 45.13 441.897 45.0826C441.829 45.0346 441.792 45.0004 441.775 44.9826C441.736 44.9413 441.837 45.0276 441.837 45.2285H439.837ZM441.186 46.9882L443.206 48.1882L444.228 46.4688L442.208 45.2688L441.186 46.9882ZM443.243 48.209C443.874 48.5486 444.206 48.8449 444.358 49.062L445.996 47.915C445.588 47.3321 444.947 46.855 444.191 46.448L443.243 48.209ZM444.367 49.075C444.488 49.2415 444.597 49.5283 444.597 50.0285H446.597C446.597 49.2487 446.426 48.5088 445.987 47.902L444.367 49.075ZM444.597 50.0285C444.597 50.7226 444.401 51.0745 444.163 51.2779C443.894 51.5072 443.385 51.7085 442.457 51.7085V53.7085C443.623 53.7085 444.683 53.4632 445.461 52.7991C446.27 52.1092 446.597 51.121 446.597 50.0285H444.597ZM457.901 50.3285L458.582 51.0613L458.583 51.0596L457.901 50.3285ZM457.901 47.3885L457.246 48.1442L457.246 48.1442L457.901 47.3885ZM457.701 44.8085L458.356 45.5642L458.37 45.5521L458.383 45.5396L457.701 44.8085ZM457.701 42.2485L456.994 42.9556L457.019 42.9808L457.046 43.0042L457.701 42.2485ZM459.621 40.6885L458.922 41.4039L458.922 41.4039L459.621 40.6885ZM458.901 46.1085L458.599 45.1551L458.753 47.0974L458.901 46.1085ZM460.181 46.7685L459.434 47.4329L459.44 47.4399L459.446 47.4468L460.181 46.7685ZM454.721 51.5885H456.961V49.5885H454.721V51.5885ZM456.961 51.5885C457.485 51.5885 458.115 51.4944 458.582 51.0613L457.221 49.5957C457.273 49.5474 457.303 49.5476 457.26 49.5597C457.214 49.5722 457.121 49.5885 456.961 49.5885V51.5885ZM458.583 51.0596C459.07 50.6053 459.201 49.978 459.201 49.4285H457.201C457.201 49.5588 457.185 49.6251 457.177 49.6473C457.172 49.6638 457.179 49.6346 457.219 49.5974L458.583 51.0596ZM459.201 49.4285V48.2685H457.201V49.4285H459.201ZM459.201 48.2685C459.201 47.7272 459.074 47.0813 458.556 46.6328L457.246 48.1442C457.221 48.1222 457.203 48.0997 457.191 48.0818C457.18 48.0645 457.178 48.0557 457.18 48.0612C457.185 48.0758 457.201 48.1373 457.201 48.2685H459.201ZM458.556 46.6328C458.083 46.2229 457.458 46.1285 456.921 46.1285V48.1285C457.089 48.1285 457.193 48.145 457.25 48.1601C457.305 48.1748 457.289 48.1809 457.246 48.1442L458.556 46.6328ZM456.921 46.1285H454.721V48.1285H456.921V46.1285ZM454.721 46.1285C454.494 46.1285 454.139 46.186 453.849 46.4764C453.559 46.7667 453.501 47.121 453.501 47.3485H455.501C455.501 47.4293 455.48 47.6736 455.263 47.8906C455.046 48.1076 454.802 48.1285 454.721 48.1285V46.1285ZM453.501 47.3485V50.3685H455.501V47.3485H453.501ZM453.501 50.3685C453.501 50.596 453.559 50.9503 453.849 51.2406C454.139 51.5309 454.494 51.5885 454.721 51.5885V49.5885C454.802 49.5885 455.046 49.6094 455.263 49.8264C455.48 50.0434 455.501 50.2877 455.501 50.3685H453.501ZM454.721 46.0685H456.761V44.0685H454.721V46.0685ZM456.761 46.0685C457.29 46.0685 457.892 45.9668 458.356 45.5642L457.046 44.0528C457.081 44.0224 457.095 44.0271 457.05 44.0397C457.002 44.0529 456.911 44.0685 456.761 44.0685V46.0685ZM458.383 45.5396C458.87 45.0853 459.001 44.458 459.001 43.9085H457.001C457.001 44.0388 456.985 44.1051 456.977 44.1273C456.972 44.1438 456.979 44.1146 457.019 44.0774L458.383 45.5396ZM459.001 43.9085V43.1285H457.001V43.9085H459.001ZM459.001 43.1285C459.001 42.5872 458.874 41.9413 458.356 41.4928L457.046 43.0042C457.021 42.9822 457.003 42.9597 456.991 42.9418C456.98 42.9245 456.978 42.9157 456.98 42.9212C456.985 42.9358 457.001 42.9973 457.001 43.1285H459.001ZM458.408 41.5414C457.947 41.0797 457.316 40.9685 456.781 40.9685V42.9685C456.926 42.9685 457.006 42.9849 457.04 42.9952C457.07 43.0042 457.039 43.0007 456.994 42.9556L458.408 41.5414ZM456.781 40.9685H454.721V42.9685H456.781V40.9685ZM454.721 40.9685C454.494 40.9685 454.139 41.026 453.849 41.3164C453.559 41.6067 453.501 41.961 453.501 42.1885H455.501C455.501 42.2693 455.48 42.5136 455.263 42.7306C455.046 42.9476 454.802 42.9685 454.721 42.9685V40.9685ZM453.501 42.1885V44.8485H455.501V42.1885H453.501ZM453.501 44.8485C453.501 45.076 453.559 45.4303 453.849 45.7206C454.139 46.0109 454.494 46.0685 454.721 46.0685V44.0685C454.802 44.0685 455.046 44.0894 455.263 44.3064C455.48 44.5234 455.501 44.7677 455.501 44.8485H453.501ZM452.961 52.2885V40.2685H450.961V52.2885H452.961ZM452.961 40.2685C452.961 40.2826 452.957 40.4769 452.773 40.6606C452.59 40.8443 452.395 40.8485 452.381 40.8485V38.8485C452.087 38.8485 451.683 38.9227 451.359 39.2464C451.035 39.5701 450.961 39.9744 450.961 40.2685H452.961ZM452.381 40.8485H457.181V38.8485H452.381V40.8485ZM457.181 40.8485C458.058 40.8485 458.589 41.0781 458.922 41.4039L460.32 39.9731C459.507 39.1789 458.411 38.8485 457.181 38.8485V40.8485ZM458.922 41.4039C459.25 41.7242 459.481 42.2339 459.481 43.0885H461.481C461.481 41.8631 461.139 40.7728 460.32 39.9731L458.922 41.4039ZM459.481 43.0885V43.9085H461.481V43.0885H459.481ZM459.481 43.9085C459.481 44.3197 459.387 44.5676 459.274 44.7252C459.162 44.8804 458.967 45.0386 458.599 45.1551L459.203 47.0619C459.888 46.845 460.483 46.4699 460.898 45.8918C461.312 45.3161 461.481 44.6306 461.481 43.9085H459.481ZM458.753 47.0974C459.084 47.1471 459.288 47.2689 459.434 47.4329L460.929 46.1041C460.434 45.5481 459.785 45.2299 459.049 45.1196L458.753 47.0974ZM459.446 47.4468C459.54 47.5478 459.661 47.7691 459.661 48.2685H461.661C461.661 47.4612 461.463 46.6825 460.916 46.0902L459.446 47.4468ZM459.661 48.2685V49.4685H461.661V48.2685H459.661ZM459.661 49.4685C459.661 50.3231 459.43 50.8328 459.102 51.1531L460.5 52.5839C461.319 51.7842 461.661 50.6939 461.661 49.4685H459.661ZM459.102 51.1531C458.767 51.4811 458.241 51.7085 457.381 51.7085V53.7085C458.601 53.7085 459.689 53.3759 460.5 52.5839L459.102 51.1531ZM457.381 51.7085H452.381V53.7085H457.381V51.7085ZM452.381 51.7085C452.395 51.7085 452.59 51.7127 452.773 51.8964C452.957 52.0801 452.961 52.2744 452.961 52.2885H450.961C450.961 52.5826 451.035 52.9869 451.359 53.3106C451.683 53.6343 452.087 53.7085 452.381 53.7085V51.7085ZM463.515 51.8685L464.214 51.1531L463.515 51.8685ZM463.515 43.3485L464.214 44.0639L464.214 44.0639L463.515 43.3485ZM470.155 43.3685L469.448 44.0756L469.456 44.0838L469.464 44.0919L470.155 43.3685ZM470.155 51.8685L470.854 52.5839L470.854 52.5837L470.155 51.8685ZM468.255 50.2685L467.574 49.5357L467.561 49.5483L467.548 49.5614L468.255 50.2685ZM468.255 44.9485L467.548 45.6556L467.561 45.6687L467.574 45.6813L468.255 44.9485ZM465.435 44.9485L466.142 45.6556L466.142 45.6556L465.435 44.9485ZM465.435 50.2685L466.142 49.5614L466.142 49.5614L465.435 50.2685ZM467.735 51.7085H465.955V53.7085H467.735V51.7085ZM465.955 51.7085C465.078 51.7085 464.547 51.4789 464.214 51.1531L462.816 52.5839C463.629 53.3781 464.725 53.7085 465.955 53.7085V51.7085ZM464.214 51.1531C463.888 50.8351 463.655 50.3207 463.655 49.4485H461.655C461.655 50.6829 461.995 51.7819 462.816 52.5839L464.214 51.1531ZM463.655 49.4485V45.7685H461.655V49.4485H463.655ZM463.655 45.7685C463.655 44.8962 463.888 44.3819 464.214 44.0639L462.816 42.6331C461.995 43.4351 461.655 44.5341 461.655 45.7685H463.655ZM464.214 44.0639C464.547 43.7381 465.078 43.5085 465.955 43.5085V41.5085C464.725 41.5085 463.629 41.8389 462.816 42.6331L464.214 44.0639ZM465.955 43.5085H467.735V41.5085H465.955V43.5085ZM467.735 43.5085C468.588 43.5085 469.111 43.7388 469.448 44.0756L470.862 42.6614C470.052 41.8515 468.962 41.5085 467.735 41.5085V43.5085ZM469.464 44.0919C469.801 44.4135 470.035 44.9204 470.035 45.7685H472.035C472.035 44.5366 471.682 43.4435 470.845 42.6451L469.464 44.0919ZM470.035 45.7685V49.4485H472.035V45.7685H470.035ZM470.035 49.4485C470.035 50.2954 469.802 50.8154 469.456 51.1533L470.854 52.5837C471.681 51.775 472.035 50.6816 472.035 49.4485H470.035ZM469.456 51.1531C469.12 51.4811 468.595 51.7085 467.735 51.7085V53.7085C468.955 53.7085 470.043 53.3759 470.854 52.5839L469.456 51.1531ZM466.335 51.5285H467.355V49.5285H466.335V51.5285ZM467.355 51.5285C467.865 51.5285 468.503 51.4347 468.962 50.9756L467.548 49.5614C467.609 49.5002 467.654 49.4938 467.622 49.5028C467.589 49.5125 467.506 49.5285 467.355 49.5285V51.5285ZM468.935 51.0013C469.428 50.5441 469.535 49.8941 469.535 49.3685H467.535C467.535 49.5146 467.518 49.5901 467.51 49.6164C467.503 49.6383 467.513 49.5926 467.574 49.5357L468.935 51.0013ZM469.535 49.3685V45.8485H467.535V49.3685H469.535ZM469.535 45.8485C469.535 45.3229 469.428 44.6729 468.935 44.2157L467.574 45.6813C467.513 45.6244 467.503 45.5787 467.51 45.6006C467.518 45.6269 467.535 45.7024 467.535 45.8485H469.535ZM468.962 44.2414C468.503 43.7823 467.865 43.6885 467.355 43.6885V45.6885C467.506 45.6885 467.589 45.7045 467.622 45.7142C467.654 45.7232 467.609 45.7168 467.548 45.6556L468.962 44.2414ZM467.355 43.6885H466.335V45.6885H467.355V43.6885ZM466.335 43.6885C465.825 43.6885 465.187 43.7823 464.728 44.2414L466.142 45.6556C466.081 45.7168 466.036 45.7232 466.067 45.7142C466.101 45.7045 466.184 45.6885 466.335 45.6885V43.6885ZM464.728 44.2414C464.269 44.7005 464.175 45.3388 464.175 45.8485H466.175C466.175 45.6973 466.191 45.6147 466.201 45.581C466.21 45.5499 466.203 45.5944 466.142 45.6556L464.728 44.2414ZM464.175 45.8485V49.3685H466.175V45.8485H464.175ZM464.175 49.3685C464.175 49.8782 464.269 50.5165 464.728 50.9756L466.142 49.5614C466.203 49.6226 466.21 49.6671 466.201 49.636C466.191 49.6023 466.175 49.5197 466.175 49.3685H464.175ZM464.728 50.9756C465.187 51.4347 465.825 51.5285 466.335 51.5285V49.5285C466.184 49.5285 466.101 49.5125 466.067 49.5028C466.036 49.4938 466.081 49.5002 466.142 49.5614L464.728 50.9756ZM472.371 52.2885L473.239 52.7846L473.247 52.7699L473.255 52.7549L472.371 52.2885ZM474.891 47.5085L475.775 47.9749L476.026 47.4984L475.767 47.0264L474.891 47.5085ZM472.371 42.9285L471.468 43.3584L471.48 43.3849L471.495 43.4106L472.371 42.9285ZM475.271 42.9285L474.322 43.2447L474.333 43.2785L474.347 43.3114L475.271 42.9285ZM476.531 45.9685L475.607 46.3514L475.863 46.9685H476.531V45.9685ZM476.611 45.9685V46.9685H477.312L477.551 46.3087L476.611 45.9685ZM477.711 42.9285L478.651 43.2687L478.655 43.2568L478.659 43.2447L477.711 42.9285ZM480.591 42.9285L479.74 42.4021L479.722 42.4326L479.705 42.4643L480.591 42.9285ZM478.191 47.5085L477.305 47.0443L477.058 47.5154L477.311 47.9835L478.191 47.5085ZM480.771 52.2885L479.891 52.7635L479.897 52.7741L480.771 52.2885ZM480.791 52.5885L479.959 52.0338L479.924 52.0856L479.896 52.1413L480.791 52.5885ZM477.871 52.2885L476.946 52.6692L476.949 52.6759L476.952 52.6824L477.871 52.2885ZM476.611 49.2285L477.535 48.8477L477.28 48.2285H476.611V49.2285ZM476.531 49.2285V48.2285H475.861L475.606 48.8477L476.531 49.2285ZM475.271 52.2885L474.346 51.9077L474.333 51.9396L474.322 51.9723L475.271 52.2885ZM474.671 51.7085H472.651V53.7085H474.671V51.7085ZM472.651 51.7085C472.621 51.7085 472.662 51.7042 472.741 51.7293C472.823 51.7553 473.01 51.8353 473.153 52.0488C473.303 52.274 473.306 52.5013 473.286 52.629C473.268 52.741 473.231 52.7983 473.239 52.7846L471.502 51.7924C471.406 51.9613 471.092 52.5631 471.489 53.1582C471.678 53.4417 471.943 53.5742 472.135 53.6352C472.324 53.6953 472.507 53.7085 472.651 53.7085V51.7085ZM473.255 52.7549L475.775 47.9749L474.006 47.0421L471.486 51.8221L473.255 52.7549ZM475.767 47.0264L473.247 42.4464L471.495 43.4106L474.015 47.9906L475.767 47.0264ZM473.274 42.4986C473.267 42.4841 473.291 42.5292 473.303 42.6188C473.315 42.7143 473.316 42.9048 473.199 43.1096C473.078 43.3216 472.9 43.4266 472.782 43.4711C472.726 43.4921 472.681 43.5008 472.655 43.5046C472.629 43.5084 472.613 43.5085 472.611 43.5085V41.5085C472.398 41.5085 471.789 41.5453 471.462 42.1174C471.157 42.6512 471.382 43.1788 471.468 43.3584L473.274 42.4986ZM472.611 43.5085H474.651V41.5085H472.611V43.5085ZM474.651 43.5085C474.667 43.5085 474.588 43.5114 474.485 43.4414C474.375 43.3667 474.332 43.2739 474.322 43.2447L476.219 42.6123C476.116 42.3031 475.923 42.0003 475.607 41.7856C475.297 41.5756 474.955 41.5085 474.651 41.5085V43.5085ZM474.347 43.3114L475.607 46.3514L477.454 45.5856L476.194 42.5456L474.347 43.3114ZM476.531 46.9685H476.611V44.9685H476.531V46.9685ZM477.551 46.3087L478.651 43.2687L476.77 42.5882L475.67 45.6282L477.551 46.3087ZM478.659 43.2447C478.65 43.2739 478.607 43.3667 478.497 43.4414C478.393 43.5114 478.315 43.5085 478.331 43.5085V41.5085C478.027 41.5085 477.685 41.5756 477.375 41.7856C477.058 42.0003 476.865 42.3031 476.762 42.6123L478.659 43.2447ZM478.331 43.5085H480.331V41.5085H478.331V43.5085ZM480.331 43.5085C480.362 43.5085 480.317 43.513 480.234 43.4863C480.149 43.4587 479.949 43.3719 479.805 43.1398C479.656 42.8979 479.668 42.6624 479.693 42.5427C479.715 42.436 479.752 42.3842 479.74 42.4021L481.441 43.4548C481.516 43.3328 481.608 43.1585 481.651 42.9468C481.698 42.7221 481.699 42.399 481.506 42.0871C481.319 41.7851 481.043 41.6458 480.849 41.5832C480.658 41.5215 480.473 41.5085 480.331 41.5085V43.5085ZM479.705 42.4643L477.305 47.0443L479.076 47.9726L481.476 43.3926L479.705 42.4643ZM477.311 47.9835L479.891 52.7635L481.651 51.8135L479.071 47.0335L477.311 47.9835ZM479.897 52.7741C479.883 52.7502 479.837 52.661 479.828 52.52C479.817 52.3603 479.858 52.1851 479.959 52.0338L481.623 53.1432C481.968 52.625 481.805 52.0915 481.645 51.8029L479.897 52.7741ZM479.896 52.1413C479.985 51.964 480.129 51.8388 480.277 51.7705C480.406 51.7108 480.506 51.7085 480.531 51.7085V53.7085C480.835 53.7085 481.399 53.6073 481.685 53.0357L479.896 52.1413ZM480.531 51.7085H478.471V53.7085H480.531V51.7085ZM478.471 51.7085C478.505 51.7085 478.592 51.7199 478.684 51.7843C478.77 51.8447 478.795 51.9056 478.79 51.8946L476.952 52.6824C477.067 52.9514 477.251 53.2223 477.537 53.4227C477.829 53.6271 478.157 53.7085 478.471 53.7085V51.7085ZM478.795 51.9077L477.535 48.8477L475.686 49.6092L476.946 52.6692L478.795 51.9077ZM476.611 48.2285H476.531V50.2285H476.611V48.2285ZM475.606 48.8477L474.346 51.9077L476.195 52.6692L477.455 49.6092L475.606 48.8477ZM474.322 51.9723C474.329 51.9523 474.367 51.8613 474.477 51.7843C474.584 51.7096 474.672 51.7085 474.671 51.7085V53.7085C474.976 53.7085 475.317 53.6374 475.624 53.4227C475.934 53.2057 476.119 52.9047 476.219 52.6047L474.322 51.9723Z" fill="url(#paint2_linear_222_6720)"/>
<path d="M394.695 47.8709V47.4709C394.695 47.1909 394.835 47.0509 395.115 47.0509H396.815C397.095 47.0509 397.235 47.1909 397.235 47.4709V47.6309C397.235 48.1375 397.335 48.4842 397.535 48.6709C397.735 48.8575 398.102 48.9509 398.635 48.9509H399.575C400.095 48.9509 400.455 48.8509 400.655 48.6509C400.868 48.4509 400.975 48.0775 400.975 47.5309V47.2909C400.975 46.9042 400.815 46.6109 400.495 46.4109C400.188 46.1975 399.802 46.0709 399.335 46.0309C398.868 45.9909 398.362 45.9175 397.815 45.8109C397.282 45.6909 396.782 45.5442 396.315 45.3709C395.848 45.1842 395.455 44.8309 395.135 44.3109C394.828 43.7775 394.675 43.0975 394.675 42.2709V41.5709C394.675 40.5309 394.968 39.7242 395.555 39.1509C396.142 38.5775 396.955 38.2909 397.995 38.2909H399.995C401.048 38.2909 401.868 38.5775 402.455 39.1509C403.042 39.7242 403.335 40.5309 403.335 41.5709V41.9509C403.335 42.2309 403.195 42.3709 402.915 42.3709H401.215C400.935 42.3709 400.795 42.2309 400.795 41.9509V41.8309C400.795 41.3109 400.695 40.9575 400.495 40.7709C400.295 40.5842 399.928 40.4909 399.395 40.4909H398.615C398.068 40.4909 397.695 40.5975 397.495 40.8109C397.308 41.0109 397.215 41.4109 397.215 42.0109V42.3909C397.215 43.0175 397.762 43.3775 398.855 43.4709C399.988 43.5642 400.995 43.7909 401.875 44.1509C402.342 44.3509 402.728 44.7109 403.035 45.2309C403.355 45.7375 403.515 46.3909 403.515 47.1909V47.8709C403.515 48.9109 403.222 49.7175 402.635 50.2909C402.048 50.8642 401.235 51.1509 400.195 51.1509H398.015C396.975 51.1509 396.162 50.8642 395.575 50.2909C394.988 49.7175 394.695 48.9109 394.695 47.8709ZM405.816 43.1509H405.016C404.856 43.1509 404.743 43.1242 404.676 43.0709C404.623 43.0175 404.596 42.9109 404.596 42.7509V41.3709C404.596 41.0909 404.736 40.9509 405.016 40.9509H405.816C405.963 40.9509 406.036 40.8775 406.036 40.7309V38.8309C406.036 38.5509 406.183 38.4109 406.476 38.4109H408.156C408.436 38.4109 408.576 38.5509 408.576 38.8309V40.7309C408.576 40.8775 408.656 40.9509 408.816 40.9509H410.376C410.656 40.9509 410.796 41.0909 410.796 41.3709V42.7509C410.796 42.8975 410.763 43.0042 410.696 43.0709C410.643 43.1242 410.536 43.1509 410.376 43.1509H408.816C408.656 43.1509 408.576 43.2242 408.576 43.3709V47.7909C408.576 48.2042 408.669 48.5042 408.856 48.6909C409.043 48.8642 409.349 48.9509 409.776 48.9509H410.576C410.856 48.9509 410.996 49.0909 410.996 49.3709V50.7509C410.996 50.8975 410.963 51.0042 410.896 51.0709C410.843 51.1242 410.736 51.1509 410.576 51.1509H409.356C408.303 51.1509 407.483 50.8709 406.896 50.3109C406.323 49.7509 406.036 48.9509 406.036 47.9109V43.3709C406.036 43.2242 405.963 43.1509 405.816 43.1509ZM416.227 51.1509H415.747C414.694 51.1509 413.88 50.8709 413.307 50.3109C412.734 49.7509 412.447 48.9442 412.447 47.8909V44.2109C412.447 43.1575 412.734 42.3509 413.307 41.7909C413.88 41.2309 414.694 40.9509 415.747 40.9509H420.367C420.66 40.9509 420.807 41.0909 420.807 41.3709V50.7309C420.807 51.0109 420.66 51.1509 420.367 51.1509H418.687C418.407 51.1509 418.267 51.0109 418.267 50.7309V50.0709H418.187C418.04 50.4309 417.78 50.7042 417.407 50.8909C417.034 51.0642 416.64 51.1509 416.227 51.1509ZM418.267 47.4309V43.3709C418.267 43.2242 418.187 43.1509 418.027 43.1509H416.147C415.72 43.1509 415.42 43.2442 415.247 43.4309C415.074 43.6042 414.987 43.9042 414.987 44.3309V47.7709C414.987 48.1975 415.074 48.5042 415.247 48.6909C415.42 48.8642 415.72 48.9509 416.147 48.9509H416.887C417.807 48.9509 418.267 48.4442 418.267 47.4309ZM425.118 51.1509H423.418C423.138 51.1509 422.998 51.0109 422.998 50.7309V41.3709C422.998 41.0909 423.138 40.9509 423.418 40.9509H425.118C425.398 40.9509 425.538 41.0909 425.538 41.3709V42.0509H425.618C425.765 41.6909 426.025 41.4175 426.398 41.2309C426.772 41.0442 427.165 40.9509 427.578 40.9509H428.298C428.565 40.9509 428.698 41.0909 428.698 41.3709V42.7509C428.698 42.9109 428.665 43.0242 428.598 43.0909C428.545 43.1442 428.445 43.1642 428.298 43.1509H426.918C425.998 43.1509 425.538 43.6709 425.538 44.7109V50.7309C425.538 51.0109 425.398 51.1509 425.118 51.1509ZM430.191 43.1509H429.391C429.231 43.1509 429.118 43.1242 429.051 43.0709C428.998 43.0175 428.971 42.9109 428.971 42.7509V41.3709C428.971 41.0909 429.111 40.9509 429.391 40.9509H430.191C430.338 40.9509 430.411 40.8775 430.411 40.7309V38.8309C430.411 38.5509 430.558 38.4109 430.851 38.4109H432.531C432.811 38.4109 432.951 38.5509 432.951 38.8309V40.7309C432.951 40.8775 433.031 40.9509 433.191 40.9509H434.751C435.031 40.9509 435.171 41.0909 435.171 41.3709V42.7509C435.171 42.8975 435.138 43.0042 435.071 43.0709C435.018 43.1242 434.911 43.1509 434.751 43.1509H433.191C433.031 43.1509 432.951 43.2242 432.951 43.3709V47.7909C432.951 48.2042 433.044 48.5042 433.231 48.6909C433.418 48.8642 433.724 48.9509 434.151 48.9509H434.951C435.231 48.9509 435.371 49.0909 435.371 49.3709V50.7509C435.371 50.8975 435.338 51.0042 435.271 51.0709C435.218 51.1242 435.111 51.1509 434.951 51.1509H433.731C432.678 51.1509 431.858 50.8709 431.271 50.3109C430.698 49.7509 430.411 48.9509 430.411 47.9109V43.3709C430.411 43.2242 430.338 43.1509 430.191 43.1509ZM440.882 51.1509H437.082C436.815 51.1509 436.682 51.0109 436.682 50.7309V49.4509C436.682 49.3042 436.709 49.2042 436.762 49.1509C436.815 49.0842 436.922 49.0509 437.082 49.0509H440.422C441.075 49.0509 441.402 48.8509 441.402 48.4509V48.3509C441.402 48.0309 441.129 47.7242 440.582 47.4309L438.602 46.3309C437.922 45.9842 437.422 45.6109 437.102 45.2109C436.782 44.8109 436.622 44.2975 436.622 43.6709C436.622 42.7375 436.869 42.0509 437.362 41.6109C437.855 41.1709 438.629 40.9509 439.682 40.9509H443.022C443.289 40.9509 443.422 41.0909 443.422 41.3709V42.6709C443.422 42.8175 443.395 42.9242 443.342 42.9909C443.289 43.0442 443.182 43.0709 443.022 43.0709H440.242C439.589 43.0709 439.262 43.2375 439.262 43.5709V43.6709C439.262 43.9642 439.549 44.2642 440.122 44.5709L442.142 45.7709C442.835 46.1442 443.322 46.5309 443.602 46.9309C443.882 47.3175 444.022 47.8309 444.022 48.4709C444.022 50.2575 442.975 51.1509 440.882 51.1509ZM453.146 49.0309H455.386C455.826 49.0309 456.139 48.9442 456.326 48.7709C456.526 48.5842 456.626 48.2842 456.626 47.8709V46.7109C456.626 46.2975 456.526 46.0042 456.326 45.8309C456.126 45.6575 455.799 45.5709 455.346 45.5709H453.146C452.999 45.5709 452.926 45.6442 452.926 45.7909V48.8109C452.926 48.9575 452.999 49.0309 453.146 49.0309ZM453.146 43.5109H455.186C455.613 43.5109 455.926 43.4242 456.126 43.2509C456.326 43.0642 456.426 42.7642 456.426 42.3509V41.5709C456.426 41.1575 456.326 40.8642 456.126 40.6909C455.939 40.5042 455.633 40.4109 455.206 40.4109H453.146C452.999 40.4109 452.926 40.4842 452.926 40.6309V43.2909C452.926 43.4375 452.999 43.5109 453.146 43.5109ZM450.386 50.7309V38.7109C450.386 38.4309 450.526 38.2909 450.806 38.2909H455.606C456.659 38.2909 457.473 38.5709 458.046 39.1309C458.619 39.6909 458.906 40.4909 458.906 41.5309V42.3509C458.906 43.4842 458.379 44.2175 457.326 44.5509C457.859 44.6309 458.286 44.8509 458.606 45.2109C458.926 45.5575 459.086 46.0575 459.086 46.7109V47.9109C459.086 48.9509 458.799 49.7509 458.226 50.3109C457.653 50.8709 456.846 51.1509 455.806 51.1509H450.806C450.526 51.1509 450.386 51.0109 450.386 50.7309ZM466.16 51.1509H464.38C463.326 51.1509 462.513 50.8709 461.94 50.3109C461.366 49.7509 461.08 48.9442 461.08 47.8909V44.2109C461.08 43.1575 461.366 42.3509 461.94 41.7909C462.513 41.2309 463.326 40.9509 464.38 40.9509H466.16C467.2 40.9509 468.006 41.2375 468.58 41.8109C469.166 42.3709 469.46 43.1709 469.46 44.2109V47.8909C469.46 48.9309 469.166 49.7375 468.58 50.3109C468.006 50.8709 467.2 51.1509 466.16 51.1509ZM464.76 48.9709H465.78C466.206 48.9709 466.506 48.8842 466.68 48.7109C466.866 48.5375 466.96 48.2375 466.96 47.8109V44.2909C466.96 43.8642 466.866 43.5642 466.68 43.3909C466.506 43.2175 466.206 43.1309 465.78 43.1309H464.76C464.333 43.1309 464.033 43.2175 463.86 43.3909C463.686 43.5642 463.6 43.8642 463.6 44.2909V47.8109C463.6 48.2375 463.686 48.5375 463.86 48.7109C464.033 48.8842 464.333 48.9709 464.76 48.9709ZM473.095 51.1509H471.075C470.729 51.1509 470.635 51.0109 470.795 50.7309L473.315 45.9509L470.795 41.3709C470.662 41.0909 470.742 40.9509 471.035 40.9509H473.075C473.395 40.9509 473.602 41.0909 473.695 41.3709L474.955 44.4109H475.035L476.135 41.3709C476.229 41.0909 476.435 40.9509 476.755 40.9509H478.755C479.102 40.9509 479.189 41.0909 479.015 41.3709L476.615 45.9509L479.195 50.7309C479.262 50.8509 479.269 50.9509 479.215 51.0309C479.175 51.1109 479.089 51.1509 478.955 51.1509H476.895C476.615 51.1509 476.415 51.0109 476.295 50.7309L475.035 47.6709H474.955L473.695 50.7309C473.602 51.0109 473.402 51.1509 473.095 51.1509Z" fill="white"/>
<g filter="url(#filter1_d_222_6720)">
<path d="M566.117 34.9612C566.735 28.356 576.377 28.3561 576.995 34.9612C577.24 37.5759 579.311 39.6466 581.925 39.8912C588.53 40.5092 588.53 50.1512 581.925 50.7692C579.311 51.0138 577.24 53.0845 576.995 55.6992C576.377 62.3043 566.735 62.3043 566.117 55.6992C565.873 53.0845 563.802 51.0138 561.187 50.7692C554.582 50.1512 554.582 40.5092 561.187 39.8912C563.802 39.6466 565.873 37.5759 566.117 34.9612Z" fill="#08B9FF"/>
</g>
<path fill-rule="evenodd" clip-rule="evenodd" d="M567.665 34.7096C567.331 38.2821 564.502 41.1112 560.929 41.4455C556.473 41.8624 556.473 48.367 560.929 48.7839C564.502 49.1182 567.331 51.9472 567.665 55.5198C568.082 59.9757 574.587 59.9757 575.004 55.5198C575.338 51.9472 578.167 49.1182 581.739 48.7839C586.195 48.367 586.195 41.8624 581.739 41.4455C578.167 41.1112 575.338 38.2821 575.004 34.7096C574.587 30.2537 568.082 30.2537 567.665 34.7096ZM576.885 34.5336C576.254 27.7935 566.415 27.7935 565.784 34.5336C565.535 37.2019 563.422 39.3149 560.753 39.5645C554.013 40.1952 554.013 50.0342 560.753 50.6649C563.422 50.9145 565.535 53.0275 565.784 55.6957C566.415 62.4359 576.254 62.4359 576.885 55.6957C577.134 53.0275 579.247 50.9145 581.915 50.6649C588.656 50.0342 588.656 40.1952 581.915 39.5645C579.247 39.3149 577.134 37.2019 576.885 34.5336Z" fill="url(#paint3_linear_222_6720)"/>
<g filter="url(#filter2_f_222_6720)">
<ellipse cx="138.645" cy="178.982" rx="37.7502" ry="3.09487" fill="#008BC2"/>
</g>
<mask id="path-9-inside-1_222_6720" fill="white">
<path fill-rule="evenodd" clip-rule="evenodd" d="M71.0391 65.3794C69.1613 65.3794 67.6391 66.9016 67.6391 68.7794V87.8862H59.1256C57.2478 87.8862 55.7256 89.4084 55.7256 91.2862V110.964C55.7256 112.842 57.2478 114.364 59.1256 114.364H67.6391V133.471C67.6391 135.348 69.1613 136.871 71.0391 136.871H82.7739C84.6516 136.871 86.1739 135.348 86.1739 133.471V68.7794C86.1739 66.9016 84.6517 65.3794 82.7739 65.3794H71.0391Z"/>
</mask>
<path fill-rule="evenodd" clip-rule="evenodd" d="M71.0391 65.3794C69.1613 65.3794 67.6391 66.9016 67.6391 68.7794V87.8862H59.1256C57.2478 87.8862 55.7256 89.4084 55.7256 91.2862V110.964C55.7256 112.842 57.2478 114.364 59.1256 114.364H67.6391V133.471C67.6391 135.348 69.1613 136.871 71.0391 136.871H82.7739C84.6516 136.871 86.1739 135.348 86.1739 133.471V68.7794C86.1739 66.9016 84.6517 65.3794 82.7739 65.3794H71.0391Z" fill="#00A3FF"/>
<path d="M67.6391 87.8862V89.5862H69.3391V87.8862H67.6391ZM67.6391 114.364H69.3391V112.664H67.6391V114.364ZM69.3391 68.7794C69.3391 67.8405 70.1002 67.0794 71.0391 67.0794V63.6794C68.2224 63.6794 65.9391 65.9628 65.9391 68.7794H69.3391ZM69.3391 87.8862V68.7794H65.9391V87.8862H69.3391ZM59.1256 89.5862H67.6391V86.1862H59.1256V89.5862ZM57.4256 91.2862C57.4256 90.3473 58.1867 89.5862 59.1256 89.5862V86.1862C56.3089 86.1862 54.0256 88.4696 54.0256 91.2862H57.4256ZM57.4256 110.964V91.2862H54.0256V110.964H57.4256ZM59.1256 112.664C58.1867 112.664 57.4256 111.903 57.4256 110.964H54.0256C54.0256 113.781 56.3089 116.064 59.1256 116.064V112.664ZM67.6391 112.664H59.1256V116.064H67.6391V112.664ZM69.3391 133.471V114.364H65.9391V133.471H69.3391ZM71.0391 135.171C70.1002 135.171 69.3391 134.41 69.3391 133.471H65.9391C65.9391 136.287 68.2224 138.571 71.0391 138.571V135.171ZM82.7739 135.171H71.0391V138.571H82.7739V135.171ZM84.4739 133.471C84.4739 134.41 83.7128 135.171 82.7739 135.171V138.571C85.5905 138.571 87.8739 136.287 87.8739 133.471H84.4739ZM84.4739 68.7794V133.471H87.8739V68.7794H84.4739ZM82.7739 67.0794C83.7128 67.0794 84.4739 67.8405 84.4739 68.7794H87.8739C87.8739 65.9627 85.5905 63.6794 82.7739 63.6794V67.0794ZM71.0391 67.0794H82.7739V63.6794H71.0391V67.0794Z" fill="url(#paint4_linear_222_6720)" mask="url(#path-9-inside-1_222_6720)"/>
<mask id="path-11-inside-2_222_6720" fill="white">
<path fill-rule="evenodd" clip-rule="evenodd" d="M191.829 65.3794C189.951 65.3794 188.429 66.9016 188.429 68.7794V133.471C188.429 135.348 189.951 136.871 191.829 136.871H203.563C205.441 136.871 206.963 135.348 206.963 133.471V114.364H215.477C217.354 114.364 218.877 112.842 218.877 110.964V91.2862C218.877 89.4084 217.354 87.8862 215.477 87.8862H206.963V68.7794C206.963 66.9016 205.441 65.3794 203.563 65.3794H191.829Z"/>
</mask>
<path fill-rule="evenodd" clip-rule="evenodd" d="M191.829 65.3794C189.951 65.3794 188.429 66.9016 188.429 68.7794V133.471C188.429 135.348 189.951 136.871 191.829 136.871H203.563C205.441 136.871 206.963 135.348 206.963 133.471V114.364H215.477C217.354 114.364 218.877 112.842 218.877 110.964V91.2862C218.877 89.4084 217.354 87.8862 215.477 87.8862H206.963V68.7794C206.963 66.9016 205.441 65.3794 203.563 65.3794H191.829Z" fill="#00A3FF"/>
<path d="M206.963 114.364V112.664H205.263V114.364H206.963ZM206.963 87.8862H205.263V89.5862H206.963V87.8862ZM190.129 68.7794C190.129 67.8405 190.89 67.0794 191.829 67.0794V63.6794C189.012 63.6794 186.729 65.9628 186.729 68.7794H190.129ZM190.129 133.471V68.7794H186.729V133.471H190.129ZM191.829 135.171C190.89 135.171 190.129 134.41 190.129 133.471H186.729C186.729 136.287 189.012 138.571 191.829 138.571V135.171ZM203.563 135.171H191.829V138.571H203.563V135.171ZM205.263 133.471C205.263 134.41 204.502 135.171 203.563 135.171V138.571C206.38 138.571 208.663 136.287 208.663 133.471H205.263ZM205.263 114.364V133.471H208.663V114.364H205.263ZM215.477 112.664H206.963V116.064H215.477V112.664ZM217.177 110.964C217.177 111.903 216.415 112.664 215.477 112.664V116.064C218.293 116.064 220.577 113.781 220.577 110.964H217.177ZM217.177 91.2862V110.964H220.577V91.2862H217.177ZM215.477 89.5862C216.415 89.5862 217.177 90.3473 217.177 91.2862H220.577C220.577 88.4696 218.293 86.1862 215.477 86.1862V89.5862ZM206.963 89.5862H215.477V86.1862H206.963V89.5862ZM205.263 68.7794V87.8862H208.663V68.7794H205.263ZM203.563 67.0794C204.502 67.0794 205.263 67.8405 205.263 68.7794H208.663C208.663 65.9627 206.38 63.6794 203.563 63.6794V67.0794ZM191.829 67.0794H203.563V63.6794H191.829V67.0794Z" fill="url(#paint5_linear_222_6720)" mask="url(#path-11-inside-2_222_6720)"/>
<mask id="path-13-inside-3_222_6720" fill="white">
<path fill-rule="evenodd" clip-rule="evenodd" d="M93.7027 48.1689C91.825 48.1689 90.3027 49.6912 90.3027 51.5689V150.682C90.3027 152.56 91.825 154.082 93.7027 154.082H110.733C112.611 154.082 114.133 152.56 114.133 150.682V114.365H160.471V150.682C160.471 152.56 161.993 154.082 163.871 154.082H180.901C182.779 154.082 184.301 152.56 184.301 150.682V51.5691C184.301 49.6914 182.779 48.1691 180.901 48.1691H163.871C161.993 48.1691 160.471 49.6914 160.471 51.5691V87.8866H114.133V51.5689C114.133 49.6912 112.611 48.1689 110.733 48.1689H93.7027Z"/>
</mask>
<path fill-rule="evenodd" clip-rule="evenodd" d="M93.7027 48.1689C91.825 48.1689 90.3027 49.6912 90.3027 51.5689V150.682C90.3027 152.56 91.825 154.082 93.7027 154.082H110.733C112.611 154.082 114.133 152.56 114.133 150.682V114.365H160.471V150.682C160.471 152.56 161.993 154.082 163.871 154.082H180.901C182.779 154.082 184.301 152.56 184.301 150.682V51.5691C184.301 49.6914 182.779 48.1691 180.901 48.1691H163.871C161.993 48.1691 160.471 49.6914 160.471 51.5691V87.8866H114.133V51.5689C114.133 49.6912 112.611 48.1689 110.733 48.1689H93.7027Z" fill="#30B4FF"/>
<path d="M114.133 114.365V112.665H112.433V114.365H114.133ZM160.471 114.365H162.171V112.665H160.471V114.365ZM160.471 87.8866V89.5866H162.171V87.8866H160.471ZM114.133 87.8866H112.433V89.5866H114.133V87.8866ZM92.0027 51.5689C92.0027 50.6301 92.7639 49.8689 93.7027 49.8689V46.4689C90.8861 46.4689 88.6027 48.7523 88.6027 51.5689H92.0027ZM92.0027 150.682V51.5689H88.6027V150.682H92.0027ZM93.7027 152.382C92.7639 152.382 92.0027 151.621 92.0027 150.682H88.6027C88.6027 153.499 90.8861 155.782 93.7027 155.782V152.382ZM110.733 152.382H93.7027V155.782H110.733V152.382ZM112.433 150.682C112.433 151.621 111.672 152.382 110.733 152.382V155.782C113.55 155.782 115.833 153.499 115.833 150.682H112.433ZM112.433 114.365V150.682H115.833V114.365H112.433ZM114.133 116.065H160.471V112.665H114.133V116.065ZM158.771 114.365V150.682H162.171V114.365H158.771ZM158.771 150.682C158.771 153.499 161.054 155.782 163.871 155.782V152.382C162.932 152.382 162.171 151.621 162.171 150.682H158.771ZM163.871 155.782H180.901V152.382H163.871V155.782ZM180.901 155.782C183.718 155.782 186.001 153.499 186.001 150.682H182.601C182.601 151.621 181.84 152.382 180.901 152.382V155.782ZM186.001 150.682V51.5691H182.601V150.682H186.001ZM186.001 51.5691C186.001 48.7525 183.718 46.4691 180.901 46.4691V49.8691C181.84 49.8691 182.601 50.6302 182.601 51.5691H186.001ZM180.901 46.4691H163.871V49.8691H180.901V46.4691ZM163.871 46.4691C161.054 46.4691 158.771 48.7525 158.771 51.5691H162.171C162.171 50.6302 162.932 49.8691 163.871 49.8691V46.4691ZM158.771 51.5691V87.8866H162.171V51.5691H158.771ZM160.471 86.1866H114.133V89.5866H160.471V86.1866ZM112.433 51.5689V87.8866H115.833V51.5689H112.433ZM110.733 49.8689C111.672 49.8689 112.433 50.6301 112.433 51.5689H115.833C115.833 48.7523 113.55 46.4689 110.733 46.4689V49.8689ZM93.7027 49.8689H110.733V46.4689H93.7027V49.8689Z" fill="url(#paint6_linear_222_6720)" mask="url(#path-13-inside-3_222_6720)"/>
<defs>
<filter id="filter0_d_222_6720" x="0" y="0.230469" width="627" height="399.599" filterUnits="userSpaceOnUse" color-interpolation-filters="sRGB">
<feFlood flood-opacity="0" result="BackgroundImageFix"/>
<feColorMatrix in="SourceAlpha" type="matrix" values="0 0 0 0 0 0 0 0 0 0 0 0 0 0 0 0 0 0 127 0" result="hardAlpha"/>
<feOffset/>
<feGaussianBlur stdDeviation="4.5"/>
<feComposite in2="hardAlpha" operator="out"/>
<feColorMatrix type="matrix" values="0 0 0 0 0 0 0 0 0 0.639216 0 0 0 0 1 0 0 0 0.15 0"/>
<feBlend mode="normal" in2="BackgroundImageFix" result="effect1_dropShadow_222_6720"/>
<feBlend mode="normal" in="SourceGraphic" in2="effect1_dropShadow_222_6720" result="shape"/>
</filter>
<filter id="filter1_d_222_6720" x="551.314" y="30.0073" width="40.4833" height="40.4833" filterUnits="userSpaceOnUse" color-interpolation-filters="sRGB">
<feFlood flood-opacity="0" result="BackgroundImageFix"/>
<feColorMatrix in="SourceAlpha" type="matrix" values="0 0 0 0 0 0 0 0 0 0 0 0 0 0 0 0 0 0 127 0" result="hardAlpha"/>
<feOffset dy="4.91892"/>
<feGaussianBlur stdDeviation="2.45946"/>
<feComposite in2="hardAlpha" operator="out"/>
<feColorMatrix type="matrix" values="0 0 0 0 0.0313726 0 0 0 0 0.72549 0 0 0 0 1 0 0 0 1 0"/>
<feBlend mode="normal" in2="BackgroundImageFix" result="effect1_dropShadow_222_6720"/>
<feBlend mode="normal" in="SourceGraphic" in2="effect1_dropShadow_222_6720" result="shape"/>
</filter>
<filter id="filter2_f_222_6720" x="92.9464" y="167.939" width="91.3962" height="22.0861" filterUnits="userSpaceOnUse" color-interpolation-filters="sRGB">
<feFlood flood-opacity="0" result="BackgroundImageFix"/>
<feBlend mode="normal" in="SourceGraphic" in2="BackgroundImageFix" result="shape"/>
<feGaussianBlur stdDeviation="3.97404" result="effect1_foregroundBlur_222_6720"/>
</filter>
<radialGradient id="paint0_radial_222_6720" cx="0" cy="0" r="1" gradientUnits="userSpaceOnUse" gradientTransform="translate(107.177 363.595) scale(765.783 821.205)">
<stop stop-color="#92DDFF"/>
<stop offset="1"/>
</radialGradient>
<linearGradient id="paint1_linear_222_6720" x1="313.5" y1="3" x2="313.5" y2="383.041" gradientUnits="userSpaceOnUse">
<stop stop-color="#4CDAFE"/>
<stop offset="1" stop-color="#08B9FF"/>
</linearGradient>
<linearGradient id="paint2_linear_222_6720" x1="395.29" y1="36.7662" x2="414.156" y2="93.657" gradientUnits="userSpaceOnUse">
<stop stop-color="white"/>
<stop offset="0.255208" stop-color="white" stop-opacity="0"/>
<stop offset="0.505208" stop-color="white"/>
<stop offset="0.755208" stop-color="white" stop-opacity="0"/>
<stop offset="1" stop-color="white"/>
</linearGradient>
<linearGradient id="paint3_linear_222_6720" x1="566.611" y1="30.9458" x2="577.002" y2="53.616" gradientUnits="userSpaceOnUse">
<stop stop-color="white"/>
<stop offset="1" stop-color="white" stop-opacity="0"/>
</linearGradient>
<linearGradient id="paint4_linear_222_6720" x1="37.8148" y1="65.3018" x2="70.9528" y2="136.869" gradientUnits="userSpaceOnUse">
<stop stop-color="white"/>
<stop offset="1" stop-color="white" stop-opacity="0"/>
</linearGradient>
<linearGradient id="paint5_linear_222_6720" x1="171.765" y1="62.1867" x2="203.656" y2="136.869" gradientUnits="userSpaceOnUse">
<stop stop-color="white"/>
<stop offset="1" stop-color="white" stop-opacity="0"/>
</linearGradient>
<linearGradient id="paint6_linear_222_6720" x1="89.9924" y1="48.1689" x2="137.302" y2="154.082" gradientUnits="userSpaceOnUse">
<stop stop-color="white"/>
<stop offset="1" stop-color="white" stop-opacity="0"/>
</linearGradient>
</defs>
</svg>
