<svg width="645" height="418" viewBox="0 0 645 418" fill="none" xmlns="http://www.w3.org/2000/svg">
<g filter="url(#filter0_d_222_6627)">
<rect x="9" y="9" width="627" height="400" rx="13" fill="#7E00FF"/>
</g>
<path fill-rule="evenodd" clip-rule="evenodd" d="M9 387.968V391.181C9 398.36 14.8203 404.181 22 404.181H623C630.18 404.181 636 398.36 636 391.181V387.968C636 395.147 630.18 400.968 623 400.968H22C14.8203 400.968 9 395.147 9 387.968Z" fill="url(#paint0_radial_222_6627)" style="mix-blend-mode:screen"/>
<path d="M410.527 58.8613L409.845 59.5924L409.845 59.5924L410.527 58.8613ZM413.647 58.8413L412.963 58.1118L412.951 58.1228L412.94 58.1342L413.647 58.8413ZM413.487 56.6013L412.916 57.4222L412.936 57.4363L412.957 57.4493L413.487 56.6013ZM412.327 56.2213L412.412 55.225L412.412 55.225L412.327 56.2213ZM410.807 56.0013L410.588 56.9769L410.601 56.9801L410.616 56.9828L410.807 56.0013ZM409.307 55.5613L408.936 56.4898L408.947 56.4944L408.959 56.4987L409.307 55.5613ZM408.127 54.5013L407.26 54.9998L407.268 55.0127L407.275 55.0254L408.127 54.5013ZM408.547 49.3413L409.246 50.0565L409.246 50.0565L408.547 49.3413ZM415.447 49.3413L414.748 50.0565L414.748 50.0565L415.447 49.3413ZM413.487 50.9613L414.169 50.2303L414.169 50.2303L413.487 50.9613ZM410.487 51.0013L409.757 50.3174L409.756 50.319L410.487 51.0013ZM411.847 53.6613L411.762 54.6577L411.765 54.6579L411.847 53.6613ZM414.867 54.3413L415.261 53.4222L415.253 53.4189L415.246 53.4158L414.867 54.3413ZM416.027 55.4213L415.166 55.9293L415.173 55.9424L415.182 55.9553L416.027 55.4213ZM408.567 60.4813L407.868 61.1965L407.868 61.1965L408.567 60.4813ZM408.687 58.0613V57.6613H406.687V58.0613H408.687ZM408.687 57.6613C408.687 57.6755 408.683 57.8697 408.499 58.0534C408.315 58.2371 408.121 58.2413 408.107 58.2413V56.2413C407.813 56.2413 407.409 56.3155 407.085 56.6392C406.761 56.9629 406.687 57.3672 406.687 57.6613H408.687ZM408.107 58.2413H409.807V56.2413H408.107V58.2413ZM409.807 58.2413C409.793 58.2413 409.599 58.2371 409.415 58.0534C409.231 57.8697 409.227 57.6755 409.227 57.6613H411.227C411.227 57.3672 411.153 56.9629 410.829 56.6392C410.505 56.3155 410.101 56.2413 409.807 56.2413V58.2413ZM409.227 57.6613V57.8213H411.227V57.6613H409.227ZM409.227 57.8213C409.227 58.3902 409.326 59.1079 409.845 59.5924L411.209 58.1303C411.277 58.1936 411.278 58.2377 411.263 58.1841C411.247 58.1291 411.227 58.0156 411.227 57.8213H409.227ZM409.845 59.5924C410.341 60.0552 411.05 60.1413 411.627 60.1413V58.1413C411.413 58.1413 411.276 58.1219 411.199 58.1022C411.119 58.0819 411.148 58.0733 411.209 58.1303L409.845 59.5924ZM411.627 60.1413H412.567V58.1413H411.627V60.1413ZM412.567 60.1413C413.151 60.1413 413.861 60.0417 414.354 59.5484L412.94 58.1342C412.995 58.0793 413.025 58.0846 412.959 58.1028C412.893 58.1212 412.769 58.1413 412.567 58.1413V60.1413ZM414.331 59.5708C414.863 59.072 414.967 58.3267 414.967 57.7213H412.967C412.967 57.9364 412.945 58.0674 412.926 58.1366C412.906 58.2047 412.901 58.1697 412.963 58.1118L414.331 59.5708ZM414.967 57.7213V57.4813H412.967V57.7213H414.967ZM414.967 57.4813C414.967 56.7602 414.638 56.1415 414.017 55.7533L412.957 57.4493C412.975 57.4608 412.981 57.4673 412.98 57.4662C412.979 57.4646 412.974 57.459 412.969 57.4502C412.964 57.4414 412.963 57.4361 412.964 57.4378C412.964 57.4403 412.967 57.4536 412.967 57.4813H414.967ZM414.058 55.7804C413.576 55.4447 413.01 55.2762 412.412 55.225L412.242 57.2177C412.578 57.2464 412.785 57.3312 412.916 57.4222L414.058 55.7804ZM412.412 55.225C411.987 55.1885 411.516 55.1209 410.999 55.0198L410.616 56.9828C411.191 57.0951 411.733 57.1741 412.242 57.2177L412.412 55.225ZM411.027 55.0257C410.533 54.9146 410.076 54.7802 409.655 54.6239L408.959 56.4987C409.471 56.6891 410.015 56.848 410.588 56.9769L411.027 55.0257ZM409.678 54.6328C409.451 54.5418 409.211 54.3545 408.979 53.9772L407.275 55.0254C407.683 55.6881 408.23 56.2075 408.936 56.4898L409.678 54.6328ZM408.994 54.0028C408.799 53.6645 408.667 53.171 408.667 52.4613H406.667C406.667 53.405 406.841 54.2714 407.26 54.9998L408.994 54.0028ZM408.667 52.4613V51.7613H406.667V52.4613H408.667ZM408.667 51.7613C408.667 50.9144 408.9 50.3944 409.246 50.0565L407.848 48.6261C407.021 49.4349 406.667 50.5282 406.667 51.7613H408.667ZM409.246 50.0565C409.599 49.7113 410.135 49.4813 410.987 49.4813V47.4813C409.759 47.4813 408.668 47.8247 407.848 48.6261L409.246 50.0565ZM410.987 49.4813H412.987V47.4813H410.987V49.4813ZM412.987 49.4813C413.857 49.4813 414.397 49.7135 414.748 50.0565L416.146 48.6261C415.324 47.8224 414.224 47.4813 412.987 47.4813V49.4813ZM414.748 50.0565C415.094 50.3944 415.327 50.9144 415.327 51.7613H417.327C417.327 50.5282 416.974 49.4349 416.146 48.6261L414.748 50.0565ZM415.327 51.7613V52.1413H417.327V51.7613H415.327ZM415.327 52.1413C415.327 52.1272 415.331 51.9329 415.515 51.7492C415.699 51.5655 415.893 51.5613 415.907 51.5613V53.5613C416.201 53.5613 416.605 53.4871 416.929 53.1634C417.253 52.8397 417.327 52.4355 417.327 52.1413H415.327ZM415.907 51.5613H414.207V53.5613H415.907V51.5613ZM414.207 51.5613C414.221 51.5613 414.415 51.5655 414.599 51.7492C414.783 51.9329 414.787 52.1272 414.787 52.1413H412.787C412.787 52.4355 412.861 52.8397 413.185 53.1634C413.509 53.4871 413.913 53.5613 414.207 53.5613V51.5613ZM414.787 52.1413V52.0213H412.787V52.1413H414.787ZM414.787 52.0213C414.787 51.4486 414.692 50.7182 414.169 50.2303L412.805 51.6924C412.733 51.6255 412.733 51.5793 412.75 51.6386C412.767 51.6984 412.787 51.8185 412.787 52.0213H414.787ZM414.169 50.2303C413.673 49.7674 412.964 49.6813 412.387 49.6813V51.6813C412.602 51.6813 412.738 51.7007 412.815 51.7204C412.895 51.7407 412.866 51.7493 412.805 51.6924L414.169 50.2303ZM412.387 49.6813H411.607V51.6813H412.387V49.6813ZM411.607 49.6813C411.002 49.6813 410.256 49.7852 409.757 50.3174L411.217 51.6852C411.159 51.747 411.124 51.7423 411.192 51.7228C411.261 51.7031 411.392 51.6813 411.607 51.6813V49.6813ZM409.756 50.319C409.498 50.5953 409.371 50.9328 409.303 51.2241C409.233 51.5241 409.207 51.8564 409.207 52.2013H411.207C411.207 51.9462 411.228 51.7785 411.251 51.6785C411.276 51.5699 411.289 51.6073 411.218 51.6836L409.756 50.319ZM409.207 52.2013V52.5813H411.207V52.2013H409.207ZM409.207 52.5813C409.207 53.2486 409.528 53.8014 410.067 54.1565C410.544 54.4704 411.148 54.6053 411.762 54.6577L411.932 52.6649C411.453 52.624 411.237 52.5322 411.167 52.4861C411.144 52.4707 411.163 52.4775 411.184 52.5167C411.207 52.5576 411.207 52.5877 411.207 52.5813H409.207ZM411.765 54.6579C412.816 54.7445 413.719 54.9523 414.488 55.2669L415.246 53.4158C414.255 53.0103 413.145 52.7648 411.929 52.6647L411.765 54.6579ZM414.473 55.2605C414.709 55.3617 414.946 55.5569 415.166 55.9293L416.888 54.9133C416.495 54.2457 415.958 53.7209 415.261 53.4222L414.473 55.2605ZM415.182 55.9553C415.372 56.257 415.507 56.7086 415.507 57.3813H417.507C417.507 56.454 417.322 55.599 416.873 54.8873L415.182 55.9553ZM415.507 57.3813V58.0613H417.507V57.3813H415.507ZM415.507 58.0613C415.507 58.9082 415.274 59.4282 414.928 59.7661L416.326 61.1965C417.154 60.3878 417.507 59.2944 417.507 58.0613H415.507ZM414.928 59.7661C414.575 60.1113 414.039 60.3413 413.187 60.3413V62.3413C414.415 62.3413 415.506 61.9979 416.326 61.1965L414.928 59.7661ZM413.187 60.3413H411.007V62.3413H413.187V60.3413ZM411.007 60.3413C410.155 60.3413 409.619 60.1113 409.266 59.7661L407.868 61.1965C408.688 61.9979 409.779 62.3413 411.007 62.3413V60.3413ZM409.266 59.7661C408.92 59.4282 408.687 58.9082 408.687 58.0613H406.687C406.687 59.2944 407.041 60.3878 407.868 61.1965L409.266 59.7661ZM417.668 53.2613L416.961 53.9684L417 54.0076L417.044 54.0422L417.668 53.2613ZM423.688 53.2613L422.981 52.5542L422.981 52.5542L423.688 53.2613ZM421.848 58.8813L421.141 59.5884L421.154 59.6015L421.168 59.6141L421.848 58.8813ZM423.888 61.2613L424.595 61.9684L424.595 61.9684L423.888 61.2613ZM419.888 60.5013L419.189 61.2167L419.198 61.2247L419.888 60.5013ZM418.808 52.3413H418.008V54.3413H418.808V52.3413ZM418.008 52.3413C417.979 52.3413 417.992 52.3384 418.032 52.3479C418.071 52.3569 418.176 52.387 418.293 52.4804L417.044 54.0422C417.387 54.3168 417.794 54.3413 418.008 54.3413V52.3413ZM418.375 52.5542C418.523 52.7014 418.567 52.8519 418.578 52.8988C418.592 52.9517 418.588 52.973 418.588 52.9413H416.588C416.588 53.0696 416.598 53.2242 416.638 53.3838C416.677 53.5374 416.761 53.7679 416.961 53.9684L418.375 52.5542ZM418.588 52.9413V51.5613H416.588V52.9413H418.588ZM418.588 51.5613C418.588 51.5755 418.584 51.7697 418.4 51.9534C418.217 52.1371 418.022 52.1413 418.008 52.1413V50.1413C417.714 50.1413 417.31 50.2155 416.986 50.5392C416.662 50.8629 416.588 51.2672 416.588 51.5613H418.588ZM418.008 52.1413H418.808V50.1413H418.008V52.1413ZM418.808 52.1413C419.036 52.1413 419.39 52.0838 419.68 51.7934C419.971 51.5031 420.028 51.1488 420.028 50.9213H418.028C418.028 50.8405 418.049 50.5962 418.266 50.3792C418.483 50.1622 418.727 50.1413 418.808 50.1413V52.1413ZM420.028 50.9213V49.0213H418.028V50.9213H420.028ZM420.028 49.0213C420.028 49.0476 420.019 49.248 419.829 49.4297C419.741 49.5133 419.649 49.5583 419.579 49.5805C419.514 49.6013 419.471 49.6013 419.468 49.6013V47.6013C419.179 47.6013 418.776 47.6696 418.448 47.983C418.111 48.3046 418.028 48.715 418.028 49.0213H420.028ZM419.468 49.6013H421.148V47.6013H419.468V49.6013ZM421.148 49.6013C421.134 49.6013 420.94 49.5971 420.756 49.4134C420.572 49.2297 420.568 49.0355 420.568 49.0213H422.568C422.568 48.7272 422.494 48.3229 422.17 47.9992C421.847 47.6755 421.442 47.6013 421.148 47.6013V49.6013ZM420.568 49.0213V50.9213H422.568V49.0213H420.568ZM420.568 50.9213C420.568 51.1722 420.641 51.5376 420.953 51.8235C421.248 52.0942 421.595 52.1413 421.808 52.1413V50.1413C421.862 50.1413 422.089 50.1518 422.304 50.3492C422.536 50.5617 422.568 50.817 422.568 50.9213H420.568ZM421.808 52.1413H423.368V50.1413H421.808V52.1413ZM423.368 52.1413C423.354 52.1413 423.16 52.1371 422.976 51.9534C422.792 51.7697 422.788 51.5755 422.788 51.5613H424.788C424.788 51.2672 424.714 50.8629 424.39 50.5392C424.067 50.2155 423.662 50.1413 423.368 50.1413V52.1413ZM422.788 51.5613V52.9413H424.788V51.5613H422.788ZM422.788 52.9413C422.788 52.9406 422.788 52.9307 422.791 52.9134C422.793 52.896 422.798 52.8683 422.809 52.833C422.831 52.7606 422.881 52.6545 422.981 52.5542L424.395 53.9684C424.731 53.6326 424.788 53.2097 424.788 52.9413H422.788ZM422.981 52.5542C423.128 52.407 423.279 52.3629 423.326 52.3512C423.379 52.3379 423.4 52.3413 423.368 52.3413V54.3413C423.497 54.3413 423.651 54.3314 423.811 54.2915C423.964 54.2531 424.195 54.169 424.395 53.9684L422.981 52.5542ZM423.368 52.3413H421.808V54.3413H423.368V52.3413ZM421.808 52.3413C421.595 52.3413 421.248 52.3884 420.953 52.6592C420.641 52.945 420.568 53.3104 420.568 53.5613H422.568C422.568 53.6656 422.536 53.921 422.304 54.1335C422.089 54.3309 421.862 54.3413 421.808 54.3413V52.3413ZM420.568 53.5613V57.9813H422.568V53.5613H420.568ZM420.568 57.9813C420.568 58.5142 420.684 59.1316 421.141 59.5884L422.555 58.1742C422.597 58.2153 422.601 58.2438 422.593 58.2192C422.584 58.1903 422.568 58.1171 422.568 57.9813H420.568ZM421.168 59.6141C421.63 60.0432 422.248 60.1413 422.768 60.1413V58.1413C422.618 58.1413 422.531 58.1255 422.49 58.114C422.452 58.1032 422.481 58.1037 422.529 58.1485L421.168 59.6141ZM422.768 60.1413H423.568V58.1413H422.768V60.1413ZM423.568 60.1413C423.554 60.1413 423.36 60.1371 423.176 59.9534C422.992 59.7697 422.988 59.5755 422.988 59.5613H424.988C424.988 59.2672 424.914 58.8629 424.59 58.5392C424.267 58.2155 423.862 58.1413 423.568 58.1413V60.1413ZM422.988 59.5613V60.9413H424.988V59.5613H422.988ZM422.988 60.9413C422.988 60.9406 422.988 60.9307 422.991 60.9134C422.993 60.896 422.998 60.8683 423.009 60.833C423.031 60.7606 423.081 60.6545 423.181 60.5542L424.595 61.9684C424.931 61.6326 424.988 61.2097 424.988 60.9413H422.988ZM423.181 60.5542C423.328 60.407 423.479 60.3629 423.526 60.3512C423.579 60.3379 423.6 60.3413 423.568 60.3413V62.3413C423.697 62.3413 423.851 62.3314 424.011 62.2915C424.164 62.2531 424.395 62.169 424.595 61.9684L423.181 60.5542ZM423.568 60.3413H422.348V62.3413H423.568V60.3413ZM422.348 60.3413C421.473 60.3413 420.929 60.1122 420.579 59.778L419.198 61.2247C420.021 62.0105 421.117 62.3413 422.348 62.3413V60.3413ZM420.587 59.7859C420.259 59.4656 420.028 58.9559 420.028 58.1013H418.028C418.028 59.3267 418.371 60.417 419.19 61.2167L420.587 59.7859ZM420.028 58.1013V53.5613H418.028V58.1013H420.028ZM420.028 53.5613C420.028 53.3338 419.971 52.9795 419.68 52.6892C419.39 52.3989 419.036 52.3413 418.808 52.3413V54.3413C418.727 54.3413 418.483 54.3204 418.266 54.1034C418.049 53.8864 418.028 53.6421 418.028 53.5613H420.028ZM426.299 60.5013L426.998 59.7859L426.299 60.5013ZM426.299 51.9813L426.998 52.6967L426.998 52.6967L426.299 51.9813ZM431.259 60.2613H432.259V59.2613H431.259V60.2613ZM431.179 60.2613V59.2613H430.507L430.253 59.884L431.179 60.2613ZM430.399 61.0813L430.82 61.9883L430.833 61.9822L430.846 61.9757L430.399 61.0813ZM428.239 53.6213L428.946 54.3284L428.959 54.3153L428.972 54.3018L428.239 53.6213ZM428.239 58.8813L427.506 59.5618L427.519 59.5753L427.532 59.5884L428.239 58.8813ZM429.219 60.3413H428.739V62.3413H429.219V60.3413ZM428.739 60.3413C427.862 60.3413 427.331 60.1117 426.998 59.7859L425.6 61.2167C426.413 62.011 427.51 62.3413 428.739 62.3413V60.3413ZM426.998 59.7859C426.672 59.4679 426.439 58.9536 426.439 58.0813H424.439C424.439 59.3157 424.779 60.4147 425.6 61.2167L426.998 59.7859ZM426.439 58.0813V54.4013H424.439V58.0813H426.439ZM426.439 54.4013C426.439 53.5291 426.672 53.0147 426.998 52.6967L425.6 51.2659C424.779 52.0679 424.439 53.1669 424.439 54.4013H426.439ZM426.998 52.6967C427.331 52.3709 427.862 52.1413 428.739 52.1413V50.1413C427.51 50.1413 426.413 50.4717 425.6 51.2659L426.998 52.6967ZM428.739 52.1413H433.359V50.1413H428.739V52.1413ZM433.359 52.1413C433.356 52.1413 433.314 52.1413 433.248 52.1205C433.179 52.0983 433.086 52.0533 432.999 51.9697C432.808 51.788 432.799 51.5876 432.799 51.5613H434.799C434.799 51.255 434.716 50.8446 434.38 50.523C434.051 50.2096 433.649 50.1413 433.359 50.1413V52.1413ZM432.799 51.5613V60.9213H434.799V51.5613H432.799ZM432.799 60.9213C432.799 60.895 432.808 60.6946 432.999 60.513C433.086 60.4293 433.179 60.3843 433.248 60.3621C433.314 60.3413 433.356 60.3413 433.359 60.3413V62.3413C433.649 62.3413 434.051 62.273 434.38 61.9597C434.716 61.638 434.799 61.2276 434.799 60.9213H432.799ZM433.359 60.3413H431.679V62.3413H433.359V60.3413ZM431.679 60.3413C431.693 60.3413 431.887 60.3455 432.071 60.5292C432.255 60.7129 432.259 60.9072 432.259 60.9213H430.259C430.259 61.2155 430.333 61.6197 430.657 61.9434C430.981 62.2671 431.385 62.3413 431.679 62.3413V60.3413ZM432.259 60.9213V60.2613H430.259V60.9213H432.259ZM431.259 59.2613H431.179V61.2613H431.259V59.2613ZM430.253 59.884C430.205 60.0019 430.125 60.1001 429.952 60.1869L430.846 61.9757C431.419 61.6892 431.86 61.2407 432.105 60.6386L430.253 59.884ZM429.978 60.1743C429.737 60.2861 429.488 60.3413 429.219 60.3413V62.3413C429.777 62.3413 430.314 62.2232 430.82 61.9883L429.978 60.1743ZM432.259 57.6213V53.5613H430.259V57.6213H432.259ZM432.259 53.5613C432.259 53.3104 432.187 52.945 431.875 52.6592C431.579 52.3884 431.233 52.3413 431.019 52.3413V54.3413C430.965 54.3413 430.739 54.3309 430.523 54.1335C430.292 53.921 430.259 53.6656 430.259 53.5613H432.259ZM431.019 52.3413H429.139V54.3413H431.019V52.3413ZM429.139 52.3413C428.613 52.3413 427.963 52.4485 427.506 52.9409L428.972 54.3018C428.915 54.363 428.869 54.373 428.891 54.3662C428.917 54.358 428.993 54.3413 429.139 54.3413V52.3413ZM427.532 52.9142C427.073 53.3733 426.979 54.0116 426.979 54.5213H428.979C428.979 54.3701 428.995 54.2875 429.005 54.2538C429.014 54.2227 429.007 54.2672 428.946 54.3284L427.532 52.9142ZM426.979 54.5213V57.9613H428.979V54.5213H426.979ZM426.979 57.9613C426.979 58.4814 427.077 59.0997 427.506 59.5618L428.972 58.2009C429.017 58.2491 429.017 58.2777 429.006 58.2394C428.995 58.1986 428.979 58.1117 428.979 57.9613H426.979ZM427.532 59.5884C427.991 60.0475 428.629 60.1413 429.139 60.1413V58.1413C428.988 58.1413 428.905 58.1253 428.872 58.1156C428.84 58.1066 428.885 58.113 428.946 58.1742L427.532 59.5884ZM429.139 60.1413H429.879V58.1413H429.139V60.1413ZM429.879 60.1413C430.519 60.1413 431.176 59.9605 431.654 59.4335C432.116 58.9248 432.259 58.2595 432.259 57.6213H430.259C430.259 57.8022 430.238 57.9223 430.216 57.9967C430.194 58.0673 430.174 58.0886 430.174 58.0891C430.173 58.0903 430.172 58.0914 430.169 58.0933C430.166 58.0953 430.156 58.1008 430.138 58.1076C430.1 58.1216 430.02 58.1413 429.879 58.1413V60.1413ZM438.531 52.2413H437.531V53.2413H438.531V52.2413ZM438.611 52.2413V53.2413H439.283L439.537 52.6186L438.611 52.2413ZM439.391 51.4213L439.838 52.3157L439.838 52.3157L439.391 51.4213ZM441.591 53.2813L440.884 52.5742L440.884 52.5742L441.591 53.2813ZM441.291 53.3413L441.381 52.3454L441.336 52.3413H441.291V53.3413ZM438.111 60.3413H436.411V62.3413H438.111V60.3413ZM436.411 60.3413C436.425 60.3413 436.619 60.3455 436.803 60.5292C436.986 60.7129 436.991 60.9072 436.991 60.9213H434.991C434.991 61.2155 435.065 61.6197 435.389 61.9434C435.712 62.2671 436.116 62.3413 436.411 62.3413V60.3413ZM436.991 60.9213V51.5613H434.991V60.9213H436.991ZM436.991 51.5613C436.991 51.5755 436.986 51.7697 436.803 51.9534C436.619 52.1371 436.425 52.1413 436.411 52.1413V50.1413C436.116 50.1413 435.712 50.2155 435.389 50.5392C435.065 50.8629 434.991 51.2672 434.991 51.5613H436.991ZM436.411 52.1413H438.111V50.1413H436.411V52.1413ZM438.111 52.1413C438.096 52.1413 437.902 52.1371 437.719 51.9534C437.535 51.7697 437.531 51.5755 437.531 51.5613H439.531C439.531 51.2672 439.456 50.8629 439.133 50.5392C438.809 50.2155 438.405 50.1413 438.111 50.1413V52.1413ZM437.531 51.5613V52.2413H439.531V51.5613H437.531ZM438.531 53.2413H438.611V51.2413H438.531V53.2413ZM439.537 52.6186C439.585 52.5007 439.664 52.4025 439.838 52.3157L438.943 50.5269C438.37 50.8134 437.93 51.2619 437.685 51.864L439.537 52.6186ZM439.838 52.3157C440.074 52.1978 440.314 52.1413 440.571 52.1413V50.1413C440 50.1413 439.454 50.2715 438.943 50.5269L439.838 52.3157ZM440.571 52.1413H441.291V50.1413H440.571V52.1413ZM441.291 52.1413C441.257 52.1413 441.051 52.13 440.866 51.936C440.69 51.751 440.691 51.5636 440.691 51.5613H442.691C442.691 51.279 442.624 50.8816 442.315 50.5567C441.997 50.2226 441.591 50.1413 441.291 50.1413V52.1413ZM440.691 51.5613V52.9413H442.691V51.5613H440.691ZM440.691 52.9413C440.691 52.9572 440.688 52.925 440.706 52.8641C440.725 52.8002 440.772 52.6855 440.884 52.5742L442.298 53.9884C442.647 53.6396 442.691 53.1931 442.691 52.9413H440.691ZM440.884 52.5742C441.038 52.42 441.202 52.3712 441.28 52.3557C441.355 52.3405 441.397 52.3469 441.381 52.3454L441.2 54.3372C441.388 54.3543 441.904 54.3822 442.298 53.9884L440.884 52.5742ZM441.291 52.3413H439.911V54.3413H441.291V52.3413ZM439.911 52.3413C439.263 52.3413 438.603 52.5301 438.127 53.0687C437.671 53.584 437.531 54.2553 437.531 54.9013H439.531C439.531 54.5073 439.62 54.3986 439.625 54.3939C439.625 54.3934 439.63 54.3858 439.659 54.3746C439.695 54.3611 439.772 54.3413 439.911 54.3413V52.3413ZM437.531 54.9013V60.9213H439.531V54.9013H437.531ZM437.531 60.9213C437.531 60.9072 437.535 60.7129 437.719 60.5292C437.902 60.3455 438.096 60.3413 438.111 60.3413V62.3413C438.405 62.3413 438.809 62.2671 439.133 61.9434C439.456 61.6197 439.531 61.2155 439.531 60.9213H437.531ZM442.043 53.2613L441.336 53.9684L441.375 54.0076L441.419 54.0422L442.043 53.2613ZM448.063 53.2613L447.356 52.5542L447.356 52.5542L448.063 53.2613ZM446.223 58.8813L445.516 59.5884L445.529 59.6015L445.543 59.6141L446.223 58.8813ZM448.263 61.2613L448.97 61.9684L448.97 61.9684L448.263 61.2613ZM444.263 60.5013L443.564 61.2167L443.573 61.2247L444.263 60.5013ZM443.183 52.3413H442.383V54.3413H443.183V52.3413ZM442.383 52.3413C442.354 52.3413 442.367 52.3384 442.407 52.3479C442.446 52.3569 442.551 52.387 442.668 52.4804L441.419 54.0422C441.762 54.3168 442.169 54.3413 442.383 54.3413V52.3413ZM442.75 52.5542C442.898 52.7014 442.942 52.8519 442.953 52.8988C442.967 52.9517 442.963 52.973 442.963 52.9413H440.963C440.963 53.0696 440.973 53.2242 441.013 53.3838C441.052 53.5374 441.136 53.7679 441.336 53.9684L442.75 52.5542ZM442.963 52.9413V51.5613H440.963V52.9413H442.963ZM442.963 51.5613C442.963 51.5755 442.959 51.7697 442.775 51.9534C442.592 52.1371 442.397 52.1413 442.383 52.1413V50.1413C442.089 50.1413 441.685 50.2155 441.361 50.5392C441.037 50.8629 440.963 51.2672 440.963 51.5613H442.963ZM442.383 52.1413H443.183V50.1413H442.383V52.1413ZM443.183 52.1413C443.411 52.1413 443.765 52.0838 444.055 51.7934C444.346 51.5031 444.403 51.1488 444.403 50.9213H442.403C442.403 50.8405 442.424 50.5962 442.641 50.3792C442.858 50.1622 443.102 50.1413 443.183 50.1413V52.1413ZM444.403 50.9213V49.0213H442.403V50.9213H444.403ZM444.403 49.0213C444.403 49.0476 444.394 49.248 444.204 49.4297C444.116 49.5133 444.024 49.5583 443.954 49.5805C443.889 49.6013 443.846 49.6013 443.843 49.6013V47.6013C443.554 47.6013 443.151 47.6696 442.823 47.983C442.486 48.3046 442.403 48.715 442.403 49.0213H444.403ZM443.843 49.6013H445.523V47.6013H443.843V49.6013ZM445.523 49.6013C445.509 49.6013 445.315 49.5971 445.131 49.4134C444.947 49.2297 444.943 49.0355 444.943 49.0213H446.943C446.943 48.7272 446.869 48.3229 446.545 47.9992C446.222 47.6755 445.817 47.6013 445.523 47.6013V49.6013ZM444.943 49.0213V50.9213H446.943V49.0213H444.943ZM444.943 50.9213C444.943 51.1722 445.016 51.5376 445.328 51.8235C445.623 52.0942 445.97 52.1413 446.183 52.1413V50.1413C446.237 50.1413 446.464 50.1518 446.679 50.3492C446.911 50.5617 446.943 50.817 446.943 50.9213H444.943ZM446.183 52.1413H447.743V50.1413H446.183V52.1413ZM447.743 52.1413C447.729 52.1413 447.535 52.1371 447.351 51.9534C447.167 51.7697 447.163 51.5755 447.163 51.5613H449.163C449.163 51.2672 449.089 50.8629 448.765 50.5392C448.442 50.2155 448.037 50.1413 447.743 50.1413V52.1413ZM447.163 51.5613V52.9413H449.163V51.5613H447.163ZM447.163 52.9413C447.163 52.9406 447.163 52.9307 447.166 52.9134C447.168 52.896 447.173 52.8683 447.184 52.833C447.206 52.7606 447.256 52.6545 447.356 52.5542L448.77 53.9684C449.106 53.6326 449.163 53.2097 449.163 52.9413H447.163ZM447.356 52.5542C447.503 52.407 447.654 52.3629 447.701 52.3512C447.754 52.3379 447.775 52.3413 447.743 52.3413V54.3413C447.872 54.3413 448.026 54.3314 448.186 54.2915C448.339 54.2531 448.57 54.169 448.77 53.9684L447.356 52.5542ZM447.743 52.3413H446.183V54.3413H447.743V52.3413ZM446.183 52.3413C445.97 52.3413 445.623 52.3884 445.328 52.6592C445.016 52.945 444.943 53.3104 444.943 53.5613H446.943C446.943 53.6656 446.911 53.921 446.679 54.1335C446.464 54.3309 446.237 54.3413 446.183 54.3413V52.3413ZM444.943 53.5613V57.9813H446.943V53.5613H444.943ZM444.943 57.9813C444.943 58.5142 445.059 59.1316 445.516 59.5884L446.93 58.1742C446.972 58.2153 446.976 58.2438 446.968 58.2192C446.959 58.1903 446.943 58.1171 446.943 57.9813H444.943ZM445.543 59.6141C446.005 60.0432 446.623 60.1413 447.143 60.1413V58.1413C446.993 58.1413 446.906 58.1255 446.865 58.114C446.827 58.1032 446.856 58.1037 446.904 58.1485L445.543 59.6141ZM447.143 60.1413H447.943V58.1413H447.143V60.1413ZM447.943 60.1413C447.929 60.1413 447.735 60.1371 447.551 59.9534C447.367 59.7697 447.363 59.5755 447.363 59.5613H449.363C449.363 59.2672 449.289 58.8629 448.965 58.5392C448.642 58.2155 448.237 58.1413 447.943 58.1413V60.1413ZM447.363 59.5613V60.9413H449.363V59.5613H447.363ZM447.363 60.9413C447.363 60.9406 447.363 60.9307 447.366 60.9134C447.368 60.896 447.373 60.8683 447.384 60.833C447.406 60.7606 447.456 60.6545 447.556 60.5542L448.97 61.9684C449.306 61.6326 449.363 61.2097 449.363 60.9413H447.363ZM447.556 60.5542C447.703 60.407 447.854 60.3629 447.901 60.3512C447.954 60.3379 447.975 60.3413 447.943 60.3413V62.3413C448.072 62.3413 448.226 62.3314 448.386 62.2915C448.539 62.2531 448.77 62.169 448.97 61.9684L447.556 60.5542ZM447.943 60.3413H446.723V62.3413H447.943V60.3413ZM446.723 60.3413C445.848 60.3413 445.304 60.1122 444.954 59.778L443.573 61.2247C444.396 62.0105 445.492 62.3413 446.723 62.3413V60.3413ZM444.962 59.7859C444.634 59.4656 444.403 58.9559 444.403 58.1013H442.403C442.403 59.3267 442.746 60.417 443.565 61.2167L444.962 59.7859ZM444.403 58.1013V53.5613H442.403V58.1013H444.403ZM444.403 53.5613C444.403 53.3338 444.346 52.9795 444.055 52.6892C443.765 52.3989 443.411 52.3413 443.183 52.3413V54.3413C443.102 54.3413 442.858 54.3204 442.641 54.1034C442.424 53.8864 442.403 53.6421 442.403 53.5613H444.403ZM449.754 59.3413L450.461 60.0484L450.5 60.0093L450.535 59.966L449.754 59.3413ZM453.574 57.6213L453.088 58.4955L453.095 58.499L453.101 58.5025L453.574 57.6213ZM451.594 56.5213L452.08 55.6472L452.064 55.6385L452.048 55.6304L451.594 56.5213ZM450.094 55.4013L450.875 54.7766L450.875 54.7766L450.094 55.4013ZM450.354 51.8013L451.02 52.5476L451.02 52.5476L450.354 51.8013ZM456.334 53.1813L457.041 53.8884L457.08 53.8493L457.115 53.806L456.334 53.1813ZM453.114 54.7613L453.625 53.9016L453.606 53.8901L453.586 53.8795L453.114 54.7613ZM455.134 55.9613L454.623 56.821L454.641 56.8318L454.66 56.8418L455.134 55.9613ZM456.594 57.1213L455.775 57.6948L455.779 57.7013L455.784 57.7078L456.594 57.1213ZM453.874 60.3413H450.074V62.3413H453.874V60.3413ZM450.074 60.3413C450.108 60.3413 450.313 60.3526 450.498 60.5467C450.674 60.7316 450.674 60.919 450.674 60.9213H448.674C448.674 61.2036 448.74 61.601 449.05 61.926C449.368 62.26 449.774 62.3413 450.074 62.3413V60.3413ZM450.674 60.9213V59.6413H448.674V60.9213H450.674ZM450.674 59.6413C450.674 59.6219 450.677 59.6531 450.66 59.714C450.644 59.7734 450.597 59.9128 450.461 60.0484L449.047 58.6342C448.693 58.988 448.674 59.4499 448.674 59.6413H450.674ZM450.535 59.966C450.404 60.1297 450.251 60.1962 450.172 60.2208C450.097 60.2442 450.055 60.2413 450.074 60.2413V58.2413C449.857 58.2413 449.33 58.2709 448.973 58.7166L450.535 59.966ZM450.074 60.2413H453.414V58.2413H450.074V60.2413ZM453.414 60.2413C453.81 60.2413 454.275 60.1865 454.671 59.9442C455.147 59.6528 455.394 59.1706 455.394 58.6413H453.394C453.394 58.6029 453.403 58.5206 453.455 58.4256C453.507 58.3287 453.578 58.2686 453.627 58.2385C453.67 58.2123 453.684 58.2155 453.643 58.224C453.603 58.2322 453.529 58.2413 453.414 58.2413V60.2413ZM455.394 58.6413V58.5413H453.394V58.6413H455.394ZM455.394 58.5413C455.394 57.6074 454.62 57.0479 454.047 56.7401L453.101 58.5025C453.206 58.5585 453.284 58.6085 453.342 58.6508C453.401 58.6936 453.431 58.7232 453.443 58.7367C453.454 58.7498 453.442 58.7395 453.426 58.7036C453.409 58.6646 453.394 58.6081 453.394 58.5413H455.394ZM454.06 56.7472L452.08 55.6472L451.108 57.3955L453.088 58.4955L454.06 56.7472ZM452.048 55.6304C451.438 55.3194 451.074 55.025 450.875 54.7766L449.313 56.026C449.755 56.5776 450.39 57.0299 451.14 57.4122L452.048 55.6304ZM450.875 54.7766C450.726 54.5908 450.614 54.3132 450.614 53.8613H448.614C448.614 54.6628 448.822 55.4118 449.313 56.026L450.875 54.7766ZM450.614 53.8613C450.614 53.092 450.815 52.73 451.02 52.5476L449.688 51.055C448.906 51.7526 448.614 52.7639 448.614 53.8613H450.614ZM451.02 52.5476C451.248 52.3441 451.728 52.1413 452.674 52.1413V50.1413C451.513 50.1413 450.447 50.3785 449.688 51.055L451.02 52.5476ZM452.674 52.1413H456.014V50.1413H452.674V52.1413ZM456.014 52.1413C455.98 52.1413 455.775 52.13 455.59 51.936C455.414 51.751 455.414 51.5636 455.414 51.5613H457.414C457.414 51.279 457.348 50.8816 457.038 50.5567C456.72 50.2226 456.314 50.1413 456.014 50.1413V52.1413ZM455.414 51.5613V52.8613H457.414V51.5613H455.414ZM455.414 52.8613C455.414 52.8782 455.412 52.8561 455.424 52.8088C455.436 52.7612 455.468 52.663 455.553 52.5566L457.115 53.806C457.381 53.4736 457.414 53.0875 457.414 52.8613H455.414ZM455.627 52.4742C455.774 52.327 455.925 52.2829 455.972 52.2712C456.024 52.2579 456.046 52.2613 456.014 52.2613V54.2613C456.142 54.2613 456.297 54.2514 456.457 54.2115C456.61 54.1731 456.841 54.089 457.041 53.8884L455.627 52.4742ZM456.014 52.2613H453.234V54.2613H456.014V52.2613ZM453.234 52.2613C452.855 52.2613 452.419 52.3043 452.045 52.4955C451.843 52.5985 451.634 52.7572 451.478 52.9956C451.319 53.2393 451.254 53.5071 451.254 53.7613H453.254C453.254 53.8489 453.23 53.9709 453.152 54.0895C453.078 54.2029 452.992 54.2574 452.954 54.2771C452.919 54.2945 452.917 54.2879 452.973 54.2784C453.026 54.2694 453.111 54.2613 453.234 54.2613V52.2613ZM451.254 53.7613V53.8613H453.254V53.7613H451.254ZM451.254 53.8613C451.254 54.3555 451.499 54.7386 451.746 54.9972C451.992 55.2543 452.309 55.4648 452.642 55.6431L453.586 53.8795C453.471 53.8179 453.381 53.7628 453.314 53.7154C453.246 53.6674 453.209 53.6332 453.192 53.6155C453.153 53.5741 453.254 53.6604 453.254 53.8613H451.254ZM452.603 55.621L454.623 56.821L455.645 55.1016L453.625 53.9016L452.603 55.621ZM454.66 56.8418C455.291 57.1815 455.623 57.4777 455.775 57.6948L457.413 56.5478C457.005 55.9649 456.364 55.4878 455.608 55.0808L454.66 56.8418ZM455.784 57.7078C455.905 57.8743 456.014 58.1611 456.014 58.6613H458.014C458.014 57.8815 457.843 57.1417 457.404 56.5348L455.784 57.7078ZM456.014 58.6613C456.014 59.3554 455.818 59.7073 455.58 59.9107C455.311 60.14 454.802 60.3413 453.874 60.3413V62.3413C455.04 62.3413 456.1 62.096 456.878 61.4319C457.687 60.742 458.014 59.7538 458.014 58.6613H456.014ZM469.318 58.9613L469.999 59.6941L470 59.6924L469.318 58.9613ZM469.318 56.0213L468.663 56.777L468.663 56.777L469.318 56.0213ZM469.118 53.4413L469.773 54.197L469.787 54.1849L469.8 54.1724L469.118 53.4413ZM469.118 50.8813L468.411 51.5884L468.436 51.6136L468.463 51.637L469.118 50.8813ZM471.038 49.3213L470.339 50.0367L470.339 50.0367L471.038 49.3213ZM470.318 54.7413L470.016 53.7879L470.17 55.7302L470.318 54.7413ZM471.598 55.4013L470.851 56.0657L470.857 56.0727L470.863 56.0796L471.598 55.4013ZM466.138 60.2213H468.378V58.2213H466.138V60.2213ZM468.378 60.2213C468.902 60.2213 469.532 60.1272 469.999 59.6941L468.638 58.2285C468.69 58.1802 468.72 58.1804 468.677 58.1925C468.631 58.2051 468.538 58.2213 468.378 58.2213V60.2213ZM470 59.6924C470.487 59.2381 470.618 58.6108 470.618 58.0613H468.618C468.618 58.1916 468.602 58.2579 468.594 58.2801C468.589 58.2966 468.596 58.2674 468.636 58.2303L470 59.6924ZM470.618 58.0613V56.9013H468.618V58.0613H470.618ZM470.618 56.9013C470.618 56.36 470.491 55.7141 469.973 55.2656L468.663 56.777C468.638 56.755 468.62 56.7325 468.608 56.7146C468.597 56.6973 468.595 56.6885 468.597 56.694C468.602 56.7086 468.618 56.7701 468.618 56.9013H470.618ZM469.973 55.2656C469.5 54.8557 468.875 54.7613 468.338 54.7613V56.7613C468.506 56.7613 468.61 56.7778 468.667 56.7929C468.722 56.8076 468.706 56.8137 468.663 56.777L469.973 55.2656ZM468.338 54.7613H466.138V56.7613H468.338V54.7613ZM466.138 54.7613C465.911 54.7613 465.556 54.8189 465.266 55.1092C464.976 55.3995 464.918 55.7538 464.918 55.9813H466.918C466.918 56.0621 466.897 56.3064 466.68 56.5234C466.463 56.7404 466.219 56.7613 466.138 56.7613V54.7613ZM464.918 55.9813V59.0013H466.918V55.9813H464.918ZM464.918 59.0013C464.918 59.2288 464.976 59.5831 465.266 59.8734C465.556 60.1638 465.911 60.2213 466.138 60.2213V58.2213C466.219 58.2213 466.463 58.2422 466.68 58.4592C466.897 58.6762 466.918 58.9205 466.918 59.0013H464.918ZM466.138 54.7013H468.178V52.7013H466.138V54.7013ZM468.178 54.7013C468.707 54.7013 469.309 54.5996 469.773 54.197L468.463 52.6856C468.498 52.6552 468.512 52.6599 468.467 52.6725C468.419 52.6857 468.328 52.7013 468.178 52.7013V54.7013ZM469.8 54.1724C470.287 53.7181 470.418 53.0908 470.418 52.5413H468.418C468.418 52.6716 468.402 52.7379 468.394 52.7601C468.389 52.7766 468.396 52.7474 468.436 52.7103L469.8 54.1724ZM470.418 52.5413V51.7613H468.418V52.5413H470.418ZM470.418 51.7613C470.418 51.22 470.291 50.5741 469.773 50.1256L468.463 51.637C468.438 51.615 468.42 51.5925 468.408 51.5746C468.397 51.5573 468.395 51.5485 468.397 51.554C468.402 51.5686 468.418 51.6301 468.418 51.7613H470.418ZM469.825 50.1742C469.364 49.7125 468.733 49.6013 468.198 49.6013V51.6013C468.343 51.6013 468.423 51.6177 468.457 51.628C468.487 51.637 468.456 51.6335 468.411 51.5884L469.825 50.1742ZM468.198 49.6013H466.138V51.6013H468.198V49.6013ZM466.138 49.6013C465.911 49.6013 465.556 49.6589 465.266 49.9492C464.976 50.2395 464.918 50.5938 464.918 50.8213H466.918C466.918 50.9021 466.897 51.1464 466.68 51.3634C466.463 51.5804 466.219 51.6013 466.138 51.6013V49.6013ZM464.918 50.8213V53.4813H466.918V50.8213H464.918ZM464.918 53.4813C464.918 53.7088 464.976 54.0631 465.266 54.3534C465.556 54.6438 465.911 54.7013 466.138 54.7013V52.7013C466.219 52.7013 466.463 52.7222 466.68 52.9392C466.897 53.1562 466.918 53.4005 466.918 53.4813H464.918ZM464.378 60.9213V48.9013H462.378V60.9213H464.378ZM464.378 48.9013C464.378 48.9155 464.374 49.1097 464.19 49.2934C464.007 49.4771 463.812 49.4813 463.798 49.4813V47.4813C463.504 47.4813 463.1 47.5555 462.776 47.8792C462.452 48.2029 462.378 48.6072 462.378 48.9013H464.378ZM463.798 49.4813H468.598V47.4813H463.798V49.4813ZM468.598 49.4813C469.475 49.4813 470.006 49.711 470.339 50.0367L471.737 48.6059C470.924 47.8117 469.828 47.4813 468.598 47.4813V49.4813ZM470.339 50.0367C470.667 50.357 470.898 50.8667 470.898 51.7213H472.898C472.898 50.4959 472.556 49.4056 471.737 48.6059L470.339 50.0367ZM470.898 51.7213V52.5413H472.898V51.7213H470.898ZM470.898 52.5413C470.898 52.9526 470.804 53.2004 470.691 53.358C470.579 53.5133 470.384 53.6714 470.016 53.7879L470.62 55.6947C471.305 55.4778 471.9 55.1027 472.315 54.5246C472.729 53.9489 472.898 53.2634 472.898 52.5413H470.898ZM470.17 55.7302C470.501 55.7799 470.705 55.9017 470.851 56.0657L472.346 54.7369C471.851 54.1809 471.202 53.8627 470.466 53.7524L470.17 55.7302ZM470.863 56.0796C470.957 56.1806 471.078 56.402 471.078 56.9013H473.078C473.078 56.094 472.88 55.3153 472.333 54.723L470.863 56.0796ZM471.078 56.9013V58.1013H473.078V56.9013H471.078ZM471.078 58.1013C471.078 58.9559 470.847 59.4656 470.519 59.7859L471.917 61.2167C472.736 60.417 473.078 59.3267 473.078 58.1013H471.078ZM470.519 59.7859C470.184 60.1139 469.658 60.3413 468.798 60.3413V62.3413C470.018 62.3413 471.106 62.0087 471.917 61.2167L470.519 59.7859ZM468.798 60.3413H463.798V62.3413H468.798V60.3413ZM463.798 60.3413C463.812 60.3413 464.007 60.3455 464.19 60.5292C464.374 60.7129 464.378 60.9072 464.378 60.9213H462.378C462.378 61.2155 462.452 61.6197 462.776 61.9434C463.1 62.2671 463.504 62.3413 463.798 62.3413V60.3413ZM474.932 60.5013L475.631 59.7859L474.932 60.5013ZM474.932 51.9813L475.631 52.6967L475.631 52.6967L474.932 51.9813ZM481.572 52.0013L480.865 52.7084L480.873 52.7166L480.881 52.7247L481.572 52.0013ZM481.572 60.5013L482.271 61.2167L482.271 61.2165L481.572 60.5013ZM479.672 58.9013L478.991 58.1685L478.978 58.1811L478.965 58.1942L479.672 58.9013ZM479.672 53.5813L478.965 54.2884L478.978 54.3015L478.991 54.3141L479.672 53.5813ZM476.852 53.5813L477.559 54.2884L477.559 54.2884L476.852 53.5813ZM476.852 58.9013L477.559 58.1942L477.559 58.1942L476.852 58.9013ZM479.152 60.3413H477.372V62.3413H479.152V60.3413ZM477.372 60.3413C476.495 60.3413 475.964 60.1117 475.631 59.7859L474.233 61.2167C475.046 62.011 476.142 62.3413 477.372 62.3413V60.3413ZM475.631 59.7859C475.305 59.4679 475.072 58.9536 475.072 58.0813H473.072C473.072 59.3157 473.412 60.4147 474.233 61.2167L475.631 59.7859ZM475.072 58.0813V54.4013H473.072V58.0813H475.072ZM475.072 54.4013C475.072 53.5291 475.305 53.0147 475.631 52.6967L474.233 51.2659C473.412 52.0679 473.072 53.1669 473.072 54.4013H475.072ZM475.631 52.6967C475.964 52.3709 476.495 52.1413 477.372 52.1413V50.1413C476.142 50.1413 475.046 50.4717 474.233 51.2659L475.631 52.6967ZM477.372 52.1413H479.152V50.1413H477.372V52.1413ZM479.152 52.1413C480.005 52.1413 480.528 52.3717 480.865 52.7084L482.279 51.2942C481.469 50.4843 480.379 50.1413 479.152 50.1413V52.1413ZM480.881 52.7247C481.218 53.0463 481.452 53.5532 481.452 54.4013H483.452C483.452 53.1694 483.099 52.0763 482.262 51.278L480.881 52.7247ZM481.452 54.4013V58.0813H483.452V54.4013H481.452ZM481.452 58.0813C481.452 58.9282 481.219 59.4482 480.873 59.7861L482.271 61.2165C483.098 60.4078 483.452 59.3144 483.452 58.0813H481.452ZM480.873 59.7859C480.537 60.1139 480.012 60.3413 479.152 60.3413V62.3413C480.372 62.3413 481.46 62.0087 482.271 61.2167L480.873 59.7859ZM477.752 60.1613H478.772V58.1613H477.752V60.1613ZM478.772 60.1613C479.282 60.1613 479.92 60.0675 480.379 59.6084L478.965 58.1942C479.026 58.133 479.071 58.1266 479.039 58.1356C479.006 58.1453 478.923 58.1613 478.772 58.1613V60.1613ZM480.352 59.6341C480.845 59.1769 480.952 58.5269 480.952 58.0013H478.952C478.952 58.1474 478.935 58.2229 478.927 58.2492C478.92 58.2711 478.93 58.2254 478.991 58.1685L480.352 59.6341ZM480.952 58.0013V54.4813H478.952V58.0013H480.952ZM480.952 54.4813C480.952 53.9557 480.845 53.3057 480.352 52.8485L478.991 54.3141C478.93 54.2572 478.92 54.2115 478.927 54.2334C478.935 54.2597 478.952 54.3352 478.952 54.4813H480.952ZM480.379 52.8742C479.92 52.4151 479.282 52.3213 478.772 52.3213V54.3213C478.923 54.3213 479.006 54.3373 479.039 54.347C479.071 54.356 479.026 54.3496 478.965 54.2884L480.379 52.8742ZM478.772 52.3213H477.752V54.3213H478.772V52.3213ZM477.752 52.3213C477.242 52.3213 476.604 52.4151 476.145 52.8742L477.559 54.2884C477.498 54.3496 477.453 54.356 477.484 54.347C477.518 54.3373 477.601 54.3213 477.752 54.3213V52.3213ZM476.145 52.8742C475.686 53.3333 475.592 53.9716 475.592 54.4813H477.592C477.592 54.3301 477.608 54.2475 477.618 54.2138C477.627 54.1827 477.62 54.2272 477.559 54.2884L476.145 52.8742ZM475.592 54.4813V58.0013H477.592V54.4813H475.592ZM475.592 58.0013C475.592 58.511 475.686 59.1493 476.145 59.6084L477.559 58.1942C477.62 58.2554 477.627 58.2999 477.618 58.2688C477.608 58.2351 477.592 58.1525 477.592 58.0013H475.592ZM476.145 59.6084C476.604 60.0675 477.242 60.1613 477.752 60.1613V58.1613C477.601 58.1613 477.518 58.1453 477.484 58.1356C477.453 58.1266 477.498 58.133 477.559 58.1942L476.145 59.6084ZM483.788 60.9213L484.656 61.4174L484.664 61.4027L484.672 61.3877L483.788 60.9213ZM486.308 56.1413L487.192 56.6077L487.443 56.1312L487.184 55.6592L486.308 56.1413ZM483.788 51.5613L482.885 51.9912L482.897 52.0177L482.912 52.0434L483.788 51.5613ZM486.688 51.5613L485.739 51.8775L485.75 51.9113L485.764 51.9442L486.688 51.5613ZM487.948 54.6013L487.024 54.9842L487.28 55.6013H487.948V54.6013ZM488.028 54.6013V55.6013H488.729L488.968 54.9416L488.028 54.6013ZM489.128 51.5613L490.068 51.9016L490.072 51.8896L490.076 51.8775L489.128 51.5613ZM492.008 51.5613L491.157 51.035L491.139 51.0654L491.122 51.0972L492.008 51.5613ZM489.608 56.1413L488.722 55.6772L488.475 56.1483L488.728 56.6163L489.608 56.1413ZM492.188 60.9213L491.308 61.3963L491.313 61.407L492.188 60.9213ZM492.208 61.2213L491.376 60.6666L491.341 60.7184L491.313 60.7741L492.208 61.2213ZM489.288 60.9213L488.363 61.3021L488.366 61.3087L488.369 61.3152L489.288 60.9213ZM488.028 57.8613L488.952 57.4806L488.697 56.8613H488.028V57.8613ZM487.948 57.8613V56.8613H487.278L487.023 57.4806L487.948 57.8613ZM486.688 60.9213L485.763 60.5406L485.75 60.5724L485.739 60.6051L486.688 60.9213ZM486.088 60.3413H484.068V62.3413H486.088V60.3413ZM484.068 60.3413C484.038 60.3413 484.079 60.337 484.158 60.3621C484.24 60.3881 484.427 60.4681 484.57 60.6816C484.72 60.9068 484.723 61.1341 484.703 61.2618C484.685 61.3738 484.648 61.4312 484.656 61.4174L482.919 60.4252C482.823 60.5942 482.509 61.1959 482.906 61.791C483.095 62.0745 483.36 62.207 483.552 62.268C483.741 62.3281 483.924 62.3413 484.068 62.3413V60.3413ZM484.672 61.3877L487.192 56.6077L485.423 55.675L482.903 60.455L484.672 61.3877ZM487.184 55.6592L484.664 51.0792L482.912 52.0434L485.432 56.6234L487.184 55.6592ZM484.691 51.1314C484.684 51.117 484.708 51.162 484.72 51.2516C484.732 51.3471 484.733 51.5376 484.616 51.7424C484.495 51.9545 484.317 52.0595 484.199 52.1039C484.143 52.1249 484.098 52.1336 484.072 52.1374C484.046 52.1413 484.03 52.1413 484.028 52.1413V50.1413C483.815 50.1413 483.206 50.1781 482.879 50.7502C482.574 51.284 482.799 51.8116 482.885 51.9912L484.691 51.1314ZM484.028 52.1413H486.068V50.1413H484.028V52.1413ZM486.068 52.1413C486.084 52.1413 486.005 52.1442 485.902 52.0742C485.792 51.9995 485.749 51.9067 485.739 51.8775L487.636 51.2451C487.533 50.9359 487.34 50.6331 487.024 50.4184C486.714 50.2084 486.372 50.1413 486.068 50.1413V52.1413ZM485.764 51.9442L487.024 54.9842L488.871 54.2184L487.611 51.1784L485.764 51.9442ZM487.948 55.6013H488.028V53.6013H487.948V55.6013ZM488.968 54.9416L490.068 51.9016L488.187 51.2211L487.087 54.2611L488.968 54.9416ZM490.076 51.8775C490.067 51.9067 490.024 51.9995 489.914 52.0742C489.81 52.1442 489.732 52.1413 489.748 52.1413V50.1413C489.444 50.1413 489.102 50.2084 488.792 50.4184C488.475 50.6331 488.282 50.9359 488.179 51.2451L490.076 51.8775ZM489.748 52.1413H491.748V50.1413H489.748V52.1413ZM491.748 52.1413C491.779 52.1413 491.734 52.1458 491.651 52.1191C491.566 52.0915 491.366 52.0047 491.222 51.7727C491.073 51.5308 491.085 51.2952 491.11 51.1755C491.132 51.0688 491.169 51.017 491.157 51.035L492.858 52.0877C492.933 51.9656 493.025 51.7914 493.068 51.5796C493.115 51.3549 493.116 51.0319 492.923 50.72C492.736 50.4179 492.46 50.2786 492.266 50.216C492.075 50.1543 491.89 50.1413 491.748 50.1413V52.1413ZM491.122 51.0972L488.722 55.6772L490.493 56.6055L492.893 52.0255L491.122 51.0972ZM488.728 56.6163L491.308 61.3963L493.068 60.4463L490.488 55.6663L488.728 56.6163ZM491.313 61.407C491.3 61.383 491.254 61.2938 491.245 61.1528C491.234 60.9932 491.275 60.818 491.376 60.6666L493.04 61.776C493.385 61.2579 493.222 60.7244 493.062 60.4357L491.313 61.407ZM491.313 60.7741C491.402 60.5968 491.546 60.4716 491.694 60.4033C491.823 60.3436 491.923 60.3413 491.948 60.3413V62.3413C492.252 62.3413 492.816 62.2401 493.102 61.6685L491.313 60.7741ZM491.948 60.3413H489.888V62.3413H491.948V60.3413ZM489.888 60.3413C489.922 60.3413 490.009 60.3527 490.101 60.4171C490.187 60.4775 490.212 60.5384 490.207 60.5274L488.369 61.3152C488.484 61.5842 488.668 61.8551 488.954 62.0555C489.246 62.2599 489.574 62.3413 489.888 62.3413V60.3413ZM490.212 60.5406L488.952 57.4806L487.103 58.2421L488.363 61.3021L490.212 60.5406ZM488.028 56.8613H487.948V58.8613H488.028V56.8613ZM487.023 57.4806L485.763 60.5406L487.612 61.3021L488.872 58.2421L487.023 57.4806ZM485.739 60.6051C485.746 60.5851 485.784 60.4941 485.894 60.4171C486.001 60.3424 486.089 60.3413 486.088 60.3413V62.3413C486.393 62.3413 486.734 62.2702 487.041 62.0555C487.351 61.8385 487.536 61.5375 487.636 61.2375L485.739 60.6051Z" fill="url(#paint1_linear_222_6627)"/>
<path d="M406.065 56.4549V56.0549C406.065 55.7749 406.205 55.6349 406.485 55.6349H408.185C408.465 55.6349 408.605 55.7749 408.605 56.0549V56.2149C408.605 56.7215 408.705 57.0682 408.905 57.2549C409.105 57.4415 409.472 57.5349 410.005 57.5349H410.945C411.465 57.5349 411.825 57.4349 412.025 57.2349C412.238 57.0349 412.345 56.6615 412.345 56.1149V55.8749C412.345 55.4882 412.185 55.1949 411.865 54.9949C411.558 54.7815 411.172 54.6549 410.705 54.6149C410.238 54.5749 409.732 54.5015 409.185 54.3949C408.652 54.2749 408.152 54.1282 407.685 53.9549C407.218 53.7682 406.825 53.4149 406.505 52.8949C406.198 52.3615 406.045 51.6815 406.045 50.8549V50.1549C406.045 49.1149 406.338 48.3082 406.925 47.7349C407.512 47.1615 408.325 46.8749 409.365 46.8749H411.365C412.418 46.8749 413.238 47.1615 413.825 47.7349C414.412 48.3082 414.705 49.1149 414.705 50.1549V50.5349C414.705 50.8149 414.565 50.9549 414.285 50.9549H412.585C412.305 50.9549 412.165 50.8149 412.165 50.5349V50.4149C412.165 49.8949 412.065 49.5415 411.865 49.3549C411.665 49.1682 411.298 49.0749 410.765 49.0749H409.985C409.438 49.0749 409.065 49.1815 408.865 49.3949C408.678 49.5949 408.585 49.9949 408.585 50.5949V50.9749C408.585 51.6015 409.132 51.9615 410.225 52.0549C411.358 52.1482 412.365 52.3749 413.245 52.7349C413.712 52.9349 414.098 53.2949 414.405 53.8149C414.725 54.3215 414.885 54.9749 414.885 55.7749V56.4549C414.885 57.4949 414.592 58.3015 414.005 58.8749C413.418 59.4482 412.605 59.7349 411.565 59.7349H409.385C408.345 59.7349 407.532 59.4482 406.945 58.8749C406.358 58.3015 406.065 57.4949 406.065 56.4549ZM417.186 51.7349H416.386C416.226 51.7349 416.113 51.7082 416.046 51.6549C415.993 51.6015 415.966 51.4949 415.966 51.3349V49.9549C415.966 49.6749 416.106 49.5349 416.386 49.5349H417.186C417.333 49.5349 417.406 49.4615 417.406 49.3149V47.4149C417.406 47.1349 417.553 46.9949 417.846 46.9949H419.526C419.806 46.9949 419.946 47.1349 419.946 47.4149V49.3149C419.946 49.4615 420.026 49.5349 420.186 49.5349H421.746C422.026 49.5349 422.166 49.6749 422.166 49.9549V51.3349C422.166 51.4815 422.133 51.5882 422.066 51.6549C422.013 51.7082 421.906 51.7349 421.746 51.7349H420.186C420.026 51.7349 419.946 51.8082 419.946 51.9549V56.3749C419.946 56.7882 420.04 57.0882 420.226 57.2749C420.413 57.4482 420.72 57.5349 421.146 57.5349H421.946C422.226 57.5349 422.366 57.6749 422.366 57.9549V59.3349C422.366 59.4815 422.333 59.5882 422.266 59.6549C422.213 59.7082 422.106 59.7349 421.946 59.7349H420.726C419.673 59.7349 418.853 59.4549 418.266 58.8949C417.693 58.3349 417.406 57.5349 417.406 56.4949V51.9549C417.406 51.8082 417.333 51.7349 417.186 51.7349ZM427.597 59.7349H427.117C426.064 59.7349 425.25 59.4549 424.677 58.8949C424.104 58.3349 423.817 57.5282 423.817 56.4749V52.7949C423.817 51.7415 424.104 50.9349 424.677 50.3749C425.25 49.8149 426.064 49.5349 427.117 49.5349H431.737C432.03 49.5349 432.177 49.6749 432.177 49.9549V59.3149C432.177 59.5949 432.03 59.7349 431.737 59.7349H430.057C429.777 59.7349 429.637 59.5949 429.637 59.3149V58.6549H429.557C429.41 59.0149 429.15 59.2882 428.777 59.4749C428.404 59.6482 428.01 59.7349 427.597 59.7349ZM429.637 56.0149V51.9549C429.637 51.8082 429.557 51.7349 429.397 51.7349H427.517C427.09 51.7349 426.79 51.8282 426.617 52.0149C426.444 52.1882 426.357 52.4882 426.357 52.9149V56.3549C426.357 56.7815 426.444 57.0882 426.617 57.2749C426.79 57.4482 427.09 57.5349 427.517 57.5349H428.257C429.177 57.5349 429.637 57.0282 429.637 56.0149ZM436.489 59.7349H434.789C434.509 59.7349 434.369 59.5949 434.369 59.3149V49.9549C434.369 49.6749 434.509 49.5349 434.789 49.5349H436.489C436.769 49.5349 436.909 49.6749 436.909 49.9549V50.6349H436.989C437.135 50.2749 437.395 50.0015 437.769 49.8149C438.142 49.6282 438.535 49.5349 438.949 49.5349H439.669C439.935 49.5349 440.069 49.6749 440.069 49.9549V51.3349C440.069 51.4949 440.035 51.6082 439.969 51.6749C439.915 51.7282 439.815 51.7482 439.669 51.7349H438.289C437.369 51.7349 436.909 52.2549 436.909 53.2949V59.3149C436.909 59.5949 436.769 59.7349 436.489 59.7349ZM441.561 51.7349H440.761C440.601 51.7349 440.488 51.7082 440.421 51.6549C440.368 51.6015 440.341 51.4949 440.341 51.3349V49.9549C440.341 49.6749 440.481 49.5349 440.761 49.5349H441.561C441.708 49.5349 441.781 49.4615 441.781 49.3149V47.4149C441.781 47.1349 441.928 46.9949 442.221 46.9949H443.901C444.181 46.9949 444.321 47.1349 444.321 47.4149V49.3149C444.321 49.4615 444.401 49.5349 444.561 49.5349H446.121C446.401 49.5349 446.541 49.6749 446.541 49.9549V51.3349C446.541 51.4815 446.508 51.5882 446.441 51.6549C446.388 51.7082 446.281 51.7349 446.121 51.7349H444.561C444.401 51.7349 444.321 51.8082 444.321 51.9549V56.3749C444.321 56.7882 444.415 57.0882 444.601 57.2749C444.788 57.4482 445.095 57.5349 445.521 57.5349H446.321C446.601 57.5349 446.741 57.6749 446.741 57.9549V59.3349C446.741 59.4815 446.708 59.5882 446.641 59.6549C446.588 59.7082 446.481 59.7349 446.321 59.7349H445.101C444.048 59.7349 443.228 59.4549 442.641 58.8949C442.068 58.3349 441.781 57.5349 441.781 56.4949V51.9549C441.781 51.8082 441.708 51.7349 441.561 51.7349ZM452.252 59.7349H448.452C448.185 59.7349 448.052 59.5949 448.052 59.3149V58.0349C448.052 57.8882 448.079 57.7882 448.132 57.7349C448.185 57.6682 448.292 57.6349 448.452 57.6349H451.792C452.445 57.6349 452.772 57.4349 452.772 57.0349V56.9349C452.772 56.6149 452.499 56.3082 451.952 56.0149L449.972 54.9149C449.292 54.5682 448.792 54.1949 448.472 53.7949C448.152 53.3949 447.992 52.8815 447.992 52.2549C447.992 51.3215 448.239 50.6349 448.732 50.1949C449.225 49.7549 449.999 49.5349 451.052 49.5349H454.392C454.659 49.5349 454.792 49.6749 454.792 49.9549V51.2549C454.792 51.4015 454.765 51.5082 454.712 51.5749C454.659 51.6282 454.552 51.6549 454.392 51.6549H451.612C450.959 51.6549 450.632 51.8215 450.632 52.1549V52.2549C450.632 52.5482 450.919 52.8482 451.492 53.1549L453.512 54.3549C454.205 54.7282 454.692 55.1149 454.972 55.5149C455.252 55.9015 455.392 56.4149 455.392 57.0549C455.392 58.8415 454.345 59.7349 452.252 59.7349ZM464.516 57.6149H466.756C467.196 57.6149 467.509 57.5282 467.696 57.3549C467.896 57.1682 467.996 56.8682 467.996 56.4549V55.2949C467.996 54.8815 467.896 54.5882 467.696 54.4149C467.496 54.2415 467.169 54.1549 466.716 54.1549H464.516C464.369 54.1549 464.296 54.2282 464.296 54.3749V57.3949C464.296 57.5415 464.369 57.6149 464.516 57.6149ZM464.516 52.0949H466.556C466.983 52.0949 467.296 52.0082 467.496 51.8349C467.696 51.6482 467.796 51.3482 467.796 50.9349V50.1549C467.796 49.7415 467.696 49.4482 467.496 49.2749C467.309 49.0882 467.003 48.9949 466.576 48.9949H464.516C464.369 48.9949 464.296 49.0682 464.296 49.2149V51.8749C464.296 52.0215 464.369 52.0949 464.516 52.0949ZM461.756 59.3149V47.2949C461.756 47.0149 461.896 46.8749 462.176 46.8749H466.976C468.029 46.8749 468.843 47.1549 469.416 47.7149C469.989 48.2749 470.276 49.0749 470.276 50.1149V50.9349C470.276 52.0682 469.749 52.8015 468.696 53.1349C469.229 53.2149 469.656 53.4349 469.976 53.7949C470.296 54.1415 470.456 54.6415 470.456 55.2949V56.4949C470.456 57.5349 470.169 58.3349 469.596 58.8949C469.023 59.4549 468.216 59.7349 467.176 59.7349H462.176C461.896 59.7349 461.756 59.5949 461.756 59.3149ZM477.53 59.7349H475.75C474.696 59.7349 473.883 59.4549 473.31 58.8949C472.736 58.3349 472.45 57.5282 472.45 56.4749V52.7949C472.45 51.7415 472.736 50.9349 473.31 50.3749C473.883 49.8149 474.696 49.5349 475.75 49.5349H477.53C478.57 49.5349 479.376 49.8215 479.95 50.3949C480.536 50.9549 480.83 51.7549 480.83 52.7949V56.4749C480.83 57.5149 480.536 58.3215 479.95 58.8949C479.376 59.4549 478.57 59.7349 477.53 59.7349ZM476.13 57.5549H477.15C477.576 57.5549 477.876 57.4682 478.05 57.2949C478.236 57.1215 478.33 56.8215 478.33 56.3949V52.8749C478.33 52.4482 478.236 52.1482 478.05 51.9749C477.876 51.8015 477.576 51.7149 477.15 51.7149H476.13C475.703 51.7149 475.403 51.8015 475.23 51.9749C475.056 52.1482 474.97 52.4482 474.97 52.8749V56.3949C474.97 56.8215 475.056 57.1215 475.23 57.2949C475.403 57.4682 475.703 57.5549 476.13 57.5549ZM484.466 59.7349H482.446C482.099 59.7349 482.006 59.5949 482.166 59.3149L484.686 54.5349L482.166 49.9549C482.032 49.6749 482.112 49.5349 482.406 49.5349H484.446C484.766 49.5349 484.972 49.6749 485.066 49.9549L486.326 52.9949H486.406L487.506 49.9549C487.599 49.6749 487.806 49.5349 488.126 49.5349H490.126C490.472 49.5349 490.559 49.6749 490.386 49.9549L487.986 54.5349L490.566 59.3149C490.632 59.4349 490.639 59.5349 490.586 59.6149C490.546 59.6949 490.459 59.7349 490.326 59.7349H488.266C487.986 59.7349 487.786 59.5949 487.666 59.3149L486.406 56.2549H486.326L485.066 59.3149C484.972 59.5949 484.772 59.7349 484.466 59.7349Z" fill="white"/>
<g filter="url(#filter1_d_222_6627)">
<ellipse cx="587.091" cy="54.783" rx="13.6304" ry="13.6546" fill="#7E00FF" shape-rendering="crispEdges"/>
<path d="M587.091 69.146C595.012 69.146 601.43 62.7143 601.43 54.783C601.43 46.8518 595.012 40.4201 587.091 40.4201C579.171 40.4201 572.753 46.8518 572.753 54.783C572.753 62.7143 579.171 69.146 587.091 69.146Z" stroke="url(#paint2_linear_222_6627)" stroke-width="1.41667" shape-rendering="crispEdges"/>
</g>
<path d="M569.234 291.485V286.565C569.234 285.885 569.534 285.365 570.134 285.005L575.594 281.585C576.514 281.025 577.294 280.745 577.934 280.745H582.734C583.574 280.745 583.994 281.165 583.994 282.005V318.065C583.994 318.545 583.894 318.885 583.694 319.085C583.534 319.245 583.234 319.325 582.794 319.325H577.634C576.794 319.325 576.374 318.905 576.374 318.065V288.845L570.494 292.205C569.654 292.565 569.234 292.325 569.234 291.485Z" fill="white"/>
<g filter="url(#filter2_f_222_6627)">
<ellipse cx="147.288" cy="192.112" rx="38.866" ry="3.192" fill="#7E00FF"/>
</g>
<mask id="path-9-inside-1_222_6627" fill="white">
<rect x="82.4072" y="81.4521" width="44.1603" height="68.4985" rx="1.77668"/>
</mask>
<rect x="82.4072" y="81.4521" width="44.1603" height="68.4985" rx="1.77668" fill="#A248FF" stroke="url(#paint3_linear_222_6627)" stroke-width="4" mask="url(#path-9-inside-1_222_6627)"/>
<mask id="path-10-inside-2_222_6627" fill="white">
<rect x="167.88" y="97.1504" width="48.4338" height="52.8009" rx="1.77668"/>
</mask>
<rect x="167.88" y="97.1504" width="48.4338" height="52.8009" rx="1.77668" fill="#6000C4" stroke="url(#paint4_linear_222_6627)" stroke-width="4" mask="url(#path-10-inside-2_222_6627)"/>
<mask id="path-11-inside-3_222_6627" fill="white">
<rect x="120.774" y="57.1929" width="57.0729" height="93.1727" rx="1.77668"/>
</mask>
<rect x="120.774" y="57.1929" width="57.0729" height="93.1727" rx="1.77668" fill="#7E00FF" stroke="url(#paint5_linear_222_6627)" stroke-width="4" mask="url(#path-11-inside-3_222_6627)"/>
<rect x="79.5576" y="146.13" width="139.512" height="9.52903" rx="4.76451" fill="#7E00FF"/>
<path d="M149.181 81.1527V79.6958C149.181 79.4945 149.27 79.3405 149.448 79.2339L151.065 78.2212C151.337 78.0553 151.568 77.9724 151.757 77.9724H153.179C153.428 77.9724 153.552 78.0968 153.552 78.3455V89.0234C153.552 89.1655 153.522 89.2662 153.463 89.3254C153.416 89.3728 153.327 89.3965 153.197 89.3965H151.669C151.42 89.3965 151.295 89.2721 151.295 89.0234V80.371L149.554 81.3659C149.306 81.4725 149.181 81.4014 149.181 81.1527Z" fill="white"/>
<path d="M103.158 107.575V105.887C103.158 105.212 103.448 104.638 104.028 104.164L107.297 101.392C107.83 100.954 108.097 100.48 108.097 99.9709V99.4379C108.097 99.0708 108.008 98.8102 107.83 98.6562C107.665 98.4904 107.386 98.4075 106.995 98.4075H106.373C105.994 98.4075 105.728 98.4904 105.574 98.6562C105.42 98.8102 105.343 99.0708 105.343 99.4379V100.006C105.343 100.267 105.219 100.397 104.97 100.397H103.46C103.211 100.397 103.087 100.267 103.087 100.006V99.4024C103.087 98.4785 103.341 97.7679 103.851 97.2704C104.36 96.7729 105.082 96.5242 106.018 96.5242H107.368C108.304 96.5242 109.027 96.7729 109.536 97.2704C110.045 97.7679 110.3 98.4785 110.3 99.4024V100.113C110.3 101.037 109.945 101.801 109.234 102.405L105.894 105.248C105.752 105.378 105.681 105.52 105.681 105.674V105.958H109.927C110.176 105.958 110.3 106.083 110.3 106.331V107.575C110.3 107.824 110.176 107.948 109.927 107.948H103.531C103.282 107.948 103.158 107.824 103.158 107.575Z" fill="white"/>
<path d="M197.284 117.001H198.19C198.581 117.001 198.859 116.924 199.025 116.77C199.202 116.604 199.291 116.337 199.291 115.97V115.135C199.291 114.768 199.202 114.507 199.025 114.353C198.859 114.188 198.581 114.105 198.19 114.105H197.337C196.958 114.105 196.691 114.188 196.537 114.353C196.383 114.507 196.306 114.768 196.306 115.135V115.579C196.306 115.828 196.182 115.952 195.933 115.952H194.423C194.174 115.952 194.05 115.828 194.05 115.579V115.1C194.05 114.176 194.305 113.465 194.814 112.968C195.323 112.47 196.046 112.221 196.982 112.221H198.563C199.499 112.221 200.221 112.47 200.73 112.968C201.24 113.465 201.494 114.176 201.494 115.1V115.988C201.494 116.983 201.027 117.628 200.091 117.925C201.027 118.126 201.494 118.771 201.494 119.861V120.767C201.494 121.691 201.24 122.402 200.73 122.899C200.221 123.397 199.499 123.646 198.563 123.646H196.982C196.046 123.646 195.323 123.397 194.814 122.899C194.305 122.402 194.05 121.691 194.05 120.767V120.27C194.05 120.009 194.174 119.879 194.423 119.879H195.933C196.182 119.879 196.306 120.009 196.306 120.27V120.732C196.306 121.111 196.383 121.377 196.537 121.531C196.691 121.685 196.958 121.762 197.337 121.762H198.19C198.581 121.762 198.859 121.685 199.025 121.531C199.202 121.365 199.291 121.099 199.291 120.732V119.861C199.291 119.494 199.202 119.233 199.025 119.079C198.859 118.914 198.581 118.831 198.19 118.831H197.284C197.035 118.831 196.911 118.706 196.911 118.458V117.392C196.911 117.131 197.035 117.001 197.284 117.001Z" fill="white"/>
<defs>
<filter id="filter0_d_222_6627" x="0" y="0" width="645" height="418" filterUnits="userSpaceOnUse" color-interpolation-filters="sRGB">
<feFlood flood-opacity="0" result="BackgroundImageFix"/>
<feColorMatrix in="SourceAlpha" type="matrix" values="0 0 0 0 0 0 0 0 0 0 0 0 0 0 0 0 0 0 127 0" result="hardAlpha"/>
<feOffset/>
<feGaussianBlur stdDeviation="4.5"/>
<feComposite in2="hardAlpha" operator="out"/>
<feColorMatrix type="matrix" values="0 0 0 0 0.494118 0 0 0 0 0 0 0 0 0 1 0 0 0 0.15 0"/>
<feBlend mode="normal" in2="BackgroundImageFix" result="effect1_dropShadow_222_6627"/>
<feBlend mode="normal" in="SourceGraphic" in2="effect1_dropShadow_222_6627" result="shape"/>
</filter>
<filter id="filter1_d_222_6627" x="566.377" y="39.7119" width="41.4281" height="41.4759" filterUnits="userSpaceOnUse" color-interpolation-filters="sRGB">
<feFlood flood-opacity="0" result="BackgroundImageFix"/>
<feColorMatrix in="SourceAlpha" type="matrix" values="0 0 0 0 0 0 0 0 0 0 0 0 0 0 0 0 0 0 127 0" result="hardAlpha"/>
<feOffset dy="5.66667"/>
<feGaussianBlur stdDeviation="2.83333"/>
<feComposite in2="hardAlpha" operator="out"/>
<feColorMatrix type="matrix" values="0 0 0 0 0.494118 0 0 0 0 0 0 0 0 0 1 0 0 0 1 0"/>
<feBlend mode="normal" in2="BackgroundImageFix" result="effect1_dropShadow_222_6627"/>
<feBlend mode="normal" in="SourceGraphic" in2="effect1_dropShadow_222_6627" result="shape"/>
</filter>
<filter id="filter2_f_222_6627" x="100.474" y="180.972" width="93.6286" height="22.28" filterUnits="userSpaceOnUse" color-interpolation-filters="sRGB">
<feFlood flood-opacity="0" result="BackgroundImageFix"/>
<feBlend mode="normal" in="SourceGraphic" in2="BackgroundImageFix" result="shape"/>
<feGaussianBlur stdDeviation="3.97404" result="effect1_foregroundBlur_222_6627"/>
</filter>
<radialGradient id="paint0_radial_222_6627" cx="0" cy="0" r="1" gradientUnits="userSpaceOnUse" gradientTransform="translate(110.079 385.16) scale(788.417 692.353)">
<stop stop-color="#92DDFF"/>
<stop offset="1"/>
</radialGradient>
<linearGradient id="paint1_linear_222_6627" x1="406.707" y1="45.4322" x2="426.193" y2="104.088" gradientUnits="userSpaceOnUse">
<stop stop-color="white"/>
<stop offset="0.255208" stop-color="white" stop-opacity="0"/>
<stop offset="0.505208" stop-color="white"/>
<stop offset="0.755208" stop-color="white" stop-opacity="0"/>
<stop offset="1" stop-color="white"/>
</linearGradient>
<linearGradient id="paint2_linear_222_6627" x1="576.869" y1="44.5421" x2="596.5" y2="65.8427" gradientUnits="userSpaceOnUse">
<stop stop-color="white"/>
<stop offset="1" stop-color="white" stop-opacity="0"/>
</linearGradient>
<linearGradient id="paint3_linear_222_6627" x1="104.487" y1="81.4521" x2="104.487" y2="149.951" gradientUnits="userSpaceOnUse">
<stop stop-color="white"/>
<stop offset="1" stop-color="white" stop-opacity="0"/>
</linearGradient>
<linearGradient id="paint4_linear_222_6627" x1="192.097" y1="97.1504" x2="192.097" y2="149.951" gradientUnits="userSpaceOnUse">
<stop stop-color="white"/>
<stop offset="1" stop-color="white" stop-opacity="0"/>
</linearGradient>
<linearGradient id="paint5_linear_222_6627" x1="149.311" y1="57.1929" x2="149.311" y2="150.366" gradientUnits="userSpaceOnUse">
<stop stop-color="white"/>
<stop offset="1" stop-color="white" stop-opacity="0"/>
</linearGradient>
</defs>
</svg>
