<svg width="58" height="58" viewBox="0 0 58 58" fill="none" xmlns="http://www.w3.org/2000/svg">
<g filter="url(#filter0_d_395_6458)">
<circle cx="29" cy="25" r="25" fill="url(#paint0_linear_395_6458)"/>
</g>
<path d="M26.3689 17.105H31.632C34.2636 17.105 34.2636 15.7892 34.2636 14.4734C34.2636 11.8418 32.9478 11.8418 31.632 11.8418H26.3689C25.0531 11.8418 23.7373 11.8418 23.7373 14.4734C23.7373 17.105 25.0531 17.105 26.3689 17.105Z" stroke="white" stroke-width="1.97368" stroke-miterlimit="10" stroke-linecap="round" stroke-linejoin="round"/>
<path d="M34.2635 14.5C38.645 14.7368 40.8424 16.3553 40.8424 22.3684V30.2632C40.8424 35.5263 39.5266 38.1579 32.9477 38.1579H25.0529C18.474 38.1579 17.1582 35.5263 17.1582 30.2632V22.3684C17.1582 16.3684 19.3556 14.7368 23.7372 14.5" stroke="white" stroke-width="1.97368" stroke-miterlimit="10" stroke-linecap="round" stroke-linejoin="round"/>
<defs>
<filter id="filter0_d_395_6458" x="0" y="0" width="58" height="58" filterUnits="userSpaceOnUse" color-interpolation-filters="sRGB">
<feFlood flood-opacity="0" result="BackgroundImageFix"/>
<feColorMatrix in="SourceAlpha" type="matrix" values="0 0 0 0 0 0 0 0 0 0 0 0 0 0 0 0 0 0 127 0" result="hardAlpha"/>
<feOffset dy="4"/>
<feGaussianBlur stdDeviation="2"/>
<feComposite in2="hardAlpha" operator="out"/>
<feColorMatrix type="matrix" values="0 0 0 0 0.0823529 0 0 0 0 0.439216 0 0 0 0 0.937255 0 0 0 0.15 0"/>
<feBlend mode="normal" in2="BackgroundImageFix" result="effect1_dropShadow_395_6458"/>
<feBlend mode="normal" in="SourceGraphic" in2="effect1_dropShadow_395_6458" result="shape"/>
</filter>
<linearGradient id="paint0_linear_395_6458" x1="28.9836" y1="50" x2="28.9836" y2="0" gradientUnits="userSpaceOnUse">
<stop stop-color="#2E6CFF"/>
<stop offset="1" stop-color="#59B4FF"/>
</linearGradient>
</defs>
</svg>
