<svg width="46" height="46" viewBox="0 0 46 46" fill="none" xmlns="http://www.w3.org/2000/svg">
<path d="M4.93771 36.4366L4.89937 36.4749C4.38187 35.3441 4.05604 34.0599 3.92188 32.6416C4.05604 34.0408 4.42021 35.3058 4.93771 36.4366Z" fill="white"/>
<path d="M17.2433 19.8948C19.7626 19.8948 21.805 17.8525 21.805 15.3332C21.805 12.8138 19.7626 10.7715 17.2433 10.7715C14.724 10.7715 12.6816 12.8138 12.6816 15.3332C12.6816 17.8525 14.724 19.8948 17.2433 19.8948Z" fill="white"/>
<path d="M31.0334 3.83301H14.9718C7.9951 3.83301 3.83594 7.99217 3.83594 14.9688V31.0305C3.83594 33.1197 4.2001 34.9405 4.90927 36.4738C6.5576 40.1155 10.0843 42.1663 14.9718 42.1663H31.0334C38.0101 42.1663 42.1693 38.0072 42.1693 31.0305V26.6413V14.9688C42.1693 7.99217 38.0101 3.83301 31.0334 3.83301ZM39.0451 23.958C37.5501 22.6738 35.1351 22.6738 33.6401 23.958L25.6668 30.8005C24.1718 32.0847 21.7568 32.0847 20.2618 30.8005L19.6101 30.2638C18.2493 29.0755 16.0834 28.9605 14.5501 29.9955L7.38177 34.8063C6.9601 33.733 6.71094 32.4872 6.71094 31.0305V14.9688C6.71094 9.56384 9.56677 6.70801 14.9718 6.70801H31.0334C36.4384 6.70801 39.2943 9.56384 39.2943 14.9688V24.1688L39.0451 23.958Z" fill="white"/>
</svg>
